<svg width="519" height="550" viewBox="0 0 519 550" fill="none" xmlns="http://www.w3.org/2000/svg">
<path d="M5.71783 458.913L158.119 546.74C164.936 550.692 175.272 551.131 181.21 547.618L515.042 355.277C520.979 351.984 520.1 346.056 513.282 342.103L360.881 254.277C354.064 250.325 343.728 249.885 337.79 253.398L3.9585 445.959C-1.75928 449.032 -1.09955 455.18 5.71783 458.913Z" fill="#F3F5FC"/>
<path d="M0.219971 403.802L31.6678 398.312L338.01 221.781C343.947 218.487 354.283 218.707 361.101 222.659L502.946 304.557L519 301.703V317.951C519 320.147 517.681 322.123 515.042 323.66L181.21 516.22C175.272 519.513 164.936 519.294 158.119 515.342L5.71783 427.515C1.97925 425.319 0 422.465 0 419.83V403.802H0.219971Z" fill="#E7EBF7"/>
<path d="M5.71826 411.267L158.12 499.094C164.937 503.046 175.273 503.485 181.211 499.972L515.042 307.632C520.98 304.338 520.1 298.41 513.283 294.458L360.881 206.631C354.064 202.679 343.728 202.24 337.79 205.753L3.95892 398.313C-1.75885 401.387 -1.09912 407.315 5.71826 411.267Z" fill="#F0F3FB"/>
<path d="M31.7106 382.113L208.743 484.212L500.056 316.262L323.244 214.163L31.7106 382.113Z" fill="#5E5ED5"/>
<path d="M403.752 248.246L427.283 261.859C428.382 262.518 429.922 262.518 430.801 262.079L431.021 261.859C431.901 261.42 431.901 260.542 430.801 259.883L407.27 246.27C406.171 245.612 404.631 245.612 403.752 246.051L403.532 246.27C402.652 246.709 402.872 247.588 403.752 248.246Z" fill="#E9E9FF"/>
<path d="M451.205 324.197L455.531 326.684L465.418 321.087L461.092 318.6L451.205 324.197Z" fill="url(#paint0_linear)"/>
<path d="M443.79 319.843L447.806 322.33L457.694 316.423L453.368 314.246L443.79 319.843Z" fill="url(#paint1_linear)"/>
<path d="M436.065 315.49L440.082 317.666L449.969 312.07L445.953 309.582L436.065 315.49Z" fill="url(#paint2_linear)"/>
<path d="M428.341 310.827L432.358 313.314L442.245 307.718L438.228 305.23L428.341 310.827Z" fill="url(#paint3_linear)"/>
<path opacity="0.6" d="M310.767 362.766C271.159 362.766 239.051 344.429 239.051 321.808C239.051 299.188 271.159 280.851 310.767 280.851C350.374 280.851 382.482 299.188 382.482 321.808C382.482 344.429 350.374 362.766 310.767 362.766Z" fill="#4C50BE"/>
<path d="M310.655 375.212C334.186 375.212 357.717 369.943 375.53 359.623C393.123 349.523 402.579 336.13 402.579 321.638C402.579 307.366 392.903 293.753 375.53 283.653C339.684 263.014 281.406 263.014 245.56 283.653C227.967 293.753 218.51 307.147 218.51 321.638C218.51 335.91 228.187 349.523 245.56 359.623C263.593 370.162 287.124 375.212 310.655 375.212ZM310.655 270.04C333.966 270.04 357.057 275.09 374.87 285.41C391.803 295.29 401.26 308.245 401.26 321.858C401.26 335.69 391.803 348.645 374.87 358.306C339.464 378.725 281.846 378.725 246.659 358.306C229.726 348.425 220.27 335.471 220.27 321.858C220.27 308.025 229.726 295.071 246.659 285.41C264.033 275.31 287.344 270.04 310.655 270.04Z" fill="white"/>
<path d="M206.635 371.919C206.855 371.919 206.855 371.919 207.075 371.919L237.423 354.354C237.863 354.134 237.863 353.695 237.643 353.256C237.423 352.817 236.983 352.817 236.543 353.037L206.195 370.602C205.755 370.821 205.755 371.261 205.975 371.7C206.195 371.7 206.415 371.919 206.635 371.919Z" fill="white"/>
<path d="M186.183 436.911C186.842 436.911 187.282 436.472 187.282 435.813C187.282 435.155 186.842 434.715 186.183 434.496C168.809 433.178 151.216 427.909 136.922 419.565C121.528 410.563 112.071 401.78 109.432 393.217C109.212 392.559 108.553 392.339 107.893 392.559C107.233 392.778 107.013 393.437 107.233 394.096C110.312 403.317 119.768 412.539 135.822 421.761C150.556 430.105 168.37 435.594 186.183 436.911Z" fill="white"/>
<path d="M107.673 388.606C108.333 388.606 108.772 388.167 108.772 387.508C108.992 380.702 114.05 374.334 123.287 368.845C143.519 357.208 170.129 357.208 197.838 369.065C198.498 369.284 199.158 369.065 199.377 368.406C199.597 367.747 199.377 367.089 198.718 366.869C170.129 354.793 143.079 354.793 121.967 366.869C112.071 372.578 106.573 379.604 106.353 387.289C106.573 388.167 107.013 388.606 107.673 388.606Z" fill="white"/>
<path d="M203.996 436.911C213.892 436.033 222.469 433.617 228.846 429.885C236.104 425.713 240.502 420.224 241.821 413.637C242.041 412.758 241.821 411.88 241.162 411.002C240.062 409.685 237.863 409.026 235.444 409.026C232.805 409.245 230.606 410.343 230.166 412.1C228.846 416.491 225.548 420.443 220.49 423.298C202.457 433.617 167.71 430.543 143.079 416.272C127.245 407.05 118.669 397.828 118.669 389.265C118.669 383.337 122.847 377.628 130.984 373.017C151.876 360.941 180.025 363.576 208.394 380.043C218.73 385.971 225.987 393.217 229.066 400.463C229.726 402 231.705 402.878 234.124 403.098C236.543 403.098 238.523 402.219 239.402 400.902C239.842 400.024 240.062 399.145 239.622 398.267C235.444 389.704 227.087 381.8 215.212 374.993C214.552 374.773 213.892 374.773 213.672 375.432C213.452 376.091 213.452 376.75 214.112 376.969C225.548 383.556 233.684 391.241 237.643 399.365C237.643 399.584 237.643 399.585 237.643 399.804C237.203 400.463 236.104 400.902 234.344 400.902C232.585 400.902 231.705 400.243 231.485 399.804C228.187 392.119 220.49 384.434 209.714 378.287C180.465 361.38 151.436 358.965 129.884 371.26C121.088 376.31 116.47 382.678 116.47 389.484C116.47 398.926 125.046 408.806 141.98 418.467C167.27 432.959 203.116 436.252 221.809 425.493C227.527 422.2 231.265 417.809 232.585 412.978C232.805 412.319 234.124 411.661 235.884 411.661C237.643 411.661 239.182 412.1 239.622 412.759C239.842 412.978 239.842 413.198 239.842 413.417C238.743 419.126 234.564 424.176 227.967 427.909C221.809 431.422 213.672 433.837 204.216 434.715C203.556 434.715 203.116 435.374 203.116 436.033C202.896 436.472 203.336 436.911 203.996 436.911Z" fill="white"/>
<path d="M174.747 425.055C176.507 425.055 178.486 424.396 179.365 423.298C180.025 422.42 180.245 421.542 180.025 420.663C179.585 419.346 178.266 418.468 176.507 418.028C168.59 416.491 161.112 413.637 154.515 409.904C143.739 403.757 137.801 397.609 136.922 392.12C136.482 389.485 137.582 386.85 139.781 384.435C140.66 383.556 140.88 382.678 140.66 381.8C140.44 380.482 139.341 379.604 137.582 378.946C134.723 377.848 131.204 378.506 129.665 380.263C126.586 383.556 125.046 387.289 125.266 391.241C125.706 396.95 129.885 402.878 137.582 408.807C138.021 409.246 138.901 409.026 139.121 408.587C139.561 408.148 139.341 407.27 138.901 407.05C131.644 401.561 127.905 396.291 127.465 391.241C127.246 387.948 128.345 384.874 131.204 382.019C132.084 381.141 134.723 380.482 136.702 381.361C137.801 381.8 138.241 382.239 138.241 382.459C138.241 382.459 138.241 382.678 138.021 383.117C135.162 385.972 134.063 389.265 134.503 392.559C135.382 398.926 141.76 405.513 153.196 412.1C160.013 416.052 167.71 418.907 175.847 420.444C176.946 420.663 177.606 421.102 177.606 421.541C177.606 421.541 177.606 421.761 177.386 421.981C176.726 422.639 174.967 423.078 173.208 422.859C164.191 420.883 155.615 417.589 148.357 413.418C147.698 413.198 147.038 413.198 146.818 413.857C146.598 414.515 146.598 415.174 147.258 415.394C154.735 419.785 163.751 423.078 172.768 425.055C173.648 425.055 174.307 425.055 174.747 425.055Z" fill="white"/>
<path d="M193 426.811H193.22C201.797 426.591 209.054 424.835 214.332 421.761C220.49 418.248 223.568 413.417 223.568 407.708C223.568 398.926 215.871 389.265 203.116 381.799C182.664 370.162 162.432 366.21 145.718 371.26C143.959 371.699 142.64 372.797 142.42 374.115C142.2 374.993 142.42 376.091 143.079 376.969C144.619 378.726 147.918 379.384 150.776 378.506C162.652 374.993 177.606 377.408 192.78 385.532C193.44 385.752 193.66 386.191 193.66 386.41C193.66 386.63 193.44 386.85 193 387.069C191.681 387.728 189.482 387.728 188.162 387.069C172.988 378.945 158.693 377.628 149.237 383.117C145.498 385.313 143.299 388.167 143.299 391.46C143.299 396.73 148.577 402.658 158.913 408.587C173.208 416.711 191.901 419.345 200.697 414.295C203.556 412.758 205.095 410.563 205.535 407.708C205.975 404.195 204.436 400.243 200.697 396.291C200.477 396.071 200.477 395.852 200.477 395.852C200.477 395.632 200.917 395.193 201.577 394.974C203.336 394.315 205.755 394.754 206.415 395.632C210.373 400.024 212.353 404.415 211.693 408.367C211.253 411.441 209.274 414.076 205.755 416.052C202.237 418.028 197.398 419.345 191.901 419.565C189.042 419.785 186.842 421.102 186.623 423.078C186.623 423.956 186.843 424.615 187.502 425.274C189.482 426.152 191.241 426.811 193 426.811ZM161.112 371.26C173.868 371.26 187.942 375.432 202.237 383.556C214.332 390.582 221.589 399.365 221.589 407.269C221.589 412.1 218.73 416.271 213.452 419.345C208.394 422.2 201.577 423.956 193.44 424.176C191.901 424.176 190.801 423.737 190.361 423.298C190.141 423.078 190.141 423.078 190.141 422.859C190.141 422.2 191.241 421.541 193.22 421.322C199.158 420.882 204.216 419.565 208.174 417.369C212.133 414.954 214.552 411.88 215.212 408.148C215.871 403.537 213.892 398.487 209.274 393.656C207.734 391.9 204.216 391.46 201.797 392.558C200.477 393.217 199.598 394.095 199.378 394.974C199.158 395.852 199.378 396.73 200.037 397.389C203.116 400.682 204.656 404.195 204.216 406.83C203.996 408.806 202.676 410.343 200.477 411.661C192.34 416.491 174.527 413.856 160.893 405.952C151.436 400.463 146.378 395.193 146.378 390.802C146.378 388.387 147.918 386.191 150.996 384.434C159.793 379.384 173.208 380.921 187.722 388.606C189.701 389.704 192.78 389.704 194.759 388.606C195.859 387.947 196.519 386.85 196.519 385.752C196.519 384.654 195.859 383.556 194.54 382.897C178.706 374.554 163.092 371.919 150.776 375.652C148.577 376.31 146.378 375.652 145.498 374.773C145.279 374.334 145.279 374.334 145.279 374.115C145.498 373.676 145.938 373.236 147.038 372.797C151.216 371.919 156.054 371.26 161.112 371.26Z" fill="white"/>
<path d="M187.502 411.441C190.361 411.441 192.56 411.002 194.32 409.904C196.079 408.806 197.178 407.269 197.178 405.293C197.178 401.122 192.78 396.072 185.303 391.9C173.208 384.874 162.652 383.117 156.274 386.63C153.635 388.167 152.976 390.143 152.976 391.461C152.976 394.754 156.054 398.706 162.212 402.659C164.191 403.976 167.49 403.976 169.469 402.878C170.569 402.219 171.228 401.341 171.228 400.243C171.228 399.146 170.789 398.267 169.689 397.609C164.631 394.315 164.631 392.998 164.631 392.998C165.95 392.119 170.349 392.778 178.046 397.389C183.324 400.463 185.523 403.098 185.523 403.756C185.523 404.415 185.963 404.854 186.623 404.854C187.282 404.854 187.722 404.415 187.722 403.756C187.722 400.682 181.125 396.511 178.925 395.193C173.648 392.119 166.61 388.826 163.312 390.802C162.432 391.241 161.992 391.9 161.992 392.778C161.992 393.876 162.652 395.852 168.15 399.365C168.589 399.585 168.589 399.804 168.589 400.024C168.589 400.243 168.37 400.463 167.93 400.682C166.61 401.561 164.191 401.341 163.092 400.682C155.834 395.852 154.735 392.778 154.735 391.461C154.735 390.363 155.614 389.265 156.934 388.387C159.573 386.85 167.49 384.215 183.544 393.656C190.141 397.389 194.32 402 194.32 405.074C194.32 406.172 193.88 407.05 192.56 407.709C189.701 409.246 184.203 409.246 177.826 407.489C177.166 407.269 176.506 407.709 176.506 408.367C176.287 409.026 176.726 409.685 177.386 409.685C181.564 411.002 184.863 411.441 187.502 411.441Z" fill="white"/>
<path d="M293.908 0.981064L39.9054 147.432C35.5071 149.847 31.9885 156.654 32.2084 162.582V337.357C32.2084 340.431 33.0881 342.847 34.8474 343.725L38.5859 345.921V343.944L39.9054 343.286L293.908 196.835C298.306 194.2 301.824 187.613 301.824 181.685V6.90937C301.824 5.3724 301.605 4.055 301.165 2.95717C300.637 1.7229 299.625 0.83273 299.185 0.54193C297.646 -0.336337 295.887 -0.11677 293.908 0.981064Z" fill="#F3F5FC"/>
<path d="M119.295 158.63V133.6L114.017 136.674C112.917 137.332 112.037 137.772 111.378 138.43C110.718 139.089 110.058 139.748 109.398 140.626C108.739 141.504 108.299 142.382 108.079 143.261C107.859 144.358 107.639 145.456 107.639 146.554C107.639 149.628 108.739 150.726 110.718 149.848C109.399 150.946 108.519 152.043 107.859 153.361C107.199 154.678 106.979 156.435 106.979 158.191C106.979 160.606 107.419 162.143 108.519 162.802C109.618 163.461 111.158 163.241 113.137 162.143L119.295 158.63ZM115.336 146.115L114.017 146.774C112.917 147.432 112.037 147.652 111.598 147.213C111.158 146.993 110.938 146.115 110.938 144.798C110.938 144.139 110.938 143.48 111.158 143.041C111.378 142.602 111.598 142.163 111.818 141.724C112.257 141.285 112.477 140.845 112.917 140.626C113.357 140.406 113.797 139.967 114.676 139.528L115.116 139.308V146.115H115.336ZM115.336 157.752L113.797 158.63C112.697 159.289 111.818 159.509 111.378 159.069C110.938 158.63 110.718 157.752 110.718 156.435C110.718 154.898 110.938 153.8 111.378 152.702C111.818 151.824 112.697 150.946 114.017 150.287L115.336 149.628V157.752Z" fill="white"/>
<path d="M105.66 166.535L101.262 144.139L97.0834 146.554L92.6851 174L96.4237 171.804L97.3034 165.437L101.042 163.241L101.922 168.511L105.66 166.535ZM100.602 160.606L97.7432 162.363L99.2826 151.385L100.602 160.606Z" fill="white"/>
<path d="M90.7058 175.098V150.287L88.0668 151.824L82.7888 168.95V154.898L79.4901 156.874V181.905L82.1291 180.368L87.4071 162.363V177.294L90.7058 175.098Z" fill="white"/>
<path d="M76.1914 183.441V158.63L72.2329 160.826V171.585L68.0545 163.241L64.316 165.437L68.4944 174.219L63.8762 190.687L67.8346 188.491L71.5732 174.659L72.4528 175.756V185.856L76.1914 183.441Z" fill="white"/>
<path d="M235.41 198.592L283.571 170.707V164.339L235.41 192.224V198.592Z" fill="white"/>
<path d="M176.033 232.625L224.414 204.959V198.592L176.033 226.257V232.625Z" fill="white"/>
<path d="M116.876 266.877L165.037 238.992V232.625L116.876 260.509V266.877Z" fill="white"/>
<path d="M57.7184 301.129L105.88 273.244V266.877L57.7184 294.542V301.129Z" fill="white"/>
<path d="M68.1914 142.486L287.967 16.0922C290.883 14.4318 293.592 14.2243 295.675 15.262L301.091 18.3751C301.091 18.3751 64.65 317.653 66.5248 318.898L61.1085 315.785C59.2337 314.747 57.9838 312.257 57.9838 308.936L57.5671 160.957C57.5671 154.109 62.3585 146.014 68.1914 142.486Z" fill="#9595E6"/>
<path d="M73.3992 318.69L294.425 191.673C299.841 188.56 304.424 180.051 304.424 172.787V26.4689C304.424 19.2049 300.049 15.8842 294.425 18.9974L73.3992 146.014C67.9829 149.127 63.3999 157.636 63.3999 164.9V311.219C63.3999 318.483 67.9829 321.803 73.3992 318.69Z" fill="#5E5ED5"/>
<path d="M189.849 220.107L277.968 169.259V162.617L189.849 213.258V220.107Z" fill="url(#paint4_linear)"/>
<path d="M238.804 203.088L277.968 180.466V173.825L238.804 196.447V203.088Z" fill="url(#paint5_linear)"/>
<path d="M270.052 156.183V146.429C270.052 144.976 271.093 143.108 272.552 142.278L276.51 139.995C277.76 139.165 279.009 139.787 279.009 141.448V151.202C279.009 152.655 277.968 154.523 276.51 155.353L272.552 157.636C271.093 158.466 270.052 157.844 270.052 156.183ZM272.343 143.731C271.718 144.146 271.093 144.976 271.093 145.806V155.561C271.093 156.391 271.718 156.598 272.343 156.183L276.301 153.9C276.926 153.485 277.551 152.655 277.551 151.825V142.07C277.551 141.24 276.926 141.033 276.301 141.448L272.343 143.731Z" fill="white"/>
<path d="M259.636 162.202V152.448C259.636 150.995 260.677 149.127 262.136 148.297L266.094 146.014C267.344 145.184 268.593 145.806 268.593 147.467V157.221C268.593 158.674 267.552 160.542 266.094 161.372L262.136 163.655C260.677 164.278 259.636 163.655 259.636 162.202ZM261.927 149.749C261.302 150.165 260.677 150.995 260.677 151.825V161.579C260.677 162.41 261.302 162.617 261.927 162.202L265.885 159.919C266.51 159.504 267.135 158.674 267.135 157.844V148.089C267.135 147.259 266.51 147.051 265.885 147.467L261.927 149.749Z" fill="white"/>
<path d="M249.22 168.221V158.466C249.22 157.014 250.261 155.146 251.72 154.315L255.678 152.032C256.927 151.202 258.177 151.825 258.177 153.485V163.24C258.177 164.693 257.136 166.561 255.678 167.391L251.72 169.674C250.261 170.296 249.22 169.674 249.22 168.221ZM251.511 155.561C250.886 155.976 250.261 156.806 250.261 157.636V167.391C250.261 168.221 250.886 168.428 251.511 168.013L255.469 165.73C256.094 165.315 256.719 164.485 256.719 163.655V153.9C256.719 153.07 256.094 152.863 255.469 153.278L251.511 155.561Z" fill="white"/>
<path d="M238.804 174.24V164.485C238.804 163.032 239.845 161.164 241.304 160.334L245.262 158.051C246.511 157.221 247.761 157.844 247.761 159.504V169.259C247.761 170.711 246.72 172.579 245.262 173.409L241.304 175.692C239.845 176.315 238.804 175.692 238.804 174.24ZM241.095 161.579C240.47 161.995 239.845 162.825 239.845 163.655V173.409C239.845 174.24 240.47 174.447 241.095 174.032L245.053 171.749C245.678 171.334 246.303 170.504 246.303 169.674V159.919C246.303 159.089 245.678 158.881 245.053 159.296L241.095 161.579Z" fill="white"/>
<path d="M219.847 185.032V175.277C219.847 173.825 220.888 171.957 222.346 171.127L226.305 168.844C227.554 168.013 228.804 168.636 228.804 170.296V180.051C228.804 181.504 227.763 183.372 226.305 184.202L222.346 186.485C220.888 187.315 219.847 186.692 219.847 185.032ZM222.138 172.579C221.513 172.995 220.888 173.825 220.888 174.655V184.409C220.888 185.24 221.513 185.447 222.138 185.032L226.096 182.749C226.721 182.334 227.346 181.504 227.346 180.674V170.919C227.346 170.089 226.721 169.881 226.096 170.296L222.138 172.579Z" fill="white"/>
<path d="M209.431 191.051V181.296C209.431 179.843 210.472 177.975 211.931 177.145L215.889 174.862C217.139 174.032 218.389 174.655 218.389 176.315V186.07C218.389 187.522 217.347 189.39 215.889 190.221L211.722 192.504C210.472 193.334 209.431 192.711 209.431 191.051ZM211.722 178.598C211.097 179.013 210.473 179.843 210.473 180.674V190.428C210.473 191.258 211.097 191.466 211.722 191.051L215.68 188.768C216.305 188.353 216.93 187.522 216.93 186.692V176.938C216.93 176.108 216.305 175.9 215.68 176.315L211.722 178.598Z" fill="white"/>
<path d="M199.015 197.07V187.315C199.015 185.862 200.057 183.994 201.515 183.164L205.473 180.881C206.723 180.051 207.973 180.674 207.973 182.334V192.089C207.973 193.541 206.931 195.409 205.473 196.239L201.515 198.522C200.057 199.145 199.015 198.522 199.015 197.07ZM201.307 184.41C200.682 184.825 200.057 185.655 200.057 186.485V196.239C200.057 197.07 200.682 197.277 201.307 196.862L205.265 194.579C205.89 194.164 206.515 193.334 206.515 192.504V182.749C206.515 181.919 205.89 181.711 205.265 182.127L201.307 184.41Z" fill="white"/>
<path d="M188.599 203.088V193.334C188.599 191.881 189.641 190.013 191.099 189.183L195.057 186.9C196.307 186.07 197.557 186.692 197.557 188.352V198.107C197.557 199.56 196.515 201.428 195.057 202.258L191.099 204.541C189.641 205.164 188.599 204.541 188.599 203.088ZM191.099 190.428C190.474 190.843 189.849 191.673 189.849 192.503V202.258C189.849 203.088 190.474 203.296 191.099 202.881L195.057 200.805C195.682 200.39 196.307 199.56 196.307 198.73V188.975C196.307 188.145 195.682 187.937 195.057 188.352L191.099 190.428Z" fill="white"/>
<path d="M169.642 213.88V204.126C169.642 202.673 170.684 200.805 172.142 199.975L176.1 197.692C177.35 196.862 178.6 197.484 178.6 199.145V208.899C178.6 210.352 177.558 212.22 176.1 213.05L172.142 215.333C170.684 216.163 169.642 215.541 169.642 213.88ZM171.934 201.428C171.309 201.843 170.684 202.673 170.684 203.503V213.258C170.684 214.088 171.309 214.296 171.934 213.88L175.892 211.597C176.517 211.182 177.142 210.352 177.142 209.522V199.767C177.142 198.937 176.517 198.73 175.892 199.145L171.934 201.428Z" fill="white"/>
<path d="M159.227 219.899V210.145C159.227 208.692 160.268 206.824 161.726 205.994L165.684 203.711C166.934 202.881 168.184 203.503 168.184 205.164V214.918C168.184 216.371 167.143 218.239 165.684 219.069L161.726 221.352C160.268 222.182 159.227 221.56 159.227 219.899ZM161.518 207.447C160.893 207.862 160.268 208.692 160.268 209.522V219.277C160.268 220.107 160.893 220.314 161.518 219.899L165.476 217.616C166.101 217.201 166.726 216.371 166.726 215.541V205.786C166.726 204.956 166.101 204.749 165.476 205.164L161.518 207.447Z" fill="white"/>
<path d="M148.811 225.918V216.163C148.811 214.71 149.852 212.843 151.31 212.012L155.268 209.729C156.518 208.899 157.768 209.522 157.768 211.182V220.937C157.768 222.39 156.727 224.257 155.268 225.088L151.31 227.371C149.852 227.993 148.811 227.371 148.811 225.918ZM151.31 213.465C150.685 213.88 150.06 214.71 150.06 215.541V225.295C150.06 226.125 150.685 226.333 151.31 225.918L155.268 223.635C155.893 223.22 156.518 222.39 156.518 221.559V211.805C156.518 210.975 155.893 210.767 155.268 211.182L151.31 213.465Z" fill="white"/>
<path d="M138.395 231.937V222.182C138.395 220.73 139.436 218.862 140.895 218.032L144.853 215.749C146.103 214.918 147.352 215.541 147.352 217.201V226.956C147.352 228.409 146.311 230.277 144.853 231.107L140.895 233.39C139.436 234.012 138.395 233.39 138.395 231.937ZM140.895 219.277C140.27 219.692 139.645 220.522 139.645 221.352V231.107C139.645 231.937 140.27 232.144 140.895 231.729L144.853 229.446C145.478 229.031 146.103 228.201 146.103 227.371V217.616C146.103 216.786 145.478 216.579 144.853 216.994L140.895 219.277Z" fill="white"/>
<path d="M119.438 242.729V232.975C119.438 231.522 120.479 229.654 121.937 228.824L125.895 226.541C127.145 225.71 128.395 226.333 128.395 227.993V237.748C128.395 239.201 127.354 241.069 125.895 241.899L121.937 244.182C120.479 245.012 119.438 244.389 119.438 242.729ZM121.937 230.276C121.312 230.692 120.687 231.522 120.687 232.352V242.106C120.687 242.937 121.312 243.144 121.937 242.729L125.895 240.446C126.52 240.031 127.145 239.201 127.145 238.371V228.616C127.145 227.786 126.52 227.578 125.895 227.993L121.937 230.276Z" fill="white"/>
<path d="M109.022 248.748V238.993C109.022 237.54 110.063 235.672 111.522 234.842L115.48 232.559C116.729 231.729 117.979 232.352 117.979 234.012V243.766C117.979 245.219 116.938 247.087 115.48 247.917L111.522 250.2C110.063 251.03 109.022 250.408 109.022 248.748ZM111.522 236.295C110.897 236.71 110.272 237.54 110.272 238.37V248.125C110.272 248.955 110.897 249.163 111.522 248.748L115.48 246.465C116.105 246.049 116.729 245.219 116.729 244.389V234.635C116.729 233.804 116.105 233.597 115.48 234.012L111.522 236.295Z" fill="white"/>
<path d="M98.6057 254.767V245.012C98.6057 243.559 99.6473 241.691 101.106 240.861L105.064 238.578C106.313 237.748 107.563 238.371 107.563 240.031V249.786C107.563 251.238 106.522 253.106 105.064 253.937L101.106 256.219C99.6473 257.05 98.6057 256.219 98.6057 254.767ZM101.106 242.314C100.481 242.729 99.8556 243.559 99.8556 244.389V254.144C99.8556 254.974 100.481 255.182 101.106 254.767L105.064 252.484C105.689 252.069 106.313 251.238 106.313 250.408V240.654C106.313 239.824 105.689 239.616 105.064 240.031L101.106 242.314Z" fill="white"/>
<path d="M88.1899 260.785V251.031C88.1899 249.578 89.2315 247.71 90.6898 246.88L94.6478 244.597C95.8977 243.767 97.1476 244.389 97.1476 246.05V255.804C97.1476 257.257 96.106 259.125 94.6478 259.955L90.6898 262.238C89.2315 262.861 88.1899 262.238 88.1899 260.785ZM90.6898 248.125C90.0648 248.54 89.4399 249.37 89.4399 250.2V259.955C89.4399 260.785 90.0648 260.993 90.6898 260.578L94.6478 258.295C95.2728 257.879 95.8977 257.049 95.8977 256.219V246.465C95.8977 245.634 95.2728 245.427 94.6478 245.842L90.6898 248.125Z" fill="white"/>
<path d="M272.76 111.561C272.76 109.901 272.343 108.656 271.718 107.826L278.801 103.675V112.392L271.718 116.542C272.343 114.882 272.76 113.222 272.76 111.561Z" fill="white"/>
<path d="M250.47 119.033V112.599C250.47 110.109 252.136 107.203 254.428 105.958L255.886 105.128V116.127L250.47 119.033Z" fill="white"/>
<path d="M273.385 94.958L275.051 93.9202C277.134 92.675 279.009 93.7127 279.009 96.2032V102.637L273.385 105.75V94.958Z" fill="white"/>
<path d="M278.801 113.429V119.863C278.801 122.353 277.135 125.259 274.843 126.504L273.177 127.542V116.542L278.801 113.429Z" fill="white"/>
<path d="M271.093 106.996C269.635 105.543 267.343 105.335 264.635 106.996C261.927 108.449 259.636 111.354 258.177 114.675L256.719 115.505V104.505L272.343 95.5808V106.581L271.093 106.996Z" fill="white"/>
<path d="M258.177 125.467C259.636 126.92 261.927 127.127 264.635 125.467C267.343 124.014 269.635 121.108 271.093 117.788L272.343 117.165V128.165L256.719 137.089V126.09L258.177 125.467Z" fill="white"/>
<path d="M255.678 137.712L254.22 138.542C252.136 139.788 250.261 138.75 250.261 136.259V129.826L255.469 126.712V137.712H255.678Z" fill="white"/>
<path d="M257.553 115.92C256.928 117.58 256.511 119.241 256.511 120.901C256.511 122.561 256.928 123.807 257.553 124.637L250.47 128.788V120.071L257.553 115.92Z" fill="white"/>
<path d="M258.594 115.297L270.677 108.448C271.301 109.279 271.718 110.524 271.718 112.184C271.718 113.845 271.301 115.505 270.677 117.165L258.594 124.014C257.969 123.184 257.552 121.939 257.552 120.278C257.552 118.826 257.969 116.958 258.594 115.297Z" fill="white"/>
<path d="M264.635 108.033C266.719 106.788 268.593 106.788 270.052 107.826L259.427 114.052C260.677 111.354 262.552 109.279 264.635 108.033Z" fill="white"/>
<path d="M264.636 124.429C262.552 125.674 260.677 125.674 259.219 124.636L269.843 118.41C268.594 121.108 266.719 123.184 264.636 124.429Z" fill="white"/>
<path d="M83.3987 175.485L89.8565 171.75C93.6063 169.467 96.1061 170.089 96.1061 173.41C96.1061 176.938 93.398 180.466 89.6482 182.542L87.565 183.787V188.146L83.3987 190.636V175.485ZM89.4399 179.429C90.8981 178.599 91.9397 177.353 91.9397 176.108C91.9397 174.863 91.1065 174.655 89.4399 175.485L87.565 176.523V180.466L89.4399 179.429Z" fill="url(#paint6_linear)"/>
<path d="M101.522 164.693L105.48 162.41L111.938 173.825L107.355 176.315L106.314 174.24L100.481 177.561L99.4391 180.881L95.0645 183.372L101.522 164.693ZM105.272 171.957L103.605 168.636L101.939 173.825L105.272 171.957Z" fill="url(#paint7_linear)"/>
<path d="M115.48 166.354L109.647 160.127L114.438 157.429L117.563 161.165L120.688 153.901L125.479 151.203L119.646 163.863V169.674L115.48 172.165V166.354Z" fill="url(#paint8_linear)"/>
<path d="M130.479 151.825L125.896 154.524V150.788L139.228 143.109V146.844L134.645 149.542V160.957L130.479 163.448V151.825Z" fill="url(#paint9_linear)"/>
<path d="M141.103 142.071L153.185 135.014V138.543L145.061 143.109V145.392L152.352 141.241V144.561L145.061 148.712V151.203L153.185 146.429V149.958L140.895 157.014V142.071H141.103Z" fill="url(#paint10_linear)"/>
<path d="M155.06 141.656C155.06 137.297 158.393 131.901 162.976 129.203C166.101 127.335 167.976 127.75 169.434 128.788L166.309 132.939C165.476 132.316 164.435 132.316 162.976 133.146C160.893 134.392 159.435 137.09 159.435 139.165C159.435 141.448 160.893 142.278 162.976 141.033C164.643 140.203 165.476 138.958 166.309 137.297L169.434 137.712C167.976 140.411 166.101 143.109 162.768 144.976C158.602 147.467 155.06 146.222 155.06 141.656Z" fill="url(#paint11_linear)"/>
<path d="M171.309 124.637L175.475 122.147V127.75L180.891 124.637V119.034L185.058 116.543V131.694L180.891 134.184V128.373L175.475 131.486V137.297L171.309 139.788V124.637Z" fill="url(#paint12_linear)"/>
<path opacity="0.2" d="M264.338 53.3726L321.516 48.7617V165.352C321.516 171.28 317.997 177.867 313.599 180.502L203.641 243.737C175.272 203.556 181.65 142.078 181.65 142.078L264.338 53.3726Z" fill="#041860"/>
<path d="M201.222 155.691L283.911 66.9857L366.599 60.3987C366.599 60.3987 379.794 172.378 283.911 290.944C187.808 282.82 201.222 155.691 201.222 155.691Z" fill="#E4E4FF"/>
<path d="M366.599 60.3987L385.072 70.9379L302.384 77.7445L283.911 66.9857L366.599 60.3987Z" fill="#F1F1FF"/>
<path d="M219.696 166.23L302.384 77.7444L336.471 74.2314L385.072 70.9379C385.072 70.9379 398.267 182.917 302.384 301.483C206.501 293.579 219.696 166.23 219.696 166.23Z" fill="#B9B9F4"/>
<path opacity="0.3" d="M219.695 166.23L302.384 77.7444L385.072 71.1574C382.653 69.84 382.653 69.84 382.653 69.84L298.865 76.6465L216.177 165.352C216.177 165.352 205.181 271.622 276.434 295.994C209.14 269.207 219.695 166.23 219.695 166.23Z" fill="white"/>
<path d="M229.812 167.767L304.143 88.0638L334.711 84.9899L378.474 82.1355C378.474 82.1355 390.35 182.697 304.143 289.407C217.936 282.161 229.812 167.767 229.812 167.767Z" fill="#E4E4FF"/>
<defs>
<linearGradient id="paint0_linear" x1="448.213" y1="326.402" x2="456.61" y2="315.399" gradientUnits="userSpaceOnUse">
<stop stop-color="white"/>
<stop offset="1" stop-color="#C4C4C4" stop-opacity="0"/>
</linearGradient>
<linearGradient id="paint1_linear" x1="440.862" y1="322.048" x2="449.306" y2="311.224" gradientUnits="userSpaceOnUse">
<stop stop-color="white"/>
<stop offset="1" stop-color="#C4C4C4" stop-opacity="0"/>
</linearGradient>
<linearGradient id="paint2_linear" x1="433.138" y1="317.384" x2="441.582" y2="306.56" gradientUnits="userSpaceOnUse">
<stop stop-color="white"/>
<stop offset="1" stop-color="#C4C4C4" stop-opacity="0"/>
</linearGradient>
<linearGradient id="paint3_linear" x1="425.414" y1="313.032" x2="433.858" y2="302.208" gradientUnits="userSpaceOnUse">
<stop stop-color="white"/>
<stop offset="1" stop-color="#C4C4C4" stop-opacity="0"/>
</linearGradient>
<linearGradient id="paint4_linear" x1="276.309" y1="166.065" x2="181.657" y2="224.557" gradientUnits="userSpaceOnUse">
<stop stop-color="white"/>
<stop offset="1" stop-color="#C4C4C4" stop-opacity="0"/>
</linearGradient>
<linearGradient id="paint5_linear" x1="277.231" y1="175.58" x2="232.206" y2="199.873" gradientUnits="userSpaceOnUse">
<stop stop-color="white"/>
<stop offset="1" stop-color="#C4C4C4" stop-opacity="0"/>
</linearGradient>
<linearGradient id="paint6_linear" x1="89.7524" y1="170.391" x2="89.7524" y2="190.636" gradientUnits="userSpaceOnUse">
<stop stop-color="white"/>
<stop offset="1" stop-color="white" stop-opacity="0"/>
</linearGradient>
<linearGradient id="paint7_linear" x1="103.501" y1="162.41" x2="103.501" y2="183.372" gradientUnits="userSpaceOnUse">
<stop stop-color="white"/>
<stop offset="1" stop-color="white" stop-opacity="0"/>
</linearGradient>
<linearGradient id="paint8_linear" x1="117.563" y1="151.203" x2="117.563" y2="172.165" gradientUnits="userSpaceOnUse">
<stop stop-color="white"/>
<stop offset="1" stop-color="white" stop-opacity="0"/>
</linearGradient>
<linearGradient id="paint9_linear" x1="132.562" y1="143.109" x2="132.562" y2="163.448" gradientUnits="userSpaceOnUse">
<stop stop-color="white"/>
<stop offset="1" stop-color="white" stop-opacity="0"/>
</linearGradient>
<linearGradient id="paint10_linear" x1="147.04" y1="135.014" x2="147.04" y2="157.014" gradientUnits="userSpaceOnUse">
<stop stop-color="white"/>
<stop offset="1" stop-color="white" stop-opacity="0"/>
</linearGradient>
<linearGradient id="paint11_linear" x1="162.247" y1="127.906" x2="162.247" y2="146.238" gradientUnits="userSpaceOnUse">
<stop stop-color="white"/>
<stop offset="1" stop-color="white" stop-opacity="0"/>
</linearGradient>
<linearGradient id="paint12_linear" x1="178.183" y1="116.543" x2="178.183" y2="139.788" gradientUnits="userSpaceOnUse">
<stop stop-color="white"/>
<stop offset="1" stop-color="white" stop-opacity="0"/>
</linearGradient>
</defs>
</svg>
