<svg width="119" height="120" viewBox="0 0 119 120" fill="none" xmlns="http://www.w3.org/2000/svg">
<path d="M36.1692 35.2942L35.1775 35.1775L32.7856 26.3685L38.5027 27.7103C38.5027 27.7103 44.7448 21.0015 54.0204 23.2767L51.6286 25.7852C51.6286 25.7852 45.3865 25.4935 41.0696 30.3938L36.1692 35.2942Z" fill="url(#paint0_linear)"/>
<path d="M84.5308 83.5976L96.4899 71.6384L98.8234 80.3307L93.398 78.9306C93.398 78.9306 90.4812 82.6642 84.5308 83.5976Z" fill="url(#paint1_linear)"/>
<path d="M90.5395 76.4803L79.047 88.0894L77.0052 90.1313C73.4466 93.6315 67.5546 94.7982 60.2624 92.8148C45.5614 88.7895 30.452 73.6218 26.5434 59.0374C24.5599 51.6286 25.8434 45.7365 29.4019 42.2363L41.7695 29.7521C38.3859 33.3107 37.2775 39.0861 39.2026 46.2616C43.1112 60.9042 58.2789 76.1303 72.9799 80.0972C80.8555 82.2557 87.0976 80.6806 90.5395 76.4803Z" fill="url(#paint2_linear)"/>
<path d="M90.5397 76.4804C93.4566 72.8634 94.39 67.3797 92.5815 60.5542C88.7313 45.9699 73.4469 30.6272 58.7458 26.6602C51.2203 24.6184 45.2699 25.9602 41.7697 29.6938C38.3861 33.2524 37.2777 39.0278 39.2028 46.2032C43.1114 60.8459 58.2792 76.072 72.9802 80.0389C80.8557 82.2557 87.0978 80.6806 90.5397 76.4804ZM72.1051 68.7798C71.9301 68.7798 71.6968 68.7798 71.4634 68.7798C71.4051 68.7798 71.4051 68.8382 71.2884 68.8382C71.6967 70.4133 72.1634 72.0467 72.6301 73.7385C71.6384 73.4468 70.6467 73.2135 69.5966 72.9218C69.1882 71.2883 68.7215 69.7715 68.3132 68.0798C65.5713 67.1464 62.9461 66.038 60.2626 63.8795C60.3793 62.9461 60.4376 61.9543 60.5543 60.9626C62.7128 62.5961 64.8129 63.7628 66.9131 64.5212C68.4299 65.0462 69.7716 65.3379 70.9967 65.1046C73.7386 64.5212 73.3885 60.8459 70.2383 57.8707C68.8966 56.5873 67.2631 55.5372 65.7463 54.4872C64.2879 53.4954 62.8295 52.6204 61.371 51.5703C57.7541 48.9451 55.7706 46.2032 55.1873 43.2864C55.1289 43.053 55.0706 42.8197 55.0706 42.5863C54.7206 39.5528 56.4707 37.7443 59.7959 37.9193C60.496 37.9777 60.5543 37.686 60.321 37.0443C59.9126 35.7025 59.6209 34.4191 59.2709 33.0773C60.321 33.369 61.2544 33.6024 62.2461 33.8941C62.6545 35.4108 63.0628 36.9276 63.4712 38.4444C64.7546 38.9694 65.9213 39.4361 67.0881 40.0195C67.9632 40.4279 68.8382 41.0112 69.7133 41.5946C69.9466 41.7696 70.2967 42.2946 70.2383 42.4697C70.2383 43.2864 70.0633 44.0448 69.9466 44.9198C67.3798 43.053 64.9296 41.8863 62.4794 41.4196C59.7376 40.8946 58.5125 42.4113 59.5626 45.1532C59.7959 45.7949 60.2043 46.4366 60.671 47.02C61.021 47.4283 61.4294 47.7784 61.8377 48.1284C62.5378 48.6534 63.2962 49.1785 63.9962 49.7035C64.7546 50.2285 65.5713 50.7536 66.3297 51.3369C67.7881 52.3287 69.2466 53.2037 70.705 54.3121C74.6136 57.2874 76.8304 60.6126 77.0638 64.1128C77.0638 64.3462 77.0638 64.5212 77.0638 64.7545C77.0055 67.6131 75.1387 68.7798 72.1051 68.7798Z" fill="url(#paint3_linear)"/>
<path d="M96.49 71.6384L98.8235 80.3307L93.3981 78.9306C87.5644 85.4644 77.9971 83.7726 77.9971 83.7726L79.8639 91.5898L103.491 97.8902L105.591 106.758L118.483 93.1066L96.49 71.6384Z" fill="url(#paint4_linear)"/>
<path d="M38.5026 27.7102C45.6198 20.7681 54.0204 23.2766 54.0204 23.2766L51.3369 15.2261L28.1186 8.86728L25.8434 0L12.6592 13.3593L35.2357 35.1774L32.8439 26.3685L38.5026 27.7102Z" fill="url(#paint5_linear)"/>
<path d="M77.9969 83.7726L65.5127 96.9568L67.3795 104.774L79.8637 91.5315L77.9969 83.7726Z" fill="url(#paint6_linear)"/>
<path d="M79.8641 91.5314L103.549 97.8318L105.591 106.757L93.0483 120L91.0065 111.016L67.3799 104.774L79.8641 91.5314Z" fill="url(#paint7_linear)"/>
<path d="M12.6592 13.3591L35.1774 35.2356L22.5766 48.0699L0 26.1934L12.6592 13.3591Z" fill="url(#paint8_linear)"/>
<defs>
<linearGradient id="paint0_linear" x1="60.7945" y1="18.1331" x2="25.0142" y2="35.4399" gradientUnits="userSpaceOnUse">
<stop stop-color="white"/>
<stop offset="1" stop-color="white" stop-opacity="0"/>
</linearGradient>
<linearGradient id="paint1_linear" x1="84.5524" y1="77.6355" x2="98.8452" y2="77.6355" gradientUnits="userSpaceOnUse">
<stop stop-color="white"/>
<stop offset="1" stop-color="white" stop-opacity="0"/>
</linearGradient>
<linearGradient id="paint2_linear" x1="25.5828" y1="61.7422" x2="90.5485" y2="61.7422" gradientUnits="userSpaceOnUse">
<stop stop-color="white"/>
<stop offset="1" stop-color="white" stop-opacity="0"/>
</linearGradient>
<linearGradient id="paint3_linear" x1="38.2193" y1="53.3978" x2="93.5094" y2="53.3978" gradientUnits="userSpaceOnUse">
<stop stop-color="white"/>
<stop offset="1" stop-color="white" stop-opacity="0"/>
</linearGradient>
<linearGradient id="paint4_linear" x1="78.0096" y1="89.2169" x2="118.47" y2="89.2169" gradientUnits="userSpaceOnUse">
<stop stop-color="white"/>
<stop offset="1" stop-color="white" stop-opacity="0"/>
</linearGradient>
<linearGradient id="paint5_linear" x1="12.6396" y1="17.6106" x2="54.0188" y2="17.6106" gradientUnits="userSpaceOnUse">
<stop stop-color="white"/>
<stop offset="1" stop-color="white" stop-opacity="0"/>
</linearGradient>
<linearGradient id="paint6_linear" x1="65.5116" y1="94.2466" x2="79.8815" y2="94.2466" gradientUnits="userSpaceOnUse">
<stop stop-color="white"/>
<stop offset="1" stop-color="white" stop-opacity="0"/>
</linearGradient>
<linearGradient id="paint7_linear" x1="67.3841" y1="105.761" x2="105.569" y2="105.761" gradientUnits="userSpaceOnUse">
<stop stop-color="white"/>
<stop offset="1" stop-color="white" stop-opacity="0"/>
</linearGradient>
<linearGradient id="paint8_linear" x1="0" y1="30.7162" x2="35.205" y2="30.7162" gradientUnits="userSpaceOnUse">
<stop stop-color="white"/>
<stop offset="1" stop-color="white" stop-opacity="0"/>
</linearGradient>
</defs>
</svg>
