<svg width="116" height="120" viewBox="0 0 116 120" fill="none" xmlns="http://www.w3.org/2000/svg">
<path fill-rule="evenodd" clip-rule="evenodd" d="M104.508 75.5324C104.508 75.4621 104.438 75.3919 104.438 75.3216C102.749 70.0529 98.388 64.9248 91.2831 60.8503C72.7822 50.1725 42.7445 50.1725 24.2436 60.8503C17.1387 64.9248 12.7773 69.9827 11.1593 75.2514C10.9483 75.9539 10.7372 76.6563 10.6669 77.4291C10.4558 78.3423 10.3855 79.2556 10.3855 80.0985C10.3855 82.206 10.8076 84.3135 11.6517 86.3507C13.2697 90.4251 16.5759 94.2888 21.4298 97.5905C22.3443 98.2228 23.2588 98.7848 24.2436 99.3468C42.7445 110.025 72.7822 110.025 91.2831 99.3468C93.6045 98.012 95.6445 96.5368 97.4032 95.0616C100.498 92.3219 102.679 89.3714 103.945 86.3507C104.789 84.3135 105.212 82.206 105.212 80.0985C105.141 78.5531 104.93 77.0076 104.508 75.5324Z" fill="url(#paint0_linear)"/>
<path d="M104.086 86.4208C102.82 89.5118 100.639 92.4622 97.5438 95.1317C95.7851 96.6772 93.7451 98.0821 91.4237 99.4169C72.9228 110.095 42.8852 110.095 24.3842 99.4169C23.3994 98.8549 22.4146 98.2226 21.5704 97.6606C16.7165 94.2887 13.4103 90.425 11.7923 86.4208C10.9482 84.3836 10.5261 82.2761 10.5261 80.1686V92.673C10.5261 98.9251 14.1841 105.177 21.5704 110.235C22.4849 110.867 23.3994 111.429 24.3842 111.991C42.8852 122.669 72.9228 122.669 91.4237 111.991C95.6445 109.603 98.8804 106.793 101.202 103.843C103.945 100.33 105.352 96.4664 105.352 92.673V80.0984C105.352 82.2059 104.93 84.3133 104.086 86.4208Z" fill="url(#paint1_linear)"/>
<path fill-rule="evenodd" clip-rule="evenodd" d="M51.4459 47.5726C52.4156 45.8779 52.9425 44.6818 53.0524 43.8884C53.1623 43.095 53.0637 42.503 52.6605 42.0865C52.2572 41.6701 51.5846 41.4901 50.7643 41.4763C49.8832 41.4976 49.0114 41.6758 48.1843 42.0716C47.3571 42.4673 46.6003 42.9848 45.949 43.6848C45.2368 44.4199 44.3701 45.7307 43.3138 47.5565L41.4868 50.7189L49.619 50.735L51.4459 47.5726Z" fill="url(#paint2_linear)"/>
<path fill-rule="evenodd" clip-rule="evenodd" d="M59.3236 43.3551C58.4895 44.1605 57.6486 45.3754 56.7047 46.9741L54.5662 50.7217L61.782 50.6983C62.8202 50.6675 63.4482 50.6299 63.6662 50.5854C63.945 50.5057 64.1278 50.4003 64.2754 50.2341C64.423 50.0679 64.7439 49.6395 65.1421 48.9233L66.3718 46.8353C67.0557 45.6298 67.5311 44.6256 67.7019 43.7971C67.8728 42.9686 67.739 42.3157 67.2654 41.7775C66.7566 41.1786 65.9527 40.912 64.7575 40.9522C63.7803 40.9478 62.8476 41.1611 61.8634 41.5663C61.0363 41.9621 60.1576 42.5498 59.3236 43.3551Z" fill="url(#paint3_linear)"/>
<path fill-rule="evenodd" clip-rule="evenodd" d="M92.8735 20.0369C92.8383 19.9761 92.7422 19.9504 92.7071 19.8895C88.607 16.1697 82.2622 13.9063 74.0692 13.9253C52.7006 13.9158 26.6873 28.9139 16.0113 47.399C11.9592 54.44 10.7145 60.998 11.9256 66.4646C12.0945 67.1784 12.2635 67.8921 12.5895 68.5965C12.9249 69.4576 13.3212 70.2836 13.7785 71.0745C14.8336 72.8996 16.2544 74.514 18.0054 75.8568C21.4466 78.5775 26.2444 80.2727 32.1011 80.7085C33.2097 80.7994 34.283 80.8295 35.4173 80.8244C56.7858 80.834 82.7992 65.8358 93.4752 47.3508C94.8173 45.0358 95.8454 42.7396 96.6298 40.5839C97.9386 36.6657 98.3499 33.0217 97.934 29.7734C97.6451 27.5877 96.9554 25.5518 95.9002 23.7267C95.0303 22.3625 94.0128 21.1646 92.8735 20.0369ZM77.8151 45.8346L72.3007 45.8504L70.4995 48.9168L76.0138 48.901L73.2172 53.7581L67.7028 53.7739L63.3907 61.2082L58.7575 61.2026L59.4157 60.0931C59.8748 59.3417 60.0644 58.8268 60.0808 58.574C60.0971 58.3212 59.9564 58.0779 59.7642 58.0265C59.5368 57.9142 58.9345 57.8559 57.9573 57.8515L39.4244 57.8294C38.4472 57.825 37.7582 57.8978 37.4184 58.0126C37.0786 58.1273 36.774 58.303 36.4437 58.5745C36.1133 58.8461 35.7666 59.3705 35.3075 60.1219L34.6493 61.2314L30.0161 61.2259L34.3282 53.7916L33.8572 53.8198L28.9099 53.8331L31.7066 48.976L37.221 48.9602L39.0479 45.7978L33.5336 45.8136L34.8757 43.4986L36.3302 40.9565L37.9355 40.9233L42.2547 40.9476C42.8099 40.2219 43.4003 39.5571 43.9649 38.9882C45.4854 37.5437 47.0599 36.4737 48.7751 35.647C50.5255 34.8812 52.112 34.5343 53.6212 34.4753C54.6946 34.5054 55.6203 34.7017 56.3985 35.0642C57.1158 35.4618 57.6854 36.0256 57.9857 36.8259C58.3117 37.5303 58.3425 38.567 58.1296 39.7443C58.1647 39.8051 58.1038 39.8403 58.139 39.9011C58.2257 39.77 58.2866 39.7349 58.3733 39.6038C59.4321 38.3444 60.4489 37.4336 61.2572 36.7243C62.5177 35.673 63.9189 34.8652 65.5217 34.2655C66.7238 33.8158 67.9354 33.5229 69.0954 33.4219C69.4094 33.4031 69.7234 33.3842 70.0375 33.3654C71.835 33.3836 73.1546 33.8395 74.1532 34.7238C75.0909 35.6433 75.5155 36.9397 75.27 38.6225C75.2116 39.224 75.0056 39.9916 74.7387 40.7945L80.6632 40.7856L77.8151 45.8346Z" fill="url(#paint4_linear)"/>
<path d="M97.8379 29.7479C98.289 33.057 97.8777 36.701 96.5337 40.5583C95.7845 42.7748 94.7212 45.0102 93.3791 47.3252C82.7031 65.8103 56.6898 80.8084 35.3212 80.7989C34.1869 80.8039 33.0175 80.7481 32.005 80.6829C26.1132 80.1863 21.3154 78.4911 17.9093 75.8312C16.1583 74.4884 14.7376 72.8741 13.6824 71.049L19.9431 81.878C23.0735 87.2925 29.3718 90.8806 38.301 91.5728C39.4095 91.6637 40.4829 91.6938 41.6171 91.6888C62.9857 91.6983 88.999 76.7002 99.675 58.2151C102.134 54.0392 103.53 49.9899 104.063 46.2757C104.68 41.8639 103.964 37.8154 102.065 34.5302L95.8041 23.7011C96.8593 25.5262 97.549 27.5621 97.8379 29.7479Z" fill="url(#paint5_linear)"/>
<defs>
<linearGradient id="paint0_linear" x1="24.265" y1="99.447" x2="57.7045" y2="41.4534" gradientUnits="userSpaceOnUse">
<stop stop-color="white"/>
<stop offset="1" stop-color="white" stop-opacity="0"/>
</linearGradient>
<linearGradient id="paint1_linear" x1="10.6035" y1="100.054" x2="105.373" y2="100.054" gradientUnits="userSpaceOnUse">
<stop stop-color="white"/>
<stop offset="1" stop-color="white" stop-opacity="0"/>
</linearGradient>
<linearGradient id="paint2_linear" x1="83.8707" y1="62.1359" x2="47.7841" y2="19.1487" gradientUnits="userSpaceOnUse">
<stop stop-color="white"/>
<stop offset="1" stop-color="white" stop-opacity="0"/>
</linearGradient>
<linearGradient id="paint3_linear" x1="88.7062" y1="58.0766" x2="52.6197" y2="15.0893" gradientUnits="userSpaceOnUse">
<stop stop-color="white"/>
<stop offset="1" stop-color="white" stop-opacity="0"/>
</linearGradient>
<linearGradient id="paint4_linear" x1="35.4056" y1="80.8259" x2="35.408" y2="13.9052" gradientUnits="userSpaceOnUse">
<stop stop-color="white"/>
<stop offset="1" stop-color="white" stop-opacity="0"/>
</linearGradient>
<linearGradient id="paint5_linear" x1="23.6905" y1="88.2824" x2="105.707" y2="40.8649" gradientUnits="userSpaceOnUse">
<stop stop-color="white"/>
<stop offset="1" stop-color="white" stop-opacity="0"/>
</linearGradient>
</defs>
</svg>
