<svg width="170" height="170" viewBox="0 0 170 170" fill="none" xmlns="http://www.w3.org/2000/svg">
<g opacity="0.1">
<path d="M55 0H60V5H55V0Z" fill="white"/>
<path d="M0 0H5V5H0V0Z" fill="white"/>
<path d="M165 0H170V5H165V0Z" fill="white"/>
<path d="M110 0H115V5H110V0Z" fill="white"/>
<path d="M55 55H60V60H55V55Z" fill="white"/>
<path d="M0 55H5V60H0V55Z" fill="white"/>
<path d="M55 110H60V115H55V110Z" fill="white"/>
<path d="M0 110H5V115H0V110Z" fill="white"/>
<path d="M165 55H170V60H165V55Z" fill="white"/>
<path d="M110 55H115V60H110V55Z" fill="white"/>
<path d="M165 110H170V115H165V110Z" fill="white"/>
<path d="M110 110H115V115H110V110Z" fill="white"/>
<path d="M55 165H60V170H55V165Z" fill="white"/>
<path d="M0 165H5V170H0V165Z" fill="white"/>
<path d="M165 165H170V170H165V165Z" fill="white"/>
<path d="M110 165H115V170H110V165Z" fill="white"/>
</g>
</svg>
