<svg width="280" height="335" viewBox="0 0 280 335" fill="none" xmlns="http://www.w3.org/2000/svg">
<path d="M275 0H280V5H275V0Z" fill="#3C3CD2"/>
<path d="M220 0H225V5H220V0Z" fill="#3C3CD2"/>
<path d="M275 55H280V60H275V55Z" fill="#3C3CD2"/>
<path d="M220 55H225V60H220V55Z" fill="#3C3CD2"/>
<path d="M275 110H280V115H275V110Z" fill="#3C3CD2"/>
<path d="M220 110H225V115H220V110Z" fill="#3C3CD2"/>
<path d="M275 165H280V170H275V165Z" fill="#3C3CD2"/>
<path d="M220 165H225V170H220V165Z" fill="#3C3CD2"/>
<path d="M55 0H60V5H55V0Z" fill="#3C3CD2"/>
<path d="M0 0H5V5H0V0Z" fill="#3C3CD2"/>
<path d="M55 55H60V60H55V55Z" fill="#3C3CD2"/>
<path d="M0 55H5V60H0V55Z" fill="#3C3CD2"/>
<path d="M165 0H170V5H165V0Z" fill="#3C3CD2"/>
<path d="M110 0H115V5H110V0Z" fill="#3C3CD2"/>
<path d="M165 55H170V60H165V55Z" fill="#3C3CD2"/>
<path d="M110 55H115V60H110V55Z" fill="#3C3CD2"/>
<path d="M55 110H60V115H55V110Z" fill="#3C3CD2"/>
<path d="M0 110H5V115H0V110Z" fill="#3C3CD2"/>
<path d="M55 165H60V170H55V165Z" fill="#3C3CD2"/>
<path d="M0 165H5V170H0V165Z" fill="#3C3CD2"/>
<path d="M165 110H170V115H165V110Z" fill="#3C3CD2"/>
<path d="M110 110H115V115H110V110Z" fill="#3C3CD2"/>
<path d="M165 165H170V170H165V165Z" fill="#3C3CD2"/>
<path d="M110 165H115V170H110V165Z" fill="#3C3CD2"/>
<path d="M275 220H280V225H275V220Z" fill="#3C3CD2"/>
<path d="M220 220H225V225H220V220Z" fill="#3C3CD2"/>
<path d="M275 275H280V280H275V275Z" fill="#3C3CD2"/>
<path d="M220 275H225V280H220V275Z" fill="#3C3CD2"/>
<path d="M275 330H280V335H275V330Z" fill="#3C3CD2"/>
<path d="M220 330H225V335H220V330Z" fill="#3C3CD2"/>
<path d="M55 220H60V225H55V220Z" fill="#3C3CD2"/>
<path d="M0 220H5V225H0V220Z" fill="#3C3CD2"/>
<path d="M55 275H60V280H55V275Z" fill="#3C3CD2"/>
<path d="M0 275H5V280H0V275Z" fill="#3C3CD2"/>
<path d="M165 220H170V225H165V220Z" fill="#3C3CD2"/>
<path d="M110 220H115V225H110V220Z" fill="#3C3CD2"/>
<path d="M165 275H170V280H165V275Z" fill="#3C3CD2"/>
<path d="M110 275H115V280H110V275Z" fill="#3C3CD2"/>
<path d="M55 330H60V335H55V330Z" fill="#3C3CD2"/>
<path d="M0 330H5V335H0V330Z" fill="#3C3CD2"/>
<path d="M165 330H170V335H165V330Z" fill="#3C3CD2"/>
<path d="M110 330H115V335H110V330Z" fill="#3C3CD2"/>
<path d="M275 330H280V335H275V330Z" fill="#F0323C"/>
<path d="M165 220H170V225H165V220Z" fill="#F0323C"/>
<path d="M110 0H115V5H110V0Z" fill="#F0323C"/>
<path d="M0 275H5V280H0V275Z" fill="#F0323C"/>
</svg>
