<svg width="46" height="32" viewBox="0 0 46 32" fill="none" xmlns="http://www.w3.org/2000/svg">
<path d="M5 2C5 0.89543 5.89543 0 7 0H39C40.1046 0 41 0.895431 41 2V24C41 25.1046 40.1046 26 39 26H7C5.89543 26 5 25.1046 5 24V2Z" fill="#2D2CAB"/>
<path d="M8 4C8 3.44772 8.44772 3 9 3H37C37.5523 3 38 3.44772 38 4V22C38 22.5523 37.5523 23 37 23H9C8.44772 23 8 22.5523 8 22V4Z" fill="white"/>
<path fill-rule="evenodd" clip-rule="evenodd" d="M15 28H0V30C0 31.1045 0.895447 32 2 32H44C45.1046 32 46 31.1045 46 30V28H31.8666L31.1 28.7749H15.7667L15 28Z" fill="#2D2CAB"/>
</svg>
