<svg width="42" height="46" viewBox="0 0 42 46" fill="none" xmlns="http://www.w3.org/2000/svg">
<path fill-rule="evenodd" clip-rule="evenodd" d="M0.772059 2.74316C0.308824 3.53638 0 4.48824 0 5.54586V40.4473C0 41.4521 0.257353 42.351 0.720588 43.1971L21.2059 22.1505L0.772059 2.74316Z" fill="#2D2CAB"/>
<path fill-rule="evenodd" clip-rule="evenodd" d="M2.72803 45.2071C3.60303 45.7359 4.58097 46.0003 5.55891 46.0003C6.48538 46.0003 7.46332 45.7359 8.33832 45.26L31.6545 32.0397L23.3163 24.0547L2.72803 45.2071Z" fill="#2D2CAB"/>
<path fill-rule="evenodd" clip-rule="evenodd" d="M39.169 18.1846L32.6323 14.4829L25.272 22.0449L34.2793 30.5587L39.169 27.8089C40.919 26.8042 41.9999 25.0062 41.9999 22.9968C41.9484 20.9873 40.919 19.1893 39.169 18.1846Z" fill="#2D2CAB"/>
<path fill-rule="evenodd" clip-rule="evenodd" d="M30.059 13.0551L8.38988 0.733858C6.63988 -0.270881 4.58105 -0.218 2.83105 0.733858L23.2134 20.0883L30.059 13.0551Z" fill="#2D2CAB"/>
</svg>
