<svg width="36" height="46" viewBox="0 0 36 46" fill="none" xmlns="http://www.w3.org/2000/svg">
<path fill-rule="evenodd" clip-rule="evenodd" d="M30.0368 24.399C29.9784 18.5578 34.5969 15.759 34.8307 15.6373C32.2584 11.6823 28.166 11.1347 26.7629 11.0739C23.3136 10.7088 20.0397 13.2035 18.2858 13.2035C16.532 13.2035 13.8427 11.1347 10.978 11.1956C7.23642 11.2564 3.78713 13.4468 1.85787 16.9759C-2.05912 24.0339 0.864005 34.4385 4.66407 40.158C6.53487 42.9568 8.75645 46.06 11.6211 45.9991C14.4273 45.8774 15.4796 44.1129 18.8705 44.1129C22.2613 44.1129 23.1967 45.9991 26.1783 45.9383C29.1599 45.8774 31.0891 43.0785 32.9599 40.2796C35.0646 37.0548 35.9415 33.8909 36 33.7692C35.8831 33.7083 30.0953 31.3962 30.0368 24.399ZM24.4829 7.36229C26.0029 5.41524 27.0552 2.73804 26.7629 0C24.5413 0.121691 21.8521 1.52113 20.2736 3.46819C18.8705 5.17186 17.5843 7.97075 17.9351 10.5871C20.3905 10.7696 22.9044 9.30935 24.4829 7.36229Z" fill="#2D2CAB"/>
</svg>
