<svg width="12" height="14" viewBox="0 0 12 14" fill="none" xmlns="http://www.w3.org/2000/svg">
<g opacity="0.5">
<path d="M0.619275 5.14663C-0.622127 7.20046 0.167056 10.3173 1.53984 12.2071C2.22508 13.1519 2.91884 14 3.86907 14C3.88698 14 3.90493 13.9997 3.92332 13.999C4.36977 13.982 4.69238 13.851 5.00431 13.7243C5.35451 13.582 5.7167 13.4349 6.28481 13.4349C6.82527 13.4349 7.17018 13.5773 7.50372 13.7149C7.83245 13.8505 8.17105 13.9907 8.67137 13.9818C9.74171 13.9628 10.3989 13.0476 10.9787 12.2403C11.5837 11.3973 11.8872 10.5788 11.9896 10.2661L11.9938 10.2536C12.0133 10.1981 11.9857 10.1374 11.9298 10.1129C11.9283 10.1122 11.9226 10.11 11.921 10.1093C11.7325 10.0358 10.0792 9.33654 10.0618 7.43056C10.0456 5.88205 11.3021 5.06203 11.5541 4.91341L11.5659 4.90643C11.5932 4.88968 11.6122 4.8631 11.6186 4.83271C11.6251 4.80237 11.6183 4.77079 11.6 4.74527C10.7328 3.53524 9.4035 3.35287 8.86833 3.33093C8.79067 3.32354 8.71051 3.31982 8.63001 3.31982C8.00144 3.31982 7.3993 3.54616 6.91554 3.72802C6.58161 3.85356 6.29318 3.96198 6.09425 3.96198C5.87072 3.96198 5.58065 3.85223 5.24474 3.72517C4.79556 3.5552 4.28643 3.3626 3.74745 3.3626C3.7346 3.3626 3.72194 3.36274 3.70947 3.36297C2.45627 3.38055 1.27211 4.06411 0.619275 5.14663Z" fill="white"/>
<path d="M8.86964 8.81953e-05C8.11074 0.0295565 7.20038 0.474931 6.65625 1.08257C6.19382 1.5933 5.74209 2.44485 5.8611 3.3032C5.86856 3.3569 5.91439 3.39835 5.97106 3.40253C6.02229 3.40634 6.07457 3.40826 6.12666 3.40831C6.86871 3.40831 7.66921 3.01692 8.21589 2.3867C8.79126 1.72123 9.0822 0.867199 8.99419 0.102217C8.98725 0.042271 8.93194 -0.00225274 8.86964 8.81953e-05Z" fill="white"/>
</g>
</svg>
