<svg width="164" height="112" viewBox="0 0 164 112" fill="none" xmlns="http://www.w3.org/2000/svg">
<path d="M153.575 20.2182V106.014C153.575 109.306 150.865 112 147.553 112H6.02256C2.71015 112 0 109.306 0 106.014V20.2182C0 16.926 2.71015 14.2324 6.02256 14.2324H147.553C150.865 14.2324 153.575 16.926 153.575 20.2182Z" fill="#F5F5FF"/>
<path d="M153.575 31.2922V87.8076C146.348 94.9407 136.361 99.3801 125.319 99.3801H97.214L92.5967 112H64.1401L68.2556 100.727L71.1163 92.8955L72.7725 88.3065L73.9268 85.1639L74.2781 84.2661L76.7875 77.4323L77.2392 76.2851L78.795 72.0452L79.1463 71.0974H125.319C125.52 71.0974 125.771 71.0974 125.972 71.0974C132.095 70.7483 136.913 65.6604 136.913 59.525C136.913 53.1402 131.693 47.9525 125.269 47.9525H82.3082L76.386 64.114L73.8264 71.0974H45.4702L51.3422 55.0855L64.2907 19.7197H125.369C127.829 19.7197 130.238 19.9691 132.597 20.3682C132.546 20.3682 132.496 20.3682 132.446 20.3183C132.546 20.3183 132.647 20.3682 132.697 20.3682C133.149 20.4679 133.55 20.5178 134.002 20.6176C134.353 20.7174 134.704 20.7672 135.106 20.867C135.507 20.9668 135.909 21.0665 136.26 21.1663C136.662 21.266 137.063 21.4157 137.465 21.5155C137.816 21.6152 138.167 21.715 138.469 21.8646C139.121 22.0641 139.723 22.3136 140.376 22.563C140.677 22.6627 140.928 22.8124 141.229 22.9121C141.731 23.1117 142.233 23.3611 142.684 23.5606C142.985 23.7102 143.287 23.8599 143.538 24.0095C143.939 24.209 144.341 24.4086 144.742 24.658C145.043 24.8076 145.344 25.0071 145.645 25.1568C146.047 25.3563 146.398 25.6057 146.75 25.8551C147.051 26.0546 147.302 26.2043 147.603 26.4038C148.004 26.6532 148.356 26.9026 148.707 27.2019C148.958 27.4014 149.209 27.5511 149.46 27.7506C150.012 28.1995 150.564 28.5986 151.116 29.0974C151.417 29.3468 151.668 29.5962 151.969 29.8456C152.22 30.095 152.521 30.3444 152.772 30.5938C153.073 30.8432 153.324 31.0428 153.575 31.2922Z" fill="#E8E8F9"/>
<rect x="13.2217" y="59.0425" width="18.307" height="4.07364" fill="#D2D2EA"/>
<rect x="13.2217" y="96.7231" width="32.5457" height="2.03682" fill="#D2D2EA"/>
<rect x="13.2217" y="100.797" width="27.4605" height="2.03682" fill="#D2D2EA"/>
<rect x="49.8354" y="59.0425" width="18.307" height="4.07364" fill="#D2D2EA"/>
<rect x="85.4326" y="59.0425" width="18.307" height="4.07364" fill="#D2D2EA"/>
<rect x="122.046" y="59.0425" width="18.307" height="4.07364" fill="#D2D2EA"/>
<path fill-rule="evenodd" clip-rule="evenodd" d="M123.814 95.8058L122.459 103.936H124.667L126.022 95.8058H123.814ZM120.602 95.8058L118.444 101.343L118.193 100.495C117.791 99.497 116.537 98.0505 115.131 97.1027L117.089 103.887H119.397L122.86 95.7559L120.602 95.8058ZM130.489 99.098C129.736 98.6989 129.234 98.4495 129.234 98.1004C129.234 97.7512 129.636 97.402 130.489 97.402C131.191 97.402 131.744 97.5517 132.145 97.7013L132.346 97.8011L132.647 96.0552C132.195 95.9056 131.543 95.7061 130.69 95.7061C128.532 95.7061 126.976 96.8034 126.976 98.3996C126.976 99.5469 128.08 100.245 128.883 100.594C129.736 100.993 130.037 101.243 130.037 101.592C130.037 102.141 129.335 102.39 128.732 102.39C127.829 102.39 127.377 102.29 126.675 101.941L126.373 101.792L126.072 103.637C126.574 103.887 127.528 104.036 128.532 104.086C130.84 104.086 132.346 102.989 132.346 101.293C132.346 100.345 131.744 99.6467 130.489 99.098ZM138.268 95.8058H136.562C136.01 95.8058 135.658 95.9555 135.407 96.5042L132.145 103.986H134.454C134.454 103.986 134.855 102.989 134.905 102.739C135.156 102.739 137.415 102.739 137.716 102.739C137.766 103.039 137.967 103.936 137.967 103.936H140.025L138.268 95.8058ZM135.558 101.093C135.759 100.644 136.411 98.7987 136.411 98.7987C136.411 98.7987 136.612 98.3498 136.712 98.0006L136.863 98.6989C136.863 98.6989 137.264 100.644 137.365 101.043H135.558V101.093Z" fill="#D2D2EA"/>
<path fill-rule="evenodd" clip-rule="evenodd" d="M118.092 99.9464L117.339 96.355C117.189 95.8562 116.838 95.7065 116.386 95.7065H112.973L112.923 95.8562C115.633 96.4548 117.39 98.051 118.092 99.9464Z" fill="#D2D2EA"/>
<path d="M137.818 37.926H121.958C120.703 37.926 119.7 36.9283 119.7 35.6813V27.5008V24.458C119.7 23.211 120.703 22.2134 121.958 22.2134H137.767C139.022 22.2134 140.026 23.211 140.026 24.458V35.6813C140.076 36.9283 139.072 37.926 137.818 37.926Z" fill="#FFC28A"/>
<ellipse cx="21.6122" cy="25.4604" rx="17.2899" ry="17.313" fill="#373D54"/>
<ellipse cx="21.6123" cy="25.4602" rx="15.2558" ry="15.2762" fill="#464C66"/>
<path fill-rule="evenodd" clip-rule="evenodd" d="M27.3129 26.6242C27.0453 26.1845 26.6974 25.8482 26.2424 25.5896C25.9212 25.4085 25.4662 25.2534 24.8774 25.0982C25.4394 24.9171 25.8677 24.6843 26.2156 24.3998C26.5635 24.1153 26.8044 23.805 26.9918 23.4429C27.1791 23.0808 27.2594 22.6928 27.2594 22.279C27.2594 21.7358 27.0988 21.2185 26.7509 20.753C26.403 20.2874 25.9212 19.9253 25.3056 19.6925C25.0647 19.5891 24.7703 19.5115 24.4491 19.4597V17.313H22.308V19.3304H20.9162V17.313H18.775V19.3304H15.5098V21.0375H15.9915C16.3127 21.0375 16.5536 21.0633 16.6606 21.1151C16.7677 21.1668 16.8748 21.2444 16.9015 21.3478C16.9551 21.4513 16.9818 21.6841 16.9818 22.0462V28.8744C16.9818 29.2365 16.9551 29.4693 16.9015 29.5727C16.848 29.6762 16.7677 29.7538 16.6606 29.8055C16.5536 29.8572 16.3127 29.8831 15.9915 29.8831H15.5098V31.5643H18.775V33.6076H20.9162V31.5901H22.308V33.6076H24.4491V31.4091C24.8238 31.3315 25.1183 31.2539 25.3859 31.1504C26.1353 30.8659 26.6974 30.4521 27.0988 29.909C27.5003 29.3658 27.7144 28.7709 27.7144 28.0984C27.7144 27.5553 27.5806 27.0639 27.3129 26.6242ZM21.5318 21.2961C22.3347 21.2961 22.8968 21.3478 23.218 21.4513C23.5391 21.5548 23.78 21.7099 23.9406 21.9427C24.1012 22.1755 24.1815 22.46 24.1815 22.7704C24.1815 23.0808 24.1012 23.3394 23.9138 23.598C23.7265 23.8308 23.4856 24.0119 23.1377 24.1412C22.7897 24.2705 22.2544 24.3222 21.5318 24.3222H20.14V21.322H21.5318V21.2961ZM24.0744 28.9002C23.8336 29.2106 23.5391 29.4175 23.1644 29.4951C22.8165 29.5986 22.3615 29.6503 21.8262 29.6503H20.8894C20.595 29.6503 20.3809 29.6244 20.3274 29.5986C20.2471 29.5727 20.2203 29.521 20.1668 29.4434C20.14 29.3658 20.14 29.1589 20.1133 28.7709V26.1069H21.7459C22.4686 26.1069 23.0038 26.1845 23.3518 26.3138C23.6997 26.4431 23.9674 26.6242 24.128 26.8828C24.3153 27.1415 24.3956 27.426 24.3956 27.8139C24.4491 28.2278 24.3153 28.5899 24.0744 28.9002Z" fill="#9197AF"/>
<ellipse cx="66.3629" cy="10.1841" rx="10.1705" ry="10.1841" fill="#373D54"/>
<ellipse cx="66.363" cy="10.1843" rx="9.15349" ry="9.1657" fill="#464C66"/>
<path d="M66.3631 15.2764C65.6798 15.2764 65.0123 15.1491 64.3767 14.8786C63.153 14.3535 62.1836 13.3828 61.6751 12.1734C61.405 11.5369 61.2778 10.8686 61.2778 10.1843C61.2778 9.50009 61.405 8.83176 61.6751 8.19526C62.4697 6.31756 64.3131 5.09229 66.3631 5.09229C67.0464 5.09229 67.7139 5.21959 68.3495 5.4901C70.2247 6.28574 71.4484 8.13161 71.4484 10.1843C71.4484 10.8686 71.3212 11.5369 71.0511 12.1734C70.5267 13.3987 69.5573 14.3694 68.3495 14.8786C67.7139 15.1491 67.0464 15.2764 66.3631 15.2764ZM66.3631 6.22208C65.3143 6.22208 64.3131 6.63581 63.5662 7.38371C62.8193 8.1316 62.4061 9.1341 62.4061 10.1843C62.4061 11.2346 62.8193 12.2371 63.5662 12.985C64.3131 13.7329 65.3143 14.1466 66.3631 14.1466C67.4119 14.1466 68.4131 13.7329 69.16 12.985C69.9069 12.2371 70.3201 11.2346 70.3201 10.1843C70.3201 9.1341 69.9069 8.1316 69.16 7.38371C68.4131 6.63581 67.4278 6.22208 66.3631 6.22208Z" fill="#9197AF"/>
<path d="M66.0612 11.4574H68.2701V12.5712H66.9193C66.9352 12.8895 66.9511 13.1759 66.9829 13.4942H65.8387V12.5712H64.4561C64.4561 12.2053 64.4085 11.8393 64.472 11.5051C64.5038 11.3301 64.7104 11.1709 64.8375 11.0118C65.2666 10.5026 65.6957 10.0093 66.1406 9.5001C66.3154 9.30915 66.4743 9.13411 66.665 8.91133H64.5674V7.79745H65.8228V6.87451H66.9193V7.78153H68.286C68.286 8.14753 68.3336 8.51352 68.2701 8.8636C68.2383 9.03864 68.0317 9.19776 67.9046 9.35689C67.4755 9.86609 67.0464 10.3594 66.6015 10.8686C66.4267 11.0595 66.2519 11.2505 66.0612 11.4574Z" fill="#9197AF"/>
<ellipse cx="148.744" cy="67.2151" rx="15.2558" ry="15.2762" fill="#373D54"/>
<ellipse cx="148.744" cy="67.2149" rx="13.2217" ry="13.2393" fill="#464C66"/>
<path d="M154.336 67.2283C154.336 69.9712 152.342 72.3259 149.624 72.7658C148.148 72.9987 146.776 72.6882 145.56 71.8602C145.43 71.7825 145.43 71.7825 145.534 71.6532C145.948 71.2391 146.388 70.8251 146.802 70.3852C146.88 70.3076 146.906 70.3076 147.009 70.3593C148.796 71.3426 151.022 70.6699 151.928 68.8585C152.498 67.7459 152.472 66.6332 151.876 65.5205C151.825 65.417 151.825 65.3652 151.902 65.2876C152.342 64.8736 152.757 64.4337 153.171 64.0197C153.249 63.9421 153.274 63.9421 153.352 64.0456C153.922 64.8736 154.258 65.7534 154.336 66.7626C154.336 66.8402 154.362 66.9178 154.362 67.0213C154.336 67.0731 154.336 67.1507 154.336 67.2283Z" fill="#9197AF"/>
<path d="M145.145 67.2024C145.145 67.8234 145.275 68.3927 145.585 68.9361C145.637 69.0396 145.637 69.1172 145.559 69.1949C145.145 69.6089 144.731 70.0229 144.317 70.4369C144.239 70.5145 144.213 70.5145 144.136 70.411C143.566 69.6089 143.229 68.7032 143.152 67.7199C143.022 65.9345 143.592 64.4337 144.86 63.1916C145.767 62.3118 146.88 61.7943 148.148 61.6649C149.52 61.5097 150.789 61.846 151.954 62.6223C152.057 62.7 152.057 62.7 151.98 62.8035C151.566 63.2175 151.125 63.6574 150.711 64.0714C150.659 64.1231 150.608 64.149 150.53 64.0973C148.329 62.8811 145.585 64.2266 145.249 66.7108C145.171 66.8919 145.145 67.0471 145.145 67.2024Z" fill="#9197AF"/>
<path d="M144.42 72.9466C144.42 73.7229 143.799 74.3439 143.022 74.3439C142.246 74.3439 141.625 73.697 141.625 72.9207C141.625 72.1445 142.272 71.5234 143.022 71.5234C143.799 71.5493 144.42 72.1703 144.42 72.9466Z" fill="#9197AF"/>
<path d="M153.067 61.4837C153.067 60.7075 153.689 60.0864 154.465 60.0864C155.242 60.0864 155.863 60.7075 155.863 61.5096C155.863 62.2859 155.242 62.9069 154.465 62.9069C153.689 62.9069 153.067 62.2859 153.067 61.4837Z" fill="#9197AF"/>
</svg>
