<svg width="160" height="120" viewBox="0 0 160 120" fill="none" xmlns="http://www.w3.org/2000/svg">
<rect x="87.5469" y="94.981" width="72.4528" height="12.0996" fill="#E9AE77"/>
<rect x="89.1572" y="96.3252" width="69.2327" height="9.4108" fill="#FFC28A"/>
<rect x="75.4717" y="105.871" width="72.4528" height="12.0996" fill="#E9AE77"/>
<rect x="77.0815" y="107.215" width="69.2327" height="9.4108" fill="#FFC28A"/>
<ellipse cx="73.9621" cy="58.9856" rx="58.8679" ry="58.9856" fill="#E9AE77"/>
<ellipse cx="73.9623" cy="58.9855" rx="51.9423" ry="52.0461" fill="#FFC28A"/>
<path fill-rule="evenodd" clip-rule="evenodd" d="M93.372 62.9509C92.4607 61.4528 91.2761 60.3073 89.7269 59.4261C88.6334 58.8092 87.0842 58.2805 85.0794 57.7518C86.9931 57.1349 88.4511 56.3418 89.6358 55.3725C90.8204 54.4032 91.6406 53.3458 92.2785 52.1121C92.9163 50.8784 93.1897 49.5566 93.1897 48.1467C93.1897 46.2961 92.643 44.5337 91.4583 42.9475C90.2737 41.3614 88.6334 40.1277 86.5375 39.3346C85.7173 38.9821 84.7149 38.7178 83.6214 38.5415V31.2275H76.3313V38.1009H71.5927V31.2275H64.3025V38.1009H53.1851V43.9169H54.8253C55.9189 43.9169 56.739 44.005 57.1035 44.1812C57.468 44.3575 57.8325 44.6218 57.9237 44.9743C58.1059 45.3268 58.197 46.1199 58.197 47.3536V70.6173C58.197 71.851 58.1059 72.6441 57.9237 72.9966C57.7414 73.3491 57.468 73.6134 57.1035 73.7897C56.739 73.9659 55.9189 74.054 54.8253 74.054H53.1851V79.7819H64.3025V86.7434H71.5927V79.87H76.3313V86.7434H83.6214V79.2531C84.8972 78.9888 85.8996 78.7244 86.8108 78.3719C89.3624 77.4026 91.2761 75.9927 92.643 74.1422C94.0099 72.2916 94.7389 70.2649 94.7389 67.9737C94.7389 66.1232 94.2832 64.4489 93.372 62.9509ZM73.6886 44.7981C76.4224 44.7981 78.3361 44.9743 79.4296 45.3268C80.5231 45.6793 81.3432 46.208 81.89 47.0011C82.4368 47.7942 82.7101 48.7635 82.7101 49.8209C82.7101 50.8784 82.4368 51.7596 81.7989 52.6408C81.161 53.4339 80.3408 54.0507 79.1562 54.4913C77.9715 54.9319 76.149 55.1082 73.6886 55.1082H68.95V44.8862H73.6886V44.7981ZM82.3456 70.7055C81.5255 71.7629 80.5231 72.4679 79.2473 72.7322C78.0627 73.0847 76.5135 73.261 74.691 73.261H71.5015C70.4991 73.261 69.7701 73.1728 69.5879 73.0847C69.3145 72.9966 69.2234 72.8204 69.0411 72.556C68.95 72.2916 68.95 71.5867 68.8589 70.2649V61.1885H74.4176C76.878 61.1885 78.7006 61.4528 79.8852 61.8934C81.0699 62.334 81.9811 62.9509 82.5279 63.8321C83.1658 64.7133 83.4392 65.6826 83.4392 67.0044C83.6214 68.4143 83.1658 69.648 82.3456 70.7055Z" fill="#E9AE77"/>
<path d="M68.8511 53.4468H52.9623L-0.000274658 119.786H15.8885L68.8511 53.4468Z" fill="#F5F5FF"/>
<path d="M150.943 23.5942H135.055C114.371 49.5013 102.775 64.0264 82.092 89.9334H97.9808L150.943 23.5942Z" fill="#F5F5FF"/>
<path d="M68.8512 53.4468H52.9624L82.0918 89.9333H97.9806L68.8512 53.4468Z" fill="#F5F5FF"/>
<rect x="7.24512" y="85.9072" width="72.4528" height="12.0996" fill="#E9AE77"/>
<rect x="8.85547" y="87.2515" width="69.2327" height="9.4108" fill="#FFC28A"/>
<rect x="1.20752" y="96.7969" width="72.4528" height="12.0996" fill="#E9AE77"/>
<rect x="2.81738" y="98.1411" width="69.2327" height="9.4108" fill="#FFC28A"/>
<rect x="15.0942" y="107.687" width="72.4528" height="12.0996" fill="#E9AE77"/>
<rect x="16.7046" y="109.031" width="69.2327" height="9.4108" fill="#FFC28A"/>
<path d="M150.43 35.2029L154.894 8.35254L130.023 19.3018L150.43 35.2029Z" fill="#F5F5FF"/>
</svg>
