<svg width="115" height="160" viewBox="0 0 115 160" fill="none" xmlns="http://www.w3.org/2000/svg">
<path d="M69.4169 51.3379V48.6211L66.0142 49.6399L69.4169 51.3379Z" fill="#373D54"/>
<path d="M57.1668 126.389L71.4585 90.7312L67.0348 89.0332L47.2987 99.9004L41.8542 116.541L5.78467 138.275L7.14578 142.35L57.1668 126.389Z" fill="#373D54"/>
<path d="M42.8752 55.7525C39.8807 59.2843 40.0395 70.1289 40.4932 75.1097L42.1946 78.1662L58.528 69.3366L65.3336 58.8087L61.5905 53.7149C56.5997 52.9225 45.8696 52.2207 42.8752 55.7525Z" fill="#6D63D8"/>
<path d="M67.0349 79.8642L71.7988 59.4883H67.0349L65.6738 64.2427L61.2502 77.8266L60.9099 79.8642H67.0349Z" fill="white"/>
<path d="M87.7919 54.0547V37.0747L99.0211 38.0935C99.8151 39.1123 101.199 43.8667 100.382 54.7339C99.5655 65.601 83.9354 66.9594 76.2224 66.2802V85.977C76.2224 90.3239 72.5928 90.9578 70.778 90.7314L42.5348 91.4106C40.6293 82.9885 40.6066 76.8078 40.8334 74.7702L60.5696 77.8266L60.9099 78.1662V79.8642H66.3543H66.8183L71.4585 59.4883V54.0547H87.7919Z" fill="#6D63D8"/>
<path d="M82.3475 103.976L69.0766 90.7312L44.9168 89.7124L42.5348 91.4104C42.2626 97.3873 48.0927 102.278 51.0418 103.976L69.0766 112.466L100.723 154.576L105.486 152.199L82.3475 103.976Z" fill="#28304E"/>
<path d="M69.4168 51.3379V59.4883L62.6112 51.3379L62.9515 48.2815L61.9307 44.5459L64.6529 42.5083L68.7362 41.1499L71.1182 45.2251L69.7571 45.5647L72.139 48.2815L66.014 49.6399L69.4168 51.3379Z" fill="#F0D2AA"/>
<path d="M66.3543 72.3931L59.2085 64.2427L40.4932 75.1099C40.1529 78.3926 41.2418 85.0262 48.3196 85.2978C55.3974 85.5695 63.2918 76.8079 66.3543 72.3931Z" fill="#2D2CAB"/>
<path d="M64.653 48.2819V47.6027C64.0859 47.6027 62.9516 47.331 62.9516 46.2441C62.9516 45.1573 63.6322 44.8857 63.9724 44.8857V43.8671C64.8798 43.5274 67.1711 42.5085 69.0766 41.1501C70.9822 39.7917 69.8706 38.773 69.0766 38.4335C66.3544 38.0939 62.271 39.1127 61.2502 40.4711C60.4335 41.5578 60.6831 43.1879 60.9099 43.8671L62.9516 48.6215L64.653 48.2819Z" fill="#373D54"/>
<path d="M64.7523 46.9229C64.3216 46.9229 63.9724 46.6188 63.9724 46.2437C63.9724 45.8685 64.3216 45.5645 64.7523 45.5645C64.9832 45.5645 65.1907 45.6519 65.3335 45.7909" stroke="#FF8A8A"/>
<path d="M63.9724 44.2063L67.0349 43.8667" stroke="#FF8A8A"/>
<path d="M69.5974 43.8665C69.5974 44.5271 69.0604 45.0645 68.396 45.0645C67.7315 45.0645 67.1946 44.5271 67.1946 43.8665C67.1946 43.2058 67.7315 42.6685 68.396 42.6685C69.0604 42.6685 69.5974 43.2058 69.5974 43.8665Z" stroke="#FF8A8A"/>
<path d="M61.5903 53.7151L62.6112 51.3379L66.6945 55.7527L65.6737 59.1487L61.5903 53.7151Z" fill="#F5F5FF"/>
<path d="M71.4584 54.0547C70.7779 53.2623 69.4167 51.2021 69.4167 50.6587V59.4883L71.7987 56.0923L71.4584 54.0547Z" fill="#F5F5FF"/>
<path d="M66.6946 55.7529L69.4168 59.4885L71.7988 56.0925V59.4885H69.4168H65.3335L66.6946 55.7529Z" fill="#373D54"/>
<path d="M89.1529 82.2412L47.6389 40.8101L45.9375 42.5081L87.4515 83.5996L89.1529 82.2412Z" fill="#373D54"/>
<path d="M33.3473 32.9993L32.3264 32.3201L33.6876 30.6221L31.6459 28.9241L33.3473 26.8865L35.389 28.4874L36.7501 27.2261L37.7709 27.9053L57.8473 14.3213L59.5487 16.0193L42.8751 32.6597L45.9376 35.716L44.2362 37.414L47.639 40.81L45.9376 42.508L42.5348 39.112L41.1737 40.4704L37.7709 37.414L13.6111 61.8652L12.25 60.1672L33.3473 32.9993Z" fill="#F5F5FF"/>
<path d="M3.74316 139.973L6.12512 139.294L6.80567 141.332L4.42372 142.011L3.74316 139.973Z" fill="#C4C4C4"/>
<path d="M4.7639 142.351L3.74307 139.634H2.04167L0 140.313L0.340279 142.011H1.02084V143.369L2.72223 149.822H3.40279V146.765C3.40279 144.864 4.3102 143.03 4.7639 142.351Z" fill="#373D54"/>
<path d="M103.857 156.275L102.083 153.897L104.125 152.878L105.713 155.189L103.857 156.275Z" fill="#C4C4C4"/>
<path d="M105.976 154.786L103.524 156.345L103.876 158.006L104.964 159.859L106.558 159.176L106.418 158.511L107.749 158.23L113.723 155.234L113.582 154.57L110.586 155.202C108.721 155.595 106.736 155.089 105.976 154.786Z" fill="#373D54"/>
<path d="M62.9516 62.2048L62.271 63.2236L65.4924 66.6196L69.7571 61.8652L67.0349 59.1484H65.4924L64.6529 57.79L62.9516 59.1484V62.2048Z" fill="#F0D2AA"/>
<path d="M87.4517 37.4141V34.0181H100.382V38.4329L87.4517 37.4141Z" fill="#F5F5FF"/>
<ellipse cx="97.734" cy="15.3695" rx="15.7635" ry="15.3695" fill="#E9AE77"/>
<ellipse cx="97.6511" cy="15.3278" rx="14.1042" ry="13.7516" fill="#FFC28A"/>
<path fill-rule="evenodd" clip-rule="evenodd" d="M102.862 16.1015C102.603 15.6761 102.266 15.3508 101.825 15.1006C101.514 14.9255 101.074 14.7754 100.503 14.6252C101.048 14.4501 101.462 14.2249 101.799 13.9496C102.137 13.6744 102.37 13.3741 102.551 13.0238C102.733 12.6735 102.811 12.2982 102.811 11.8979C102.811 11.3724 102.655 10.872 102.318 10.4216C101.981 9.97122 101.514 9.62092 100.918 9.39573C100.685 9.29564 100.399 9.22058 100.088 9.17053V7.09375H98.0141V9.04543H96.6659V7.09375H94.5918V9.04543H91.4287V10.6968H91.8954C92.2065 10.6968 92.4399 10.7219 92.5436 10.7719C92.6473 10.822 92.751 10.897 92.7769 10.9971C92.8288 11.0972 92.8547 11.3224 92.8547 11.6727V18.2784C92.8547 18.6287 92.8288 18.8539 92.7769 18.9539C92.7251 19.054 92.6473 19.1291 92.5436 19.1791C92.4399 19.2292 92.2065 19.2542 91.8954 19.2542H91.4287V20.8806H94.5918V22.8573H96.6659V20.9056H98.0141V22.8573H100.088V20.7305C100.451 20.6554 100.736 20.5803 100.996 20.4803C101.722 20.205 102.266 19.8047 102.655 19.2792C103.044 18.7538 103.251 18.1783 103.251 17.5277C103.251 17.0023 103.122 16.5269 102.862 16.1015ZM97.2623 10.9471C98.0401 10.9471 98.5845 10.9971 98.8957 11.0972C99.2068 11.1973 99.4401 11.3474 99.5957 11.5726C99.7512 11.7978 99.829 12.073 99.829 12.3733C99.829 12.6735 99.7512 12.9238 99.5698 13.174C99.3883 13.3992 99.1549 13.5743 98.8179 13.6994C98.4808 13.8245 97.9623 13.8746 97.2623 13.8746H95.9141V10.9721H97.2623V10.9471ZM99.7253 18.3034C99.492 18.6036 99.2068 18.8038 98.8438 18.8789C98.5068 18.979 98.066 19.029 97.5475 19.029H96.64C96.3548 19.029 96.1474 19.004 96.0956 18.979C96.0178 18.9539 95.9918 18.9039 95.94 18.8288C95.9141 18.7538 95.9141 18.5536 95.8881 18.1783V15.6011H97.4697C98.1697 15.6011 98.6882 15.6761 99.0253 15.8012C99.3623 15.9263 99.6216 16.1015 99.7772 16.3517C99.9587 16.6019 100.036 16.8772 100.036 17.2525C100.088 17.6528 99.9587 18.0031 99.7253 18.3034Z" fill="#E9AE77"/>
<path d="M91.1948 32.3204V34.0184H95.6184L95.2782 32.9995L98.0004 32.3203C99.0212 31.8675 101.131 30.894 101.403 30.6224C101.675 30.3507 101.29 30.0563 101.063 29.9431L99.7018 30.2827L100.723 28.5848C100.382 28.4716 99.5657 28.4489 99.0212 29.264C98.4768 30.079 97.2064 30.5092 96.6393 30.6224H94.2573C91.8073 30.6224 91.1948 31.7544 91.1948 32.3204Z" fill="#F0D2AA"/>
<path d="M67.0349 73.4116C64.1992 70.1288 58.8682 63.8349 58.8682 63.5632L61.2501 61.8652L69.4168 70.6948L67.0349 73.4116Z" fill="#F5F5FF"/>
</svg>
