<svg width="160" height="130" viewBox="0 0 160 130" fill="none" xmlns="http://www.w3.org/2000/svg">
<path d="M58.2004 61.1406L60.0365 4.33154C66.5238 4.57588 81.0408 5.13786 87.2099 5.43107C93.379 5.72428 97.1245 7.01928 98.2261 7.63013C98.7157 8.72966 99.5481 13.2744 98.9605 22.657C98.373 32.0397 95.7781 54.9099 94.554 65.1722L58.2004 61.1406Z" fill="#3FC575"/>
<path fill-rule="evenodd" clip-rule="evenodd" d="M73.6705 9.9292C72.7892 16.0864 66.4487 17.1372 63.3887 16.8931L62.6543 38.1504V42.5488L94.6014 44.0146C94.8462 42.793 95.4093 38.6636 95.703 31.9199C95.9968 25.1758 94.6014 20.5581 93.8669 19.0918C87.9917 19.6782 85.7885 13.7163 85.4211 10.6621C84.2461 10.3691 77.0978 10.0513 73.6705 9.9292ZM81.0146 23.8564C81.0146 25.2734 79.8639 26.4224 78.4442 26.4224C77.0247 26.4224 75.8738 25.2734 75.8738 23.8564C75.8738 22.4395 77.0247 21.291 78.4442 21.291C79.8639 21.291 81.0146 22.4395 81.0146 23.8564ZM77.7098 33.7529C79.1295 33.7529 80.2803 32.604 80.2803 31.187C80.2803 29.77 79.1295 28.6216 77.7098 28.6216C76.2903 28.6216 75.1394 29.77 75.1394 31.187C75.1394 32.604 76.2903 33.7529 77.7098 33.7529Z" fill="#63DC94"/>
<path d="M93.1056 50.1629L121.441 0.860118C127.055 4.11496 139.609 11.4119 144.919 14.5608C150.228 17.7097 151.37 20.1688 152.056 21.2243C151.971 22.4245 152.125 27.2665 147.194 35.2762C142.263 43.2859 129.217 62.2649 123.31 70.7532L93.1056 50.1629Z" fill="#3FC575"/>
<path fill-rule="evenodd" clip-rule="evenodd" d="M130.745 12.0909C127.072 17.1153 120.979 15.0723 118.392 13.4234L107.747 31.8497L105.679 35.7335L97.4058 51.2676L121.642 67.4468C125.835 62.6978 131.094 55.1661 133.199 51.9942C133.989 51.0299 136.428 47.6475 139.859 41.8301C143.29 36.0132 144.229 31.2818 144.27 29.6431C138.806 27.4083 139.664 21.1119 140.777 18.2427C139.877 17.4337 133.714 13.8043 130.745 12.0909ZM130.681 27.8297C130.015 29.0806 128.458 29.5557 127.205 28.8907C125.951 28.2257 125.475 26.6724 126.142 25.4215C126.808 24.17 128.364 23.6949 129.618 24.3599C130.871 25.025 131.347 26.5782 130.681 27.8297ZM123.109 35.0191C124.363 35.6841 125.919 35.2091 126.585 33.9581C127.252 32.7066 126.776 31.1534 125.522 30.4883C124.269 29.8233 122.712 30.2984 122.046 31.5499C121.38 32.8008 121.856 34.3541 123.109 35.0191Z" fill="#63DC94"/>
<ellipse rx="10.7718" ry="10.7604" transform="matrix(0.883379 0.46866 -0.470052 0.882639 116.757 48.3832)" fill="#3FC575"/>
<path d="M123.007 48.5309C122.567 48.2975 122.13 48.2449 121.696 48.3732C121.258 48.4987 120.751 48.8268 120.176 49.3576C119.596 49.8857 119.112 50.2786 118.722 50.5362C117.434 51.398 116.155 51.4925 114.887 50.8197C114.028 50.3638 113.46 49.7278 113.185 48.9117C112.909 48.0955 112.958 47.2126 113.331 46.263L111.638 45.365L112.299 44.1238L114.007 45.03C114.616 44.1988 115.369 43.7064 116.268 43.5528C117.161 43.3965 118.114 43.5875 119.129 44.1257L118.129 46.0031C117.477 45.6571 116.886 45.5326 116.356 45.6297C115.824 45.7188 115.425 46.0142 115.158 46.5159C114.893 47.0124 114.821 47.4716 114.942 47.8937C115.062 48.3158 115.373 48.66 115.875 48.9264C116.326 49.1653 116.761 49.2204 117.181 49.0919C117.599 48.9554 118.106 48.6207 118.702 48.0878C119.298 47.5549 119.8 47.1546 120.208 46.8869C120.616 46.6192 121.023 46.4274 121.43 46.3117C121.832 46.1931 122.243 46.156 122.664 46.2004C123.086 46.2447 123.529 46.3905 123.995 46.6376C124.87 47.1017 125.436 47.7468 125.693 48.573C125.952 49.3941 125.877 50.309 125.466 51.318L126.98 52.1212L126.323 53.3546L124.816 52.5555C124.157 53.5191 123.37 54.1128 122.454 54.3367C121.541 54.5554 120.572 54.3928 119.547 53.8491L120.551 51.964C121.203 52.31 121.795 52.4149 122.325 52.2785C122.859 52.137 123.285 51.7663 123.605 51.1664C123.919 50.5768 124.014 50.0539 123.892 49.5978C123.773 49.1364 123.478 48.7808 123.007 48.5309Z" fill="#63DC94"/>
<path d="M48.5787 81.9095L17.6513 45.397C21.8409 41.9008 31.2247 34.0867 35.2431 30.8C39.2616 27.5133 42.332 26.2155 43.3649 25.9774C44.2914 26.3887 47.3772 28.7589 52.3076 34.9493C57.2381 41.1396 68.5298 56.8827 73.5594 63.9804L48.5787 81.9095Z" fill="#3FC575"/>
<path fill-rule="evenodd" clip-rule="evenodd" d="M29.0072 41.1359C31.9332 45.4772 28.5665 49.6998 26.5174 51.2682L38.0607 64.9576L40.5438 67.7042L50.4764 78.6915L70.2495 64.2067C67.6905 59.5348 63.2329 53.2233 61.324 50.6515C60.7871 49.7506 58.8072 46.8551 55.1832 42.4781C51.5592 38.1012 48.0804 36.0016 46.7941 35.4991C43.4557 39.17 38.7137 36.6857 36.7599 34.9845C35.8605 35.4625 31.2167 39.2848 29.0072 41.1359ZM41.4571 45.7037C42.2572 46.5885 42.1869 47.9532 41.3004 48.7516C40.4137 49.5499 39.0465 49.4801 38.2464 48.5953C37.4464 47.7101 37.5167 46.3453 38.4034 45.547C39.2899 44.7487 40.6571 44.8185 41.4571 45.7037ZM44.9801 53.7433C45.8666 52.9449 45.9369 51.5802 45.1368 50.6954C44.3368 49.8102 42.9696 49.7404 42.0831 50.5387C41.1964 51.337 41.1261 52.7018 41.9261 53.587C42.7262 54.4718 44.0934 54.5416 44.9801 53.7433Z" fill="#63DC94"/>
<ellipse rx="7.40715" ry="7.4057" transform="matrix(0.743082 -0.669201 0.670606 0.741814 51.5166 63.0685)" fill="#C4C4C4"/>
<path d="M54.2778 55.8777C53.9077 56.211 53.709 56.6029 53.6817 57.0532C53.6501 57.5075 53.786 58.0948 54.0895 58.815C54.3887 59.5391 54.5931 60.1278 54.7027 60.5811C55.074 62.0839 54.7262 63.3157 53.6595 64.2764C52.9368 64.9273 52.144 65.243 51.2813 65.2236C50.4185 65.2041 49.6037 64.8576 48.8369 64.1841L47.4131 65.4663L46.4701 64.4231L47.9069 63.1292C47.332 62.2748 47.1257 61.4001 47.288 60.5048C47.4459 59.6135 47.9515 58.7836 48.8049 58.0151L50.2313 59.5929C49.6827 60.087 49.3636 60.599 49.2741 61.1291C49.1763 61.6587 49.318 62.1344 49.6991 62.556C50.0763 62.9733 50.4842 63.1973 50.9228 63.2281C51.3614 63.2589 51.7919 63.0842 52.2142 62.7038C52.593 62.3627 52.7937 61.973 52.8162 61.5348C52.8304 61.0962 52.6883 60.5066 52.39 59.7659C52.0917 59.0253 51.8862 58.4179 51.7735 57.9438C51.6609 57.4696 51.6195 57.0219 51.6494 56.6007C51.675 56.1834 51.7806 55.7847 51.9662 55.4046C52.1519 55.0246 52.4406 54.6581 52.8325 54.3052C53.5683 53.6425 54.3691 53.3313 55.2349 53.3717C56.0968 53.4077 56.9326 53.7905 57.7423 54.5201L59.0158 53.3731L59.9529 54.4098L58.6859 55.5508C59.3681 56.4977 59.6582 57.439 59.5562 58.3746C59.4502 59.3059 58.9662 60.1597 58.1041 60.9361L56.6719 59.3517C57.2205 58.8577 57.5212 58.3385 57.5741 57.7941C57.623 57.2453 57.4196 56.7189 56.9638 56.2147C56.5159 55.7191 56.0562 55.451 55.5849 55.4102C55.1097 55.3651 54.674 55.5209 54.2778 55.8777Z" fill="white"/>
<ellipse cx="139.069" cy="93.6601" rx="20.9309" ry="20.8911" fill="#E9AE77"/>
<ellipse cx="139.164" cy="93.8429" rx="18.7276" ry="18.692" fill="#FFC28A"/>
<path d="M142.486 98.7027C142.486 97.9566 142.249 97.3422 141.775 96.8595C141.301 96.368 140.511 95.9291 139.405 95.5429C138.299 95.1479 137.439 94.7837 136.824 94.4501C134.779 93.353 133.757 91.7292 133.757 89.5788C133.757 88.1218 134.2 86.9237 135.087 85.9846C135.973 85.0454 137.176 84.4881 138.694 84.3125V81.4424H140.8V84.3388C142.328 84.5583 143.508 85.2078 144.342 86.2874C145.176 87.3582 145.593 88.7538 145.593 90.4741H142.407C142.407 89.3682 142.157 88.4992 141.656 87.8673C141.165 87.2265 140.493 86.9062 139.642 86.9062C138.799 86.9062 138.141 87.1344 137.667 87.5908C137.193 88.0472 136.956 88.7011 136.956 89.5525C136.956 90.3161 137.189 90.9305 137.654 91.3957C138.128 91.8521 138.927 92.2866 140.05 92.6991C141.174 93.1116 142.056 93.4934 142.696 93.8445C143.337 94.1956 143.877 94.5994 144.316 95.0558C144.755 95.5034 145.093 96.0213 145.33 96.6093C145.566 97.1974 145.685 97.8864 145.685 98.6763C145.685 100.16 145.229 101.362 144.316 102.284C143.412 103.205 142.148 103.75 140.524 103.916V106.484H138.431V103.929C136.693 103.736 135.354 103.113 134.415 102.06C133.485 101.007 133.02 99.6111 133.02 97.8732H136.219C136.219 98.9792 136.495 99.8349 137.048 100.441C137.61 101.046 138.4 101.349 139.418 101.349C140.419 101.349 141.178 101.108 141.696 100.625C142.222 100.142 142.486 99.5014 142.486 98.7027Z" fill="#E9AE77"/>
<ellipse cx="18.6645" cy="88.2621" rx="7.71137" ry="7.69671" fill="#E9AE77"/>
<ellipse cx="18.6645" cy="88.2625" rx="6.89964" ry="6.88653" fill="#FFC28A"/>
<path d="M19.6107 89.595C19.6107 89.3708 19.5394 89.1862 19.3967 89.0411C19.254 88.8934 19.0162 88.7616 18.6833 88.6455C18.3503 88.5268 18.0914 88.4174 17.9064 88.3172C17.2908 87.9875 16.9829 87.4996 16.9829 86.8535C16.9829 86.4157 17.1164 86.0557 17.3833 85.7735C17.6501 85.4913 18.0121 85.3238 18.4693 85.2711V84.4087H19.1034V85.279C19.5632 85.3449 19.9186 85.5401 20.1696 85.8645C20.4206 86.1862 20.5461 86.6056 20.5461 87.1225H19.587C19.587 86.7902 19.5116 86.5291 19.361 86.3392C19.2131 86.1467 19.0109 86.0504 18.7546 86.0504C18.501 86.0504 18.3028 86.119 18.1601 86.2561C18.0174 86.3933 17.9461 86.5897 17.9461 86.8456C17.9461 87.075 18.0161 87.2596 18.1561 87.3994C18.2988 87.5365 18.5393 87.6671 18.8775 87.791C19.2157 87.915 19.4813 88.0297 19.6742 88.1352C19.867 88.2407 20.0295 88.362 20.1617 88.4992C20.2938 88.6337 20.3955 88.7893 20.4669 88.966C20.5382 89.1427 20.5739 89.3497 20.5739 89.587C20.5739 90.0327 20.4365 90.3941 20.1617 90.671C19.8895 90.9479 19.509 91.1114 19.0202 91.1615V91.9329H18.39V91.1655C17.8668 91.1074 17.4638 90.9202 17.1811 90.6037C16.901 90.2872 16.761 89.8679 16.761 89.3457H17.7241C17.7241 89.678 17.8073 89.9352 17.9738 90.1171C18.1429 90.2991 18.3807 90.3901 18.6872 90.3901C18.9885 90.3901 19.217 90.3176 19.3729 90.1725C19.5315 90.0275 19.6107 89.8349 19.6107 89.595Z" fill="#E9AE77"/>
<ellipse cx="93.638" cy="24.6231" rx="5.50812" ry="5.49765" fill="#E9AE77"/>
<ellipse cx="93.638" cy="24.6231" rx="4.92832" ry="4.91895" fill="#FFC28A"/>
<path d="M94.3139 25.5751C94.3139 25.415 94.2629 25.2831 94.161 25.1795C94.0591 25.074 93.8892 24.9798 93.6514 24.8969C93.4136 24.8121 93.2286 24.734 93.0965 24.6624C92.6567 24.4269 92.4369 24.0784 92.4369 23.6169C92.4369 23.3042 92.5322 23.047 92.7228 22.8455C92.9134 22.6439 93.172 22.5243 93.4985 22.4866V21.8706H93.9515V22.4923C94.2799 22.5394 94.5337 22.6788 94.713 22.9105C94.8923 23.1403 94.982 23.4398 94.982 23.809H94.2969C94.2969 23.5717 94.2431 23.3852 94.1355 23.2495C94.0298 23.112 93.8854 23.0433 93.7023 23.0433C93.5212 23.0433 93.3796 23.0922 93.2777 23.1902C93.1758 23.2882 93.1248 23.4285 93.1248 23.6112C93.1248 23.7751 93.1748 23.907 93.2749 24.0068C93.3768 24.1048 93.5485 24.198 93.7901 24.2866C94.0317 24.3751 94.2214 24.457 94.3592 24.5324C94.4969 24.6078 94.613 24.6944 94.7074 24.7924C94.8017 24.8884 94.8744 24.9996 94.9254 25.1258C94.9763 25.252 95.0018 25.3999 95.0018 25.5694C95.0018 25.8878 94.9037 26.1459 94.7074 26.3437C94.513 26.5415 94.2412 26.6583 93.892 26.694V27.2451H93.4419V26.6969C93.0682 26.6554 92.7804 26.5217 92.5784 26.2956C92.3784 26.0696 92.2783 25.77 92.2783 25.3971H92.9663C92.9663 25.6344 93.0257 25.8181 93.1446 25.9481C93.2654 26.078 93.4353 26.143 93.6542 26.143C93.8694 26.143 94.0326 26.0912 94.144 25.9876C94.2572 25.884 94.3139 25.7465 94.3139 25.5751Z" fill="#E9AE77"/>
<ellipse cx="17.1955" cy="105.122" rx="12.8523" ry="12.8278" fill="#E9AE77"/>
<ellipse cx="17.1957" cy="105.123" rx="11.4994" ry="11.4775" fill="#FFC28A"/>
<path d="M18.7725 107.343C18.7725 106.969 18.6536 106.662 18.4158 106.42C18.178 106.174 17.7817 105.954 17.2268 105.761C16.6719 105.563 16.2403 105.38 15.932 105.213C14.9059 104.664 14.3929 103.851 14.3929 102.774C14.3929 102.044 14.6153 101.444 15.0601 100.974C15.5049 100.504 16.1082 100.224 16.8701 100.137V98.6992H17.927V100.15C18.6933 100.26 19.2856 100.585 19.704 101.126C20.1223 101.662 20.3315 102.361 20.3315 103.222H18.7329C18.7329 102.668 18.6074 102.233 18.3564 101.917C18.1097 101.596 17.7729 101.435 17.3457 101.435C16.9229 101.435 16.5926 101.55 16.3548 101.778C16.117 102.007 15.9981 102.334 15.9981 102.761C15.9981 103.143 16.1148 103.451 16.3482 103.684C16.586 103.912 16.9868 104.13 17.5505 104.336C18.1142 104.543 18.5567 104.734 18.8782 104.91C19.1997 105.086 19.4705 105.288 19.6907 105.517C19.9109 105.741 20.0805 106 20.1994 106.295C20.3183 106.589 20.3777 106.934 20.3777 107.33C20.3777 108.073 20.1487 108.675 19.6907 109.136C19.2371 109.598 18.603 109.87 17.7883 109.954V111.24H16.7379V109.961C15.866 109.864 15.1944 109.552 14.7232 109.024C14.2564 108.497 14.0229 107.798 14.0229 106.928H15.6282C15.6282 107.481 15.7669 107.91 16.0443 108.213C16.3262 108.517 16.7225 108.668 17.2334 108.668C17.7354 108.668 18.1164 108.547 18.3762 108.306C18.6404 108.064 18.7725 107.743 18.7725 107.343Z" fill="#E9AE77"/>
<rect x="22.0325" y="61.6401" width="108.694" height="49.8454" fill="#BDBDD7"/>
<rect x="79.3169" y="61.6401" width="51.4091" height="49.8454" fill="#D2D2EA"/>
<path d="M71.9728 61.6401H22.0325L53.9796 35.9844H100.615L71.9728 61.6401Z" fill="#E8E8F9"/>
<path d="M130.726 61.6401H71.9727L100.615 35.9844L130.726 61.6401Z" fill="#F5F5FF"/>
<path d="M30.1111 61.6401H44.065V66.0383H30.1111V61.6401Z" fill="#F5F5FF"/>
<path d="M30.1111 107.087H44.065V111.485H30.1111V107.087Z" fill="#F5F5FF"/>
<path d="M32.3143 66.0383H41.8617V107.087H32.3143V66.0383Z" fill="#F5F5FF"/>
<path d="M51.4092 61.6401H65.3631V66.0383H51.4092V61.6401Z" fill="#F5F5FF"/>
<path d="M51.4092 107.087H65.3631V111.485H51.4092V107.087Z" fill="#F5F5FF"/>
<path d="M53.6124 66.0383H63.1598V107.087H53.6124V66.0383Z" fill="#F5F5FF"/>
<path d="M72.7073 61.6401H86.6612V66.0383H72.7073V61.6401Z" fill="#E8E8F9"/>
<path d="M72.7073 107.087H86.6612V111.485H72.7073V107.087Z" fill="#E8E8F9"/>
<path d="M74.9105 66.0383H84.4579V107.087H74.9105V66.0383Z" fill="#E8E8F9"/>
<path d="M94.0054 61.6401H107.959V66.0383H94.0054V61.6401Z" fill="#E8E8F9"/>
<path d="M94.0054 107.087H107.959V111.485H94.0054V107.087Z" fill="#E8E8F9"/>
<path d="M96.2086 66.0383H105.756V107.087H96.2086V66.0383Z" fill="#E8E8F9"/>
<path d="M115.303 61.6401H129.257V66.0383H115.303V61.6401Z" fill="#E8E8F9"/>
<path d="M115.303 107.087H129.257V111.485H115.303V107.087Z" fill="#E8E8F9"/>
<path d="M117.506 66.0383H127.054V107.087H117.506V66.0383Z" fill="#E8E8F9"/>
<rect x="16.8916" y="111.485" width="118.975" height="5.86416" fill="#BDBDD7"/>
<rect x="16.8916" y="111.485" width="62.4254" height="5.86416" fill="#ADADCC"/>
<rect x="8.07861" y="117.349" width="136.601" height="5.86416" fill="#ADADCC"/>
<rect x="8.07861" y="117.349" width="78.5825" height="5.86416" fill="#A0A0C0"/>
<rect y="123.213" width="152.758" height="5.86416" fill="#A0A0C0"/>
<rect y="123.213" width="93.2708" height="5.86416" fill="#9292B5"/>
</svg>
