<svg width="13" height="14" viewBox="0 0 13 14" fill="none" xmlns="http://www.w3.org/2000/svg">
<g opacity="0.5">
<path d="M2.59312 0.223902C2.05058 -0.0788362 1.41358 -0.0718365 0.874512 0.228277L7.19252 6.11243L9.315 3.96963L2.59312 0.223902Z" fill="white"/>
<path d="M0.242667 0.830078C0.0884002 1.08469 -1.65304e-09 1.37606 -1.65304e-09 1.68492V12.3123C-1.65304e-09 12.6115 0.0806001 12.8967 0.2262 13.1461L6.57975 6.73173L0.242667 0.830078Z" fill="white"/>
<path d="M12.1291 5.5375L10.1046 4.40967L7.82959 6.70558L10.6177 9.30161L12.13 8.45901C12.6743 8.15452 13.0001 7.60855 13.0001 6.99782C12.9993 6.38709 12.6743 5.84111 12.1291 5.5375Z" fill="white"/>
<path d="M7.21658 7.32471L0.845703 13.7566C1.12217 13.9158 1.4255 13.9998 1.73057 13.9998C2.02524 13.9998 2.32164 13.9246 2.59291 13.7732L9.81832 9.74749L7.21658 7.32471Z" fill="white"/>
</g>
</svg>
