<svg width="14" height="10" viewBox="0 0 14 10" fill="none" xmlns="http://www.w3.org/2000/svg">
<g opacity="0.5">
<path d="M13.9828 8.67508C13.9694 8.65988 13.9497 8.65088 13.929 8.65088H0.0710604C0.0503591 8.65088 0.0308079 8.65974 0.0172945 8.67508C0.00378116 8.69028 -0.00225672 8.71068 0.000762221 8.7308C0.00277485 8.74347 0.211801 9.99944 1.83412 9.99944H12.1659C13.7881 9.99944 13.9971 8.74347 13.9993 8.7308C14.0022 8.71068 13.9961 8.69028 13.9828 8.67508ZM8.04221 9.55958H5.95771V9.09046H8.04221V9.55958Z" fill="white"/>
<path d="M1.51066 8.16296H12.4895C12.6482 8.16296 12.7771 8.03689 12.7771 7.88155V0.281419C12.7771 0.126076 12.6482 0 12.4895 0H1.51066C1.35195 0 1.22314 0.126076 1.22314 0.281419V7.88155C1.22314 8.03689 1.35195 8.16296 1.51066 8.16296ZM2.22946 0.984967H11.7707V7.178H2.22946V0.984967Z" fill="white"/>
</g>
</svg>
