<svg width="350" height="478" viewBox="0 0 350 478" fill="none" xmlns="http://www.w3.org/2000/svg">
<path d="M2.16418 282.753L337.915 476.597C340.383 478.03 344.721 477.831 347.548 476.199C350.374 474.568 350.692 472.06 348.224 470.627L12.4735 276.782C10.0057 275.349 5.66699 275.548 2.84088 277.18C0.01474 278.812 -0.30368 281.32 2.16418 282.753Z" fill="#F3F5FC"/>
<path d="M349.889 204.449V432.748C349.889 435.861 348.72 441.179 344.045 441.05H337.162C335.864 441.05 333.656 439.752 332.227 439.104L327.163 436.51L53.9256 278.776L19.1217 258.93C18.4724 258.54 17.823 258.151 17.3036 257.762C10.8103 252.963 5.61569 243.493 5.61569 235.581V5.98513L1.71972 4.0394C2.23918 3.1314 2.88851 2.35311 3.6677 1.70453L3.79758 1.57482C4.8365 0.66681 6.26501 0.277664 7.8234 0.147949H18.6022C21.4593 0.147949 24.3163 0.92624 26.7838 2.35311L336.513 180.971C343.785 185.381 349.889 195.888 349.889 204.449Z" fill="#26268E"/>
<path d="M344.694 208.341V431.451C344.694 432.619 344.564 433.527 344.435 434.564C343.525 438.715 340.928 441.05 337.292 441.05H337.162C335.863 441.05 334.435 440.791 332.876 440.142C332.357 439.883 331.708 439.623 331.188 439.234L208.076 368.28L144.312 331.441L123.663 319.507L55.2241 280.074L18.6021 258.93L13.9269 256.206C6.52458 251.925 0.420894 241.419 0.420894 232.857V9.87707C0.420894 7.5422 0.810491 5.59647 1.71955 4.03989C2.23901 3.13189 2.88834 2.35359 3.66753 1.70502L3.7974 1.5753C4.83633 0.667298 6.26484 0.278153 7.82322 0.148437H8.47255C10.1608 0.148437 12.1088 0.797013 14.0568 1.96445L331.188 184.863C338.591 189.273 344.694 199.78 344.694 208.341Z" fill="#4949D7"/>
<path opacity="0.15" d="M344.694 237.137V384.105C328.461 393.314 306.124 391.887 281.45 377.619L218.465 341.299L208.076 368.15L144.312 331.44L153.532 307.573L160.026 290.839L163.792 281.111L166.389 274.366L167.168 272.55L172.752 258.021L173.661 255.557L177.168 246.477L177.947 244.401L281.45 304.07C281.969 304.33 282.489 304.719 283.008 304.978C296.644 311.983 307.553 305.108 307.553 289.153C307.553 272.55 295.865 252.314 281.45 244.012L185.219 188.494L171.973 222.869L166.259 237.656L102.495 200.947L115.612 166.832L144.701 91.5969L281.58 170.464C287.164 173.707 292.488 177.339 297.813 181.489C297.683 181.36 297.683 181.36 297.553 181.23C297.813 181.36 297.943 181.619 298.202 181.749C299.111 182.527 300.15 183.306 301.059 184.084C301.839 184.732 302.618 185.381 303.527 186.159C304.436 186.938 305.345 187.716 306.124 188.494C307.033 189.272 307.942 190.18 308.851 190.959C309.631 191.737 310.41 192.386 311.189 193.164C312.617 194.591 314.046 196.018 315.474 197.444C316.124 198.093 316.773 198.871 317.422 199.52C318.461 200.687 319.63 201.855 320.669 203.152C321.318 203.93 321.968 204.709 322.617 205.357C323.526 206.395 324.435 207.433 325.344 208.6C325.994 209.378 326.643 210.286 327.292 211.065C328.071 212.102 328.98 213.14 329.76 214.307C330.409 215.086 331.058 215.994 331.708 216.902C332.617 218.069 333.396 219.237 334.175 220.404C334.824 221.182 335.344 222.09 335.863 222.869C337.162 224.685 338.331 226.63 339.629 228.446C340.279 229.484 340.928 230.522 341.577 231.56C342.227 232.597 342.876 233.505 343.396 234.543C343.655 235.321 344.175 236.229 344.694 237.137Z" fill="url(#paint0_linear)"/>
<path d="M29.226 136.5V134.627C29.226 134.003 29.226 133.534 29.226 132.91C29.226 132.442 29.3825 131.818 29.3825 131.506C29.539 131.037 29.6954 130.725 29.8519 130.413C30.1648 130.101 30.4778 129.945 30.7907 129.945C30.4778 129.633 30.1648 129.164 29.8519 128.696C29.6954 128.228 29.3825 127.76 29.3825 127.292C29.226 126.823 29.226 126.355 29.0696 126.043C28.9131 125.731 29.0696 125.263 29.0696 124.951V121.985C29.0696 120.268 29.5389 119.176 30.4778 118.708C31.4166 118.239 32.5119 118.396 34.0766 119.176C35.6413 120.112 36.893 121.205 37.6754 122.766C38.4577 124.326 38.9271 126.043 38.9271 127.916V129.789C38.9271 130.725 38.7706 131.506 38.6142 132.286C38.3012 132.91 37.9883 133.378 37.2059 133.378C37.6754 133.847 37.9883 134.471 38.1447 134.939C38.3012 135.407 38.6142 135.876 38.6142 136.5C38.7706 136.968 38.7706 137.592 38.7706 138.061C38.7706 138.685 38.7706 139.153 38.7706 139.777V141.962C38.7706 143.055 38.6142 143.835 38.4577 144.459C38.1448 145.084 37.8318 145.552 37.3624 145.708C36.893 146.02 36.4236 146.02 35.7977 145.864C35.1718 145.708 34.546 145.552 33.9201 145.084C33.1377 144.616 32.3554 143.991 31.7295 143.367C31.1036 142.743 30.6342 141.962 30.1648 141.182C29.6954 140.402 29.5389 139.621 29.226 138.685C29.3825 138.217 29.226 137.28 29.226 136.5ZM32.6683 127.604C32.6683 128.072 32.8248 128.54 33.1377 129.008C33.4507 129.477 33.7636 129.789 34.233 130.101C34.7024 130.413 35.0154 130.413 35.3283 130.257C35.6413 130.101 35.7977 129.789 35.7977 129.321V125.731C35.7977 125.263 35.6412 124.638 35.4848 124.17C35.3283 123.702 34.8589 123.234 34.3895 122.922C34.0766 122.766 33.6072 122.609 33.2942 122.766C32.9813 122.922 32.8248 123.234 32.8248 123.702V127.604H32.6683ZM32.6683 139.153C32.6683 139.621 32.8248 140.089 33.1377 140.558C33.4507 141.026 33.7636 141.338 34.233 141.65C34.7024 141.962 35.0154 141.962 35.3283 141.806C35.6413 141.65 35.7977 141.338 35.7977 140.87V136.032C35.7977 135.563 35.6412 134.939 35.4848 134.471C35.3283 134.003 34.8589 133.534 34.3895 133.222C33.7636 132.91 33.4507 132.91 33.2942 133.222C33.1377 133.534 32.9813 133.847 32.9813 134.471V139.153H32.6683Z" fill="#2B2BA3"/>
<path d="M42.3696 144.615V129.32C42.3696 128.383 42.5261 127.759 42.6826 127.291C42.9955 126.823 43.3084 126.354 43.7779 126.198C44.2473 126.042 44.7167 125.886 45.3425 126.042C45.9684 126.198 46.5943 126.354 47.2202 126.823C48.6284 127.603 49.8801 128.851 50.6625 130.256C51.6013 131.661 52.0707 133.378 52.0707 135.094V150.389C52.0707 151.326 51.9143 151.95 51.7578 152.418C51.4448 152.886 51.1319 153.355 50.6625 153.511C50.1931 153.667 49.7237 153.823 49.0978 153.667C48.4719 153.511 47.846 153.355 47.2202 152.886C46.5943 152.418 45.812 151.95 45.3425 151.482C44.7167 150.858 44.2473 150.233 43.7779 149.609C43.3084 148.829 42.9955 148.048 42.6826 147.268C42.3696 146.331 42.3696 145.395 42.3696 144.615ZM45.6555 146.644C45.6555 147.112 45.812 147.58 46.1249 148.048C46.4378 148.516 46.7508 148.829 47.2202 149.141C47.6896 149.297 48.0025 149.453 48.159 149.297C48.4719 149.141 48.6284 148.829 48.6284 148.36V132.909C48.6284 132.441 48.4719 131.973 48.159 131.505C47.8461 131.036 47.5331 130.724 47.2202 130.568C46.7508 130.256 46.4378 130.256 46.1249 130.412C45.812 130.568 45.6555 130.88 45.6555 131.349V146.644Z" fill="#2B2BA3"/>
<path d="M55.1999 151.327V149.454C55.1999 148.829 55.1999 148.361 55.1999 147.737C55.1999 147.269 55.3564 146.644 55.3564 146.332C55.5129 145.864 55.6693 145.552 55.8258 145.24C56.1387 144.928 56.4517 144.772 56.7646 144.772C56.4517 144.459 56.1387 143.991 55.8258 143.523C55.6693 143.055 55.3564 142.587 55.3564 142.118C55.1999 141.65 55.1999 141.182 55.0435 140.87C55.0435 140.402 55.0435 140.089 55.0435 139.777V136.812C55.0435 135.095 55.5129 134.003 56.4517 133.534C57.3905 133.066 58.4858 133.222 60.0505 134.003C61.6152 134.939 62.8669 136.032 63.6493 137.592C64.4316 139.153 64.901 140.87 64.901 142.743V144.615C64.901 145.552 64.7445 146.332 64.5881 147.113C64.2751 147.737 63.9622 148.205 63.1798 148.205C63.6493 148.673 63.9622 149.298 64.1187 149.766C64.2751 150.234 64.5881 150.702 64.5881 151.327C64.7445 151.795 64.7445 152.419 64.7445 152.887C64.7445 153.512 64.7445 153.98 64.7445 154.604V156.789C64.7445 157.882 64.5881 158.662 64.4316 159.286C64.1187 159.91 63.8057 160.379 63.3363 160.535C62.8669 160.847 62.3975 160.847 61.7716 160.691C61.1458 160.535 60.5199 160.379 59.894 159.91C59.1117 159.442 58.3293 158.818 57.7034 158.194C57.0775 157.569 56.6081 156.789 56.1387 156.009C55.6693 155.228 55.5129 154.448 55.1999 153.512C55.3564 153.199 55.1999 152.263 55.1999 151.327ZM58.6422 142.587C58.6422 143.055 58.7987 143.523 59.1117 143.991C59.4246 144.459 59.7375 144.772 60.2069 145.084C60.6763 145.396 60.9893 145.396 61.3022 145.24C61.6152 145.084 61.7716 144.772 61.7716 144.303V140.714C61.7716 140.245 61.6152 139.621 61.4587 139.153C61.3022 138.685 60.8328 138.217 60.3634 137.904C60.0505 137.748 59.5811 137.592 59.2681 137.748C58.9552 137.904 58.7987 138.217 58.7987 138.685V142.587H58.6422ZM58.6422 154.136C58.6422 154.604 58.7987 155.072 59.1117 155.54C59.4246 156.009 59.7375 156.321 60.2069 156.633C60.6763 156.945 60.9893 156.945 61.3022 156.789C61.6152 156.633 61.7716 156.321 61.7716 155.853V151.014C61.7716 150.546 61.6152 149.922 61.4587 149.454C61.3022 148.985 60.8328 148.517 60.3634 148.205C59.7375 147.893 59.4246 147.893 59.2681 148.205C59.1116 148.517 58.9552 148.829 58.9552 149.454V154.136H58.6422Z" fill="#2B2BA3"/>
<path d="M68.187 158.818V156.945C68.187 156.321 68.187 155.852 68.187 155.228C68.187 154.76 68.3434 154.136 68.3434 153.823C68.4999 153.355 68.6564 153.043 68.8128 152.731C69.1258 152.419 69.4387 152.263 69.7516 152.263C69.4387 151.951 69.1258 151.482 68.8128 151.014C68.6564 150.546 68.3434 150.078 68.3434 149.609C68.1869 149.141 68.1869 148.673 68.0305 148.361C67.874 148.049 68.0305 147.581 68.0305 147.268V144.459C68.0305 142.742 68.4999 141.65 69.4387 141.182C70.3775 140.713 71.4728 140.869 73.0375 141.65C74.6022 142.586 75.8539 143.679 76.6363 145.239C77.4186 146.8 77.888 148.517 77.888 150.39V152.263C77.888 153.199 77.7316 153.979 77.5751 154.76C77.2622 155.384 76.9492 155.852 76.1669 155.852C76.6363 156.321 76.9492 156.945 77.1057 157.413C77.2622 157.881 77.5751 158.349 77.5751 158.974C77.7316 159.442 77.7316 160.066 77.7316 160.534C77.7316 161.159 77.7316 161.627 77.7316 162.251V164.436C77.7316 165.529 77.5751 166.309 77.4186 166.933C77.1057 167.558 76.7928 168.026 76.3233 168.182C75.8539 168.494 75.3845 168.494 74.7587 168.338C74.1328 168.182 73.5069 168.026 72.881 167.558C72.0987 167.089 71.3163 166.465 70.6905 165.841C70.0646 165.217 69.5952 164.436 69.1258 163.656C68.6564 162.876 68.4999 162.095 68.187 161.159C68.3434 160.534 68.187 159.754 68.187 158.818ZM71.6293 150.078C71.6293 150.546 71.7857 151.014 72.0987 151.482C72.4116 151.951 72.7246 152.263 73.194 152.575C73.6634 152.887 73.9763 152.887 74.2892 152.731C74.6022 152.575 74.7587 152.263 74.7587 151.794V148.205C74.7587 147.737 74.6022 147.112 74.4457 146.644C74.2893 146.176 73.8198 145.708 73.3504 145.396C73.0375 145.239 72.5681 145.083 72.2551 145.239C71.9422 145.396 71.7857 145.708 71.7857 146.176V150.078H71.6293ZM71.6293 161.471C71.6293 161.939 71.7857 162.407 72.0987 162.876C72.4116 163.344 72.7246 163.656 73.194 163.968C73.6634 164.28 73.9763 164.28 74.2892 164.124C74.6022 163.968 74.7587 163.656 74.7587 163.188V158.349C74.7587 157.881 74.6022 157.257 74.4457 156.789C74.2893 156.321 73.8198 155.852 73.3504 155.54C72.7245 155.228 72.4116 155.228 72.2551 155.54C72.0987 155.852 71.9422 156.164 71.9422 156.789V161.471H71.6293Z" fill="#2B2BA3"/>
<path d="M109.025 169.743V165.373L112.311 164.281L115.597 166.154V191.905L112.155 189.876V168.651L109.025 169.743Z" fill="#2B2BA3"/>
<path d="M120.291 175.673C120.291 173.488 120.761 172.084 121.7 171.303C122.639 170.679 123.89 170.679 125.455 171.615C127.176 172.552 128.428 173.956 129.21 175.517C129.993 177.078 130.306 178.795 130.306 180.511C130.306 181.604 130.149 182.54 129.993 183.321C129.836 184.101 129.367 184.881 129.054 185.662L124.516 193.309L130.149 196.587V200.333L120.604 194.87V191.28C121.543 189.72 122.482 188.159 123.421 186.598C124.36 185.038 125.299 183.477 126.237 181.916C126.55 181.448 126.707 180.98 126.863 180.355C126.863 179.731 127.02 179.107 127.02 178.483C127.02 178.326 127.02 178.014 127.02 177.702C127.02 177.39 126.863 177.078 126.863 176.766C126.707 176.454 126.55 176.141 126.394 175.985C126.237 175.829 125.924 175.517 125.611 175.361C125.142 175.049 124.673 175.205 124.36 175.517C124.047 175.829 123.89 176.766 123.89 178.014L120.291 175.673Z" fill="#2B2BA3"/>
<path d="M132.496 197.992V194.559L137.19 178.796L140.632 180.825L135.938 196.276L139.067 197.992V192.218L142.51 194.247V200.021L143.918 200.802V204.547L142.51 203.767V207.513L139.067 205.484V201.738L132.496 197.992Z" fill="#2B2BA3"/>
<path d="M145.483 205.484V202.05L150.177 186.287L153.619 188.316L148.925 203.767L152.055 205.484V199.709L155.497 201.738V207.513L156.905 208.293V212.039L155.497 211.259V215.004L152.055 212.975V209.23L145.483 205.484Z" fill="#2B2BA3"/>
<path d="M184.756 228.114V224.681L189.45 208.917L192.893 210.946L188.199 226.397L191.328 228.114V222.34L194.77 224.369V230.143L196.179 230.924V234.669L194.77 233.889V237.635L191.328 235.606V231.86L184.756 228.114Z" fill="#2B2BA3"/>
<path d="M198.213 233.264L201.655 234.825C201.499 235.917 201.655 236.854 201.968 237.634C202.281 238.258 202.75 238.726 203.22 239.039C203.533 239.195 204.002 239.351 204.315 239.195C204.628 239.039 204.785 238.57 204.785 237.79V234.356C204.785 233.42 204.628 232.796 204.315 232.171C204.002 231.547 203.533 231.079 202.907 230.767L201.968 230.142V226.709L203.063 227.333C203.689 227.645 204.159 227.801 204.472 227.645C204.785 227.489 204.941 227.021 204.941 226.241V223.431C204.941 222.963 204.785 222.339 204.628 221.871C204.472 221.246 204.002 220.934 203.533 220.622C203.063 220.31 202.594 220.31 202.281 220.622C201.968 220.934 201.812 221.715 201.812 222.963L198.369 220.466C198.369 218.437 198.839 217.189 199.778 216.564C200.716 215.94 201.968 216.096 203.533 217.032C204.472 217.501 205.098 218.125 205.723 218.749C206.349 219.374 206.819 220.154 207.132 220.778C207.445 221.559 207.757 222.339 207.914 222.963C208.07 223.587 208.227 224.524 208.227 225.148V227.177C208.227 227.645 208.227 228.114 208.227 228.582C208.227 229.05 208.07 229.518 208.07 229.83C207.914 230.142 207.758 230.455 207.601 230.611C207.288 230.767 206.975 230.923 206.662 230.923V231.079C207.445 231.859 207.914 232.796 208.07 233.576C208.227 234.512 208.383 235.293 208.383 236.229V239.195C208.383 241.224 207.914 242.472 206.975 243.096C206.036 243.565 204.785 243.409 203.22 242.472C201.342 241.38 200.091 240.131 199.308 238.57C198.526 237.01 198.213 235.293 198.213 233.264Z" fill="#2B2BA3"/>
<path d="M210.73 242.941V239.507L215.425 223.744L218.867 225.773L214.173 241.224L217.302 242.941V237.166L220.745 239.195V244.97L222.153 245.75V249.496L220.745 248.716V252.461L217.302 250.432V246.687L210.73 242.941Z" fill="#2B2BA3"/>
<path d="M224.656 248.715L228.099 250.119V250.587C228.099 251.524 228.255 252.304 228.412 252.772C228.724 253.397 229.037 253.709 229.663 254.021C229.976 254.177 230.446 254.333 230.602 254.177C230.915 254.021 231.072 253.553 231.072 252.772V246.686C231.072 245.593 230.602 244.813 229.663 244.345C229.35 244.188 229.037 244.032 228.724 244.032C228.412 244.032 228.255 244.345 227.942 244.657L224.813 242.784V229.05L234.357 234.512V238.258L228.412 234.98V241.067C228.724 240.755 229.037 240.599 229.507 240.755C229.976 240.911 230.289 240.911 230.759 241.223C232.167 242.003 233.106 243.096 233.731 244.188C234.357 245.437 234.67 246.686 234.67 248.09V253.553C234.67 256.05 234.201 257.611 233.419 258.235C232.636 258.859 231.384 258.703 229.663 257.767C227.942 256.83 226.69 255.426 225.908 253.865C224.969 252.46 224.656 250.587 224.656 248.715Z" fill="#2B2BA3"/>
<path d="M263.773 261.825V257.299C263.773 256.519 263.93 255.738 264.086 255.114C264.243 254.49 264.556 254.022 265.025 253.71C265.495 253.397 265.964 253.241 266.59 253.397C267.216 253.397 267.998 253.71 268.78 254.178C270.345 255.114 271.597 256.207 272.379 257.767C273.162 259.172 273.631 260.733 273.631 262.293V265.571C273.631 267.444 273.475 269.005 273.005 270.253L268.937 280.242L265.338 278.213L268.937 269.317L268.78 269.161C268.467 269.317 267.998 269.161 267.372 268.848C266.277 268.224 265.495 267.444 264.869 266.351C264.086 265.103 263.773 263.542 263.773 261.825ZM267.216 263.854C267.216 264.322 267.372 264.791 267.685 265.259C267.998 265.727 268.311 266.039 268.78 266.351C269.25 266.663 269.563 266.663 269.876 266.351C270.189 266.039 270.189 265.727 270.189 265.259V260.265C270.189 259.796 270.032 259.328 269.719 258.86C269.406 258.392 269.093 258.08 268.624 257.923C268.155 257.611 267.842 257.611 267.529 257.767C267.216 257.923 267.059 258.08 267.059 258.704V263.854H267.216Z" fill="#2B2BA3"/>
<path d="M275.821 280.553V277.12L280.515 261.356L283.958 263.385L279.264 278.836L282.393 280.553V274.779L285.835 276.808V282.582L287.244 283.363V287.108L285.835 286.328V290.074L282.393 288.045V284.299L275.821 280.553Z" fill="#2B2BA3"/>
<path d="M289.748 286.172L293.19 287.576V288.044C293.19 288.981 293.346 289.761 293.503 290.229C293.816 290.854 294.129 291.166 294.755 291.478C295.067 291.634 295.537 291.79 295.693 291.634C296.006 291.478 296.163 291.01 296.163 290.229V284.143C296.163 283.05 295.693 282.27 294.755 281.802C294.442 281.646 294.129 281.489 293.816 281.489C293.503 281.489 293.346 281.802 293.033 282.114L289.904 280.241V266.507L299.449 271.969V275.715L293.346 272.125V278.212C293.659 277.9 293.972 277.744 294.442 277.9C294.911 277.9 295.224 278.056 295.693 278.368C297.102 279.148 298.04 280.241 298.666 281.333C299.292 282.582 299.605 283.831 299.605 285.235V290.698C299.605 293.195 299.136 294.756 298.353 295.38C297.571 296.004 296.319 295.848 294.598 294.912C292.877 293.975 291.625 292.571 290.843 291.01C290.217 289.917 289.748 288.201 289.748 286.172Z" fill="#2B2BA3"/>
<path d="M302.734 293.664L306.177 295.069V295.537C306.177 296.473 306.333 297.254 306.49 297.722C306.803 298.346 307.116 298.658 307.741 298.97C308.054 299.127 308.524 299.283 308.68 299.127C308.993 298.97 309.15 298.502 309.15 297.722V291.635C309.15 290.543 308.68 289.762 307.741 289.294C307.428 289.138 307.116 288.982 306.803 288.982C306.49 288.982 306.333 289.294 306.02 289.606L302.891 287.733V273.999L312.435 279.462V283.207L306.333 279.618V285.704C306.646 285.392 306.959 285.236 307.428 285.392C307.898 285.548 308.211 285.548 308.68 285.86C310.088 286.641 311.027 287.733 311.653 288.826C312.279 290.074 312.592 291.323 312.592 292.728V298.19C312.592 300.687 312.123 302.248 311.34 302.872C310.558 303.497 309.306 303.34 307.585 302.404C305.864 301.468 304.612 300.063 303.83 298.502C303.204 297.41 302.734 295.693 302.734 293.664Z" fill="#2B2BA3"/>
<path d="M30.6342 137.281V135.408C30.6342 134.783 30.6342 134.315 30.6342 133.691C30.6342 133.223 30.7907 132.598 30.7907 132.286C30.9471 131.818 31.1036 131.506 31.2601 131.194C31.573 130.882 31.886 130.726 32.1989 130.726C31.886 130.413 31.573 129.945 31.2601 129.477C31.1036 129.009 30.7907 128.541 30.7907 128.072C30.6342 127.604 30.6342 127.136 30.4777 126.824C30.3213 126.512 30.4777 126.043 30.4777 125.731V122.766C30.4777 121.049 30.9471 119.957 31.886 119.488C32.8248 119.02 33.9201 119.176 35.4848 119.957C37.0494 120.893 38.3012 121.986 39.0835 123.546C39.8659 125.107 40.3353 126.824 40.3353 128.697V130.57C40.3353 131.506 40.1788 132.286 40.0224 133.067C39.7094 133.691 39.3965 134.159 38.6141 134.159C39.0835 134.627 39.3965 135.252 39.553 135.72C39.7094 136.188 40.0224 136.656 40.0224 137.281C40.1788 137.749 40.1788 138.373 40.1788 138.841C40.1788 139.466 40.1788 139.934 40.1788 140.558V142.743C40.1788 143.836 40.0224 144.616 39.8659 145.24C39.553 145.865 39.24 146.333 38.7706 146.489C38.3012 146.801 37.8318 146.801 37.2059 146.645C36.58 146.489 35.9542 146.333 35.3283 145.865C34.546 145.396 33.7636 144.772 33.1377 144.148C32.5118 143.523 32.0424 142.743 31.573 141.963C31.1036 141.182 30.9472 140.402 30.6342 139.466C30.6342 138.997 30.6342 138.217 30.6342 137.281ZM34.0765 128.541C34.0765 129.009 34.233 129.477 34.546 129.945C34.8589 130.413 35.1718 130.726 35.6412 131.038C36.1106 131.35 36.4236 131.35 36.7365 131.194C37.0494 131.038 37.2059 130.726 37.2059 130.257V126.668C37.2059 126.2 37.0495 125.575 36.893 125.107C36.7365 124.639 36.2671 124.171 35.7977 123.858C35.4847 123.702 35.0153 123.546 34.7024 123.702C34.3895 123.858 34.233 124.171 34.233 124.639V128.541H34.0765ZM34.0765 139.934C34.0765 140.402 34.233 140.87 34.546 141.338C34.8589 141.807 35.1718 142.119 35.6412 142.431C36.1106 142.743 36.4236 142.743 36.7365 142.587C37.0494 142.431 37.2059 142.119 37.2059 141.651V136.812C37.2059 136.344 37.0495 135.72 36.893 135.252C36.7365 134.783 36.2671 134.315 35.7977 134.003C35.1718 133.691 34.8589 133.691 34.7024 134.003C34.5459 134.315 34.3895 134.627 34.3895 135.252V139.934H34.0765Z" fill="white"/>
<path d="M43.6211 145.395V130.1C43.6211 129.164 43.7776 128.54 43.934 128.072C44.247 127.603 44.5599 127.135 45.0293 126.979C45.4987 126.823 45.9681 126.667 46.594 126.823C47.2199 126.979 47.8458 127.135 48.4716 127.603C49.8799 128.384 51.1316 129.632 51.914 131.037C52.8528 132.442 53.3222 134.158 53.3222 135.875V151.17C53.3222 152.107 53.1657 152.731 53.0092 153.199C52.6963 153.667 52.3834 154.135 51.914 154.292C51.4445 154.448 50.9751 154.604 50.3493 154.448C49.7234 154.292 49.0975 154.135 48.4716 153.667C47.8458 153.199 47.0634 152.731 46.594 152.263C45.9681 151.638 45.4987 151.014 45.0293 150.39C44.5599 149.609 44.247 148.829 43.934 148.049C43.7776 147.112 43.6211 146.332 43.6211 145.395ZM47.0634 147.58C47.0634 148.049 47.2199 148.517 47.5328 148.985C47.8458 149.453 48.1587 149.765 48.6281 150.078C49.0975 150.234 49.4104 150.39 49.5669 150.234C49.8799 150.078 50.0363 149.765 50.0363 149.297V133.846C50.0363 133.378 49.8799 132.91 49.5669 132.442C49.254 131.973 48.9411 131.661 48.6281 131.505C48.1587 131.193 47.8458 131.193 47.5328 131.349C47.2199 131.505 47.0634 131.817 47.0634 132.285V147.58Z" fill="white"/>
<path d="M56.6081 152.263V150.39C56.6081 149.766 56.6081 149.298 56.6081 148.673C56.6081 148.205 56.7646 147.581 56.7646 147.269C56.9211 146.801 57.0775 146.488 57.234 146.176C57.547 145.864 57.8599 145.708 58.1728 145.708C57.8599 145.396 57.547 144.928 57.234 144.459C57.0775 143.991 56.7646 143.523 56.7646 143.055C56.6081 142.587 56.6081 142.118 56.4517 141.806C56.4517 141.338 56.4517 141.026 56.4517 140.714V137.748C56.4517 136.032 56.9211 134.939 57.8599 134.471C58.7987 134.003 59.894 134.159 61.4587 134.939C63.0234 135.876 64.2751 136.968 65.0575 138.529C65.8398 140.089 66.3092 141.806 66.3092 143.679V145.552C66.3092 146.488 66.1527 147.269 65.9963 148.049C65.6833 148.673 65.3704 149.142 64.5881 149.142C65.0575 149.61 65.3704 150.234 65.5269 150.702C65.6833 151.171 65.9963 151.639 65.9963 152.263C66.1527 152.731 66.1528 153.356 66.1528 153.824C66.1528 154.448 66.1528 154.916 66.1528 155.541V157.726C66.1528 158.818 65.9963 159.598 65.8398 160.223C65.5269 160.847 65.2139 161.315 64.7445 161.471C64.2751 161.783 63.8057 161.783 63.1798 161.627C62.5539 161.471 61.9281 161.315 61.3022 160.847C60.5199 160.379 59.7375 159.754 59.1116 159.13C58.4858 158.506 58.0164 157.726 57.5469 156.945C57.0775 156.165 56.9211 155.384 56.6081 154.448C56.6081 153.98 56.6081 153.199 56.6081 152.263ZM60.0504 143.523C60.0504 143.991 60.2069 144.459 60.5199 144.928C60.8328 145.396 61.1457 145.708 61.6151 146.02C62.0845 146.332 62.3975 146.332 62.7104 146.176C63.0234 146.02 63.1798 145.708 63.1798 145.24V141.65C63.1798 141.182 63.0234 140.558 62.8669 140.089C62.7104 139.621 62.241 139.153 61.7716 138.841C61.4587 138.685 60.9893 138.529 60.6763 138.685C60.3634 138.841 60.2069 139.153 60.2069 139.621V143.523H60.0504ZM60.0504 154.916C60.0504 155.384 60.2069 155.853 60.5199 156.321C60.8328 156.789 61.1457 157.101 61.6151 157.413C62.0845 157.726 62.3975 157.726 62.7104 157.569C63.0234 157.413 63.1798 157.101 63.1798 156.633V151.795C63.1798 151.327 63.0234 150.702 62.8669 150.234C62.7104 149.766 62.241 149.298 61.7716 148.986C61.1457 148.673 60.8328 148.673 60.6763 148.986C60.5199 149.298 60.3634 149.61 60.3634 150.234V154.916H60.0504Z" fill="white"/>
<path d="M69.5949 159.754V157.882C69.5949 157.257 69.5949 156.789 69.5949 156.165C69.5949 155.697 69.7514 155.072 69.7514 154.76C69.9079 154.292 70.0643 153.98 70.2208 153.668C70.5338 153.356 70.8467 153.199 71.1596 153.199C70.8467 152.887 70.5338 152.419 70.2208 151.951C70.0643 151.483 69.7514 151.014 69.7514 150.546C69.595 150.078 69.5949 149.61 69.4385 149.298C69.4385 148.829 69.4385 148.517 69.4385 148.205V145.24C69.4385 143.523 69.9079 142.431 70.8467 141.962C71.7855 141.494 72.8808 141.65 74.4455 142.431C76.0102 143.367 77.2619 144.459 78.0443 146.02C78.8266 147.581 79.296 149.298 79.296 151.171V153.043C79.296 153.98 79.1396 154.76 78.9831 155.541C78.6702 156.165 78.3572 156.633 77.5749 156.633C78.0443 157.101 78.3572 157.726 78.5137 158.194C78.6702 158.662 78.9831 159.13 78.9831 159.754C79.1396 160.223 79.1396 160.847 79.1396 161.315C79.1396 161.939 79.1396 162.408 79.1396 163.032V165.217C79.1396 166.309 78.9831 167.09 78.8266 167.714C78.5137 168.338 78.2007 168.807 77.7313 168.963C77.2619 169.275 76.7925 169.275 76.1666 169.119C75.5408 168.963 74.9149 168.807 74.289 168.338C73.5067 167.87 72.7243 167.246 72.0985 166.622C71.4726 165.997 71.0032 165.217 70.5338 164.437C70.0644 163.656 69.9079 162.876 69.5949 161.939C69.5949 161.471 69.5949 160.691 69.5949 159.754ZM73.0373 151.014C73.0373 151.483 73.1937 151.951 73.5067 152.419C73.8196 152.887 74.1325 153.199 74.602 153.512C75.0714 153.824 75.3843 153.824 75.6972 153.668C76.0102 153.512 76.1666 153.199 76.1666 152.731V149.142C76.1666 148.673 76.0102 148.049 75.8537 147.581C75.6972 147.113 75.2278 146.644 74.7584 146.332C74.4455 146.176 73.9761 146.02 73.6632 146.176C73.3502 146.332 73.1937 146.644 73.1937 147.113V151.014H73.0373ZM73.0373 162.408C73.0373 162.876 73.1937 163.344 73.5067 163.812C73.8196 164.281 74.1325 164.593 74.602 164.905C75.0714 165.217 75.3843 165.217 75.6972 165.061C76.0102 164.905 76.1666 164.593 76.1666 164.124V159.286C76.1666 158.818 76.0102 158.194 75.8537 157.726C75.6972 157.257 75.2278 156.789 74.7584 156.477C74.1326 156.165 73.8196 156.165 73.6632 156.477C73.5067 156.789 73.3502 157.101 73.3502 157.726V162.408H73.0373Z" fill="white"/>
<path d="M110.434 170.679V166.309L113.719 165.216L117.005 167.089V192.841L113.563 190.812V169.586L110.434 170.679Z" fill="white"/>
<path d="M121.543 176.61C121.543 174.425 122.012 173.02 122.951 172.24C123.89 171.616 125.142 171.616 126.706 172.552C128.428 173.489 129.679 174.893 130.462 176.454C131.244 178.015 131.557 179.731 131.557 181.448C131.557 182.541 131.401 183.477 131.244 184.258C131.088 185.038 130.618 185.818 130.305 186.599L125.768 194.246L131.401 197.524V201.269L121.856 195.807V192.373C122.795 190.813 123.734 189.252 124.672 187.691C125.611 186.13 126.55 184.57 127.489 183.009C127.802 182.541 127.958 182.073 128.115 181.448C128.115 180.824 128.271 180.2 128.271 179.575C128.271 179.419 128.271 179.107 128.271 178.795C128.271 178.483 128.115 178.171 128.115 177.859C127.958 177.546 127.802 177.234 127.645 177.078C127.489 176.922 127.176 176.61 126.863 176.454C126.394 176.142 125.924 176.298 125.611 176.61C125.298 176.922 125.142 177.859 125.142 179.107L121.543 176.61Z" fill="white"/>
<path d="M133.904 198.928V195.494L138.598 179.731L142.04 181.76L137.346 197.211L140.475 198.928V193.153L143.918 195.182V200.957L145.326 201.737V205.483L143.918 204.703V208.448L140.475 206.419V202.674L133.904 198.928Z" fill="white"/>
<path d="M146.891 206.419V202.986L151.585 187.223L155.027 189.252L150.333 204.703L153.462 206.419V200.645L156.905 202.674V208.448L158.313 209.229V212.974L156.905 212.194V215.94L153.462 213.911V210.165L146.891 206.419Z" fill="white"/>
<path d="M186.165 228.893V225.46L190.859 209.697L194.301 211.725L189.607 227.177L192.736 228.893V223.119L196.179 225.148V230.922L197.587 231.703V235.448L196.179 234.668V238.414L192.736 236.385V232.639L186.165 228.893Z" fill="white"/>
<path d="M199.621 234.2L203.063 235.761C202.907 236.854 203.063 237.79 203.376 238.57C203.689 239.195 204.158 239.663 204.628 239.975C204.941 240.131 205.41 240.287 205.723 240.131C206.036 239.975 206.192 239.507 206.192 238.726V235.293C206.192 234.357 206.036 233.732 205.723 233.108C205.41 232.484 204.941 232.015 204.315 231.703L203.376 231.079V227.645L204.471 228.27C205.097 228.582 205.567 228.738 205.88 228.582C206.193 228.426 206.349 227.958 206.349 227.177V224.368C206.349 223.9 206.193 223.275 206.036 222.807C205.88 222.183 205.41 221.871 204.941 221.559C204.471 221.246 204.002 221.246 203.689 221.559C203.376 221.871 203.22 222.651 203.22 223.9L199.777 221.403C199.777 219.374 200.247 218.125 201.186 217.501C202.124 216.877 203.376 217.033 204.941 217.969C205.88 218.437 206.505 219.062 207.131 219.686C207.757 220.31 208.227 221.09 208.54 221.715C208.852 222.495 209.165 223.275 209.322 223.9C209.478 224.68 209.635 225.46 209.635 226.085V228.114C209.635 228.582 209.635 229.05 209.635 229.518C209.635 229.987 209.478 230.455 209.478 230.767C209.322 231.079 209.165 231.391 209.009 231.547C208.696 231.703 208.383 231.859 208.07 231.859V232.015C208.852 232.796 209.322 233.732 209.478 234.513C209.635 235.449 209.791 236.229 209.791 237.166V240.131C209.791 242.16 209.322 243.409 208.383 244.033C207.444 244.501 206.192 244.345 204.628 243.409C202.75 242.316 201.498 241.068 200.716 239.507C199.934 237.946 199.464 236.229 199.621 234.2Z" fill="white"/>
<path d="M211.982 243.876V240.443L216.676 224.68L220.119 226.709L215.425 242.16L218.554 243.876V238.102L221.996 240.131V245.905L223.405 246.686V250.431L221.996 249.651V253.397L218.554 251.368V247.622L211.982 243.876Z" fill="white"/>
<path d="M225.908 249.652L229.35 251.056V251.524C229.35 252.461 229.506 253.241 229.663 253.709C229.976 254.334 230.289 254.646 230.915 254.958C231.228 255.114 231.697 255.27 231.854 255.114C232.166 254.958 232.323 254.49 232.323 253.709V247.623C232.323 246.53 231.854 245.75 230.915 245.282C230.602 245.126 230.289 244.969 229.976 244.969C229.663 244.969 229.507 245.282 229.194 245.594L226.064 243.721V229.987L235.609 235.449V239.195L229.507 235.605V241.692C229.819 241.38 230.132 241.224 230.602 241.38C231.071 241.38 231.384 241.536 231.854 241.848C233.262 242.628 234.201 243.721 234.826 244.813C235.452 246.062 235.765 247.311 235.765 248.715V254.178C235.765 256.675 235.296 258.236 234.514 258.86C233.731 259.484 232.479 259.328 230.758 258.392C229.037 257.455 227.785 256.05 227.003 254.49C226.377 253.397 225.908 251.524 225.908 249.652Z" fill="white"/>
<path d="M265.182 262.605V258.079C265.182 257.299 265.338 256.518 265.495 255.894C265.651 255.27 265.964 254.801 266.433 254.489C266.903 254.177 267.372 254.021 267.998 254.177C268.624 254.177 269.406 254.489 270.189 254.958C271.753 255.894 273.005 256.986 273.787 258.547C274.57 259.952 275.039 261.513 275.039 263.073V266.351C275.039 268.224 274.883 269.784 274.413 271.033L270.345 281.021L266.746 278.993L270.345 270.096L270.189 269.94C269.876 270.096 269.406 269.94 268.78 269.628C267.685 269.004 266.903 268.224 266.277 267.131C265.495 265.883 265.182 264.478 265.182 262.605ZM268.624 264.79C268.624 265.258 268.78 265.726 269.093 266.195C269.406 266.663 269.719 266.975 270.189 267.287C270.658 267.599 270.971 267.599 271.284 267.287C271.597 266.975 271.597 266.663 271.597 266.195V261.2C271.597 260.732 271.44 260.264 271.127 259.796C270.815 259.328 270.502 259.015 270.032 258.859C269.563 258.547 269.25 258.547 268.937 258.703C268.624 258.859 268.468 259.015 268.468 259.64V264.79H268.624Z" fill="white"/>
<path d="M277.23 281.491V278.057L281.924 262.294L285.366 264.323L280.672 279.774L283.802 281.491V275.716L287.244 277.745V283.52L288.652 284.3V288.046L287.244 287.265V291.011L283.802 288.982V285.236L277.23 281.491Z" fill="white"/>
<path d="M291.155 287.108L294.598 288.513V288.981C294.598 289.918 294.754 290.698 294.911 291.166C295.223 291.791 295.536 292.103 296.162 292.415C296.475 292.571 296.945 292.727 297.101 292.571C297.414 292.415 297.571 291.947 297.571 291.166V285.08C297.571 283.987 297.101 283.207 296.162 282.738C295.849 282.582 295.536 282.426 295.223 282.426C294.911 282.426 294.754 282.738 294.441 283.051L291.312 281.178V267.756L300.856 273.218V276.964L294.754 273.374V279.461C295.067 279.149 295.38 278.993 295.849 279.149C296.319 279.305 296.632 279.305 297.101 279.617C298.509 280.397 299.448 281.49 300.074 282.582C300.7 283.831 301.013 285.08 301.013 286.484V291.947C301.013 294.444 300.543 296.005 299.761 296.629C298.979 297.253 297.727 297.097 296.006 296.161C294.285 295.224 293.033 293.82 292.251 292.259C291.625 290.854 291.155 289.137 291.155 287.108Z" fill="white"/>
<path d="M304.143 294.6L307.585 296.004V296.473C307.585 297.409 307.741 298.189 307.898 298.658C308.211 299.282 308.524 299.594 309.15 299.906C309.463 300.062 309.932 300.218 310.088 300.062C310.401 299.906 310.558 299.438 310.558 298.658V292.727C310.558 291.634 310.088 290.854 309.15 290.386C308.837 290.23 308.524 290.074 308.211 290.074C307.898 290.074 307.741 290.386 307.428 290.698L304.299 288.825V275.091L313.844 280.553V284.299L307.741 280.709V286.796C308.054 286.484 308.367 286.328 308.837 286.484C309.306 286.64 309.619 286.64 310.088 286.952C311.497 287.733 312.435 288.825 313.061 289.918C313.687 291.166 314 292.415 314 293.819V299.282C314 301.779 313.531 303.34 312.748 303.964C311.966 304.588 310.714 304.432 308.993 303.496C307.272 302.559 306.02 301.155 305.238 299.594C304.612 298.345 304.143 296.629 304.143 294.6Z" fill="white"/>
<path d="M167.947 266.064V256.984C167.947 256.465 168.077 256.076 168.207 255.687C168.337 255.427 168.597 255.168 168.856 255.038C169.116 254.908 169.376 254.908 169.765 254.908C170.155 254.908 170.545 255.168 170.934 255.298C171.843 255.816 172.493 256.465 173.012 257.373C173.531 258.281 173.791 259.189 173.791 260.227V269.307C173.791 269.826 173.661 270.215 173.531 270.604C173.402 270.863 173.142 271.123 172.882 271.253C172.622 271.382 172.363 271.382 171.973 271.382C171.583 271.382 171.194 271.123 170.804 270.993C170.415 270.734 170.025 270.474 169.636 270.085C169.246 269.696 168.986 269.307 168.726 268.918C168.467 268.529 168.207 268.01 168.077 267.491C168.077 267.102 167.947 266.583 167.947 266.064ZM170.025 267.361C170.025 267.621 170.155 267.88 170.285 268.139C170.415 268.399 170.674 268.658 170.934 268.788C171.194 268.918 171.324 268.918 171.583 268.918C171.713 268.788 171.843 268.658 171.843 268.399V259.189C171.843 258.93 171.713 258.67 171.583 258.411C171.454 258.151 171.194 257.892 170.934 257.762C170.674 257.632 170.415 257.632 170.285 257.632C170.155 257.762 170.025 257.892 170.025 258.151V267.361Z" fill="white"/>
<path d="M175.609 270.215V269.177C175.609 268.788 175.609 268.528 175.609 268.139C175.609 267.75 175.739 267.491 175.739 267.231C175.869 266.972 175.869 266.712 175.999 266.583C176.129 266.453 176.389 266.323 176.518 266.323C176.259 266.064 176.129 265.804 175.999 265.545C175.869 265.286 175.739 265.026 175.739 264.767C175.609 264.507 175.609 264.248 175.609 263.988C175.609 263.729 175.609 263.599 175.609 263.34V261.524C175.609 260.486 175.869 259.838 176.389 259.578C176.908 259.319 177.557 259.319 178.466 259.838C179.375 260.356 180.155 261.135 180.544 262.043C180.934 262.951 181.323 263.988 181.323 265.156V266.323C181.323 266.842 181.194 267.361 181.064 267.75C180.934 268.139 180.674 268.399 180.285 268.399C180.544 268.658 180.674 269.047 180.804 269.307C180.934 269.566 181.064 269.955 181.064 270.215C181.194 270.474 181.194 270.863 181.194 271.123C181.194 271.512 181.194 271.771 181.194 272.16V273.458C181.194 274.106 181.064 274.625 180.934 275.014C180.804 275.403 180.544 275.663 180.285 275.793C180.025 275.922 179.765 276.052 179.375 275.922C178.986 275.922 178.596 275.663 178.207 275.533C177.687 275.274 177.298 274.884 176.908 274.495C176.518 274.106 176.259 273.717 175.999 273.198C175.739 272.679 175.609 272.29 175.479 271.771C175.739 271.252 175.609 270.734 175.609 270.215ZM177.687 264.896C177.687 265.156 177.817 265.415 177.947 265.675C178.077 265.934 178.337 266.194 178.596 266.323C178.856 266.453 179.116 266.453 179.246 266.453C179.375 266.323 179.505 266.194 179.505 265.934V263.729C179.505 263.47 179.375 263.08 179.246 262.821C179.116 262.562 178.856 262.302 178.596 262.172C178.337 262.043 178.207 262.043 177.947 262.043C177.817 262.172 177.687 262.302 177.687 262.562V264.896ZM177.687 271.771C177.687 272.031 177.817 272.29 177.947 272.55C178.077 272.809 178.337 273.068 178.596 273.198C178.856 273.328 179.116 273.328 179.246 273.328C179.375 273.198 179.505 273.069 179.505 272.809V269.955C179.505 269.696 179.505 269.307 179.375 269.047C179.246 268.788 178.986 268.528 178.726 268.269C178.466 268.01 178.207 268.01 178.077 268.269C177.947 268.399 177.947 268.658 177.947 269.047V271.771H177.687Z" fill="white"/>
<path d="M182.492 278.517L185.999 263.729L187.557 264.637L184.051 279.425L182.492 278.517Z" fill="white"/>
<path d="M188.596 269.696C188.596 268.399 188.855 267.491 189.375 267.101C189.894 266.712 190.674 266.712 191.583 267.231C192.622 267.88 193.401 268.658 193.79 269.566C194.18 270.474 194.44 271.512 194.44 272.549C194.44 273.198 194.44 273.847 194.31 274.236C194.18 274.755 193.92 275.144 193.66 275.533L190.933 280.073L194.31 282.019V284.224L188.596 280.981V278.905C189.115 277.997 189.764 277.089 190.284 276.181C190.803 275.273 191.453 274.365 191.972 273.457C192.102 273.198 192.232 272.809 192.362 272.549C192.362 272.16 192.492 271.771 192.492 271.382C192.492 271.252 192.492 271.123 192.492 270.993C192.492 270.863 192.492 270.604 192.362 270.474C192.362 270.344 192.232 270.085 192.102 269.955C191.972 269.825 191.842 269.696 191.583 269.566C191.323 269.436 191.063 269.436 190.933 269.696C190.803 269.955 190.674 270.344 190.674 271.252L188.596 269.696Z" fill="white"/>
<path d="M197.297 275.144V272.55L199.245 271.901L201.193 273.069V288.375L199.115 287.208V274.496L197.297 275.144Z" fill="white"/>
<path d="M30.9394 240.51C31.329 238.564 31.7186 236.748 31.9784 234.802C32.368 232.857 32.7576 231.041 33.0173 229.095L34.9653 230.133L37.173 244.012L35.4847 242.974L35.0951 240.121L33.0173 238.953C33.0173 239.342 32.8874 239.732 32.8874 240.121C32.8874 240.51 32.7576 240.899 32.7576 241.288L30.9394 240.51ZM33.277 237.397L34.8354 238.305L34.1861 232.597H34.0562C33.9264 233.376 33.7965 234.154 33.6666 235.062C33.5368 235.71 33.4069 236.489 33.277 237.397Z" fill="white"/>
<path d="M38.2119 244.66V232.078L39.7703 232.986L41.069 237.526C41.1988 237.915 41.3287 238.304 41.3287 238.564C41.3287 238.823 41.5884 239.342 41.7183 239.731L42.2377 241.807V234.413L43.926 235.321V247.903L42.3676 246.995L41.069 242.455C40.8092 241.677 40.6794 241.028 40.4196 240.25C40.1599 239.602 40.03 238.823 39.7703 238.045H39.6404V245.439L38.2119 244.66Z" fill="white"/>
<path d="M45.6143 248.942V236.36L48.3414 237.916C48.9908 238.305 49.5102 238.694 49.8998 239.213C50.2894 239.732 50.5491 240.251 50.679 241.029C50.8089 241.548 50.8089 242.197 50.8089 242.975C50.8089 243.753 50.8089 244.661 50.8089 245.699C50.8089 246.737 50.8089 247.645 50.8089 248.423C50.8089 249.201 50.679 249.72 50.5491 250.109C50.2894 250.758 50.0297 251.017 49.6401 251.017C49.2505 251.017 48.731 250.888 48.2116 250.499L45.6143 248.942ZM47.3025 248.034L48.0817 248.423C48.4713 248.683 48.731 248.683 48.9908 248.553C49.1206 248.423 49.2505 248.034 49.2505 247.515V241.548C49.2505 241.029 49.1206 240.64 48.9908 240.381C48.8609 239.992 48.6012 239.732 48.0817 239.473L47.3025 239.084V248.034Z" fill="white"/>
<path d="M52.3672 252.833V240.251L54.8346 241.678C55.7437 242.197 56.393 242.845 56.9125 243.753C57.4319 244.661 57.6917 245.699 57.6917 246.996C57.6917 247.774 57.5618 248.423 57.4319 248.812C57.1722 249.201 56.9125 249.461 56.393 249.461L57.9514 256.076L56.2631 255.038L54.8346 248.942L54.0554 248.423V253.612L52.3672 252.833ZM54.1853 246.737L54.8346 247.126C55.2242 247.385 55.6138 247.385 55.7437 247.256C55.8736 247.126 56.0034 246.607 56.0034 245.958C56.0034 245.44 55.8736 244.921 55.7437 244.402C55.484 244.013 55.2242 243.624 54.7048 243.364L54.0554 242.975V246.737H54.1853Z" fill="white"/>
<path d="M59.1201 256.724V244.142L63.9251 246.996V248.812L60.8084 246.996V250.498L63.5355 252.055V253.871L60.8084 252.314V255.946L63.9251 257.762V259.578L59.1201 256.724Z" fill="white"/>
<path d="M64.5747 247.256L66.263 248.293C66.3928 249.201 66.3928 249.98 66.5227 250.758C66.6526 251.536 66.6526 252.444 66.7824 253.223C66.7824 253.352 66.7824 253.612 66.9123 253.871C66.9123 254.26 67.0422 254.52 67.0422 254.909C67.0422 255.298 67.172 255.687 67.172 255.947C67.172 256.206 67.172 256.465 67.3019 256.595H67.4318C67.5616 256.206 67.5616 255.687 67.5616 255.298C67.5616 254.909 67.6915 254.39 67.6915 254.001L68.3408 249.201L69.7693 249.98L70.6784 255.687C70.8083 256.206 70.8082 256.725 70.9381 257.244C71.068 257.763 71.068 258.281 71.1978 258.8L71.4576 256.076L71.8472 251.017L73.5354 252.055L72.1069 263.859L70.4187 262.821L69.6395 256.855C69.6395 256.465 69.5096 256.076 69.5096 255.687C69.5096 255.298 69.3797 254.909 69.3797 254.52H69.2499L68.8603 256.465C68.7304 257.244 68.4707 258.022 68.3408 258.93C68.2109 259.708 67.9512 260.487 67.8214 261.395L66.1331 260.357L64.5747 247.256Z" fill="white"/>
<path d="M77.9507 267.62V255.038L79.5091 255.946L80.8077 260.486C80.9376 260.875 81.0674 261.264 81.0674 261.524C81.1973 261.913 81.3272 262.302 81.4571 262.691L81.9765 264.766V257.373L83.6647 258.281V270.863L82.1064 269.955L80.8077 265.415C80.548 264.637 80.4181 263.988 80.1584 263.21C79.8987 262.561 79.7688 261.783 79.5091 261.005H79.3792V268.398L77.9507 267.62Z" fill="white"/>
<path d="M85.353 271.772V259.189L90.158 262.043V263.859L87.0413 262.043V265.545L89.7685 267.102V268.918L87.0413 267.361V270.994L90.158 272.81V274.626L85.353 271.772Z" fill="white"/>
<path d="M91.0674 272.16L92.7556 272.809C92.7556 273.328 92.8855 273.717 93.0153 274.106C93.1452 274.495 93.405 274.755 93.7945 275.014C94.0543 275.144 94.1841 275.144 94.314 275.144C94.4439 275.144 94.5737 275.014 94.5737 274.884C94.5737 274.755 94.7036 274.625 94.7036 274.365C94.7036 274.106 94.7036 273.976 94.7036 273.717C94.7036 273.457 94.7036 273.198 94.7036 272.939C94.7036 272.679 94.5737 272.549 94.5737 272.29C94.4439 272.031 94.314 271.901 94.1841 271.641C94.0543 271.382 93.7945 271.252 93.5348 270.863C93.0153 270.344 92.6257 269.825 92.2361 269.306C91.9764 268.917 91.7167 268.398 91.4569 268.009C91.3271 267.62 91.1972 267.231 91.0674 266.842C91.0674 266.453 90.9375 266.064 90.9375 265.674C90.9375 265.156 90.9375 264.766 91.0674 264.377C91.1972 263.988 91.3271 263.729 91.5868 263.599C91.8466 263.469 92.1063 263.34 92.366 263.34C92.7556 263.34 93.1452 263.469 93.5348 263.729C94.0543 263.988 94.4439 264.377 94.8335 264.766C95.2231 265.156 95.4828 265.545 95.6127 265.934C95.8724 266.323 96.0022 266.712 96.0022 267.101C96.1321 267.49 96.1321 267.88 96.1321 268.139L94.4439 267.62C94.4439 267.101 94.314 266.712 94.1841 266.323C94.0543 265.934 93.7945 265.674 93.4049 265.415C93.1452 265.285 93.0153 265.285 92.8855 265.285C92.7556 265.285 92.6258 265.415 92.6258 265.545C92.6258 265.674 92.4959 265.804 92.4959 265.934C92.4959 266.064 92.4959 266.323 92.4959 266.453C92.4959 266.712 92.4959 266.842 92.4959 267.101C92.4959 267.231 92.6258 267.49 92.6258 267.62C92.7556 267.88 92.8855 268.009 93.0153 268.269C93.2751 268.528 93.5348 268.788 93.7945 269.177C94.314 269.696 94.7036 270.085 94.9633 270.474C95.2231 270.863 95.4828 271.252 95.6127 271.641C95.7425 272.031 95.8724 272.42 95.8724 272.809C95.8724 273.198 96.0022 273.587 96.0022 274.106C96.0022 274.625 96.0023 275.144 95.8724 275.533C95.7425 275.922 95.6126 276.181 95.4828 276.441C95.2231 276.7 94.9633 276.7 94.7036 276.7C94.314 276.7 93.9244 276.571 93.4049 276.181C92.8855 275.922 92.4959 275.533 92.2361 275.273C91.8466 274.884 91.5868 274.495 91.4569 274.106C91.1972 273.717 91.0674 273.328 90.9375 272.809C91.0674 273.068 91.0674 272.549 91.0674 272.16Z" fill="white"/>
<path d="M97.041 267.75V265.934L102.236 268.918V270.734L100.418 269.696V280.462L98.7293 279.425V268.788L97.041 267.75Z" fill="white"/>
<path d="M103.145 282.149V269.566L107.95 272.42V274.236L104.833 272.42V275.922L107.56 277.479V279.295L104.833 277.738V281.37L107.95 283.186V285.002L103.145 282.149Z" fill="white"/>
<path d="M109.119 285.521V272.938L111.586 274.365C112.495 274.884 113.144 275.533 113.664 276.441C114.183 277.349 114.443 278.387 114.443 279.684C114.443 280.462 114.313 281.111 114.183 281.5C113.924 281.889 113.664 282.148 113.144 282.148L114.703 288.764L113.015 287.726L111.586 281.629L110.807 281.111V286.299L109.119 285.521ZM110.807 279.424L111.456 279.813C111.846 280.073 112.235 280.073 112.365 279.943C112.495 279.813 112.625 279.295 112.625 278.646C112.625 278.127 112.495 277.608 112.365 277.089C112.106 276.7 111.846 276.311 111.326 276.052L110.677 275.662V279.424H110.807Z" fill="white"/>
<path d="M115.872 289.412V276.83L120.677 279.683V281.499L117.56 279.683V283.186L120.287 284.742V286.558L117.56 285.002V288.634L120.677 290.45V292.266L115.872 289.412Z" fill="white"/>
<path d="M121.845 292.915V280.333L123.404 281.241L124.702 285.781C124.832 286.17 124.962 286.559 124.962 286.818C125.092 287.207 125.222 287.597 125.352 287.986L125.871 290.061V282.667L127.559 283.575V296.158L126.001 295.25L124.702 290.71C124.443 289.931 124.313 289.283 124.053 288.505C123.793 287.856 123.663 287.078 123.404 286.299H123.274V293.693L121.845 292.915Z" fill="white"/>
<path d="M129.248 297.066V284.484L130.936 285.392V290.451H131.066L133.144 286.559L134.962 287.597C134.572 288.245 134.182 288.894 133.793 289.543C133.403 290.191 133.014 290.84 132.754 291.488L135.221 300.439L133.533 299.401L131.715 292.915C131.585 293.175 131.455 293.304 131.325 293.564C131.196 293.823 131.066 293.953 130.936 294.212V297.844L129.248 297.066Z" fill="white"/>
<path d="M135.871 297.974V291.618C135.871 291.099 135.871 290.71 136.001 290.321C136.131 289.932 136.261 289.672 136.52 289.542C136.78 289.413 137.04 289.283 137.3 289.283C137.689 289.283 138.079 289.413 138.468 289.802C138.988 290.061 139.377 290.45 139.767 290.71C140.157 291.099 140.416 291.488 140.546 291.877C140.806 292.266 140.936 292.656 140.936 293.174C140.936 293.693 141.066 294.082 141.066 294.601V300.828C141.066 301.865 140.806 302.644 140.416 302.903C140.027 303.162 139.248 303.162 138.339 302.644C137.429 302.125 136.78 301.476 136.261 300.698C136.131 299.79 135.871 299.012 135.871 297.974ZM137.559 298.882C137.559 299.271 137.689 299.53 137.819 299.92C137.949 300.309 138.209 300.568 138.598 300.698C138.988 300.957 139.248 300.957 139.377 300.698C139.507 300.568 139.637 300.179 139.637 299.79V293.434C139.637 293.045 139.507 292.785 139.377 292.396C139.248 292.007 138.988 291.748 138.598 291.488C138.339 291.358 138.209 291.358 138.079 291.358C137.949 291.358 137.819 291.488 137.819 291.618C137.689 291.748 137.689 291.877 137.689 292.007C137.689 292.137 137.689 292.396 137.689 292.526V298.882H137.559Z" fill="white"/>
<path d="M147.299 241.807L148.078 242.196L148.468 244.79L148.727 246.736L148.987 245.05L149.377 242.845L150.156 243.234L149.247 248.422L148.208 248.033L147.299 241.807Z" fill="white"/>
<path d="M150.286 249.201C150.416 248.293 150.675 247.515 150.805 246.607C150.935 245.699 151.195 244.921 151.325 244.013L152.234 244.532L153.273 250.888L152.493 250.498L152.234 249.201L151.325 248.682C151.325 248.812 151.325 249.072 151.195 249.201C151.195 249.331 151.195 249.59 151.065 249.72L150.286 249.201ZM151.325 247.904L151.974 248.293L151.714 245.699C151.714 246.088 151.584 246.477 151.584 246.737C151.454 247.126 151.454 247.515 151.325 247.904Z" fill="white"/>
<path d="M153.662 251.147V245.439L154.441 245.828V250.758L155.87 251.536V252.444L153.662 251.147Z" fill="white"/>
<path d="M156.259 252.703V246.996L157.038 247.385V253.092L156.259 252.703Z" fill="white"/>
<path d="M157.818 253.611V247.903L159.117 248.682C159.376 248.811 159.636 249.071 159.766 249.2C159.896 249.46 160.026 249.719 160.155 249.979C160.155 250.238 160.285 250.498 160.285 250.887C160.285 251.276 160.285 251.665 160.285 252.184C160.285 252.703 160.285 253.092 160.285 253.351C160.285 253.741 160.285 254 160.155 254.13C160.026 254.389 159.896 254.519 159.766 254.519C159.506 254.519 159.376 254.519 159.117 254.259L157.818 253.611ZM158.597 253.222L158.987 253.351C159.117 253.481 159.246 253.481 159.376 253.351C159.506 253.222 159.506 253.092 159.506 252.962V250.238C159.506 249.979 159.506 249.849 159.376 249.719C159.246 249.59 159.117 249.46 158.987 249.33L158.597 249.2V253.222Z" fill="white"/>
<path d="M147.559 256.076V251.666L148.338 252.055V256.465C148.338 256.595 148.338 256.724 148.468 256.984C148.598 257.114 148.598 257.243 148.857 257.373C148.987 257.503 149.117 257.503 149.247 257.373C149.377 257.243 149.377 257.114 149.377 256.984V252.703L150.156 253.092V257.373C150.156 257.892 150.026 258.151 149.896 258.281C149.766 258.411 149.377 258.411 148.987 258.151C148.598 257.892 148.208 257.632 148.078 257.243C147.688 256.984 147.559 256.595 147.559 256.076Z" fill="white"/>
<path d="M150.675 259.319V253.611L151.325 254L151.974 256.076C151.974 256.206 152.104 256.465 152.104 256.595C152.104 256.724 152.234 256.984 152.234 257.114L152.493 258.022V254.649L153.273 255.038V260.746L152.623 260.357L151.974 258.281C151.844 257.892 151.844 257.633 151.714 257.243C151.584 256.984 151.584 256.595 151.454 256.206V259.578L150.675 259.319Z" fill="white"/>
<path d="M153.662 256.075V255.167L156 256.594V257.502L155.22 256.983V261.913L154.441 261.524V256.594L153.662 256.075Z" fill="white"/>
<path d="M156.519 262.692V256.984L157.298 257.374V263.081L156.519 262.692Z" fill="white"/>
<path d="M158.078 263.6V257.892L158.857 258.281V263.21L160.285 263.989V264.897L158.078 263.6Z" fill="white"/>
<path fill-rule="evenodd" clip-rule="evenodd" d="M277.944 366.593L274.827 385.921L279.762 388.775L282.879 369.447L277.944 366.593ZM270.801 362.443L265.996 374.117L265.477 371.652C264.568 368.539 261.84 363.091 258.594 358.94L263.009 379.176L268.204 382.159L275.996 365.556L270.801 362.443ZM292.878 383.586C291.19 381.64 290.151 380.343 290.151 379.305C290.151 378.397 291.06 378.008 293.008 379.176C294.566 380.084 295.735 381.121 296.644 382.159L297.034 382.678L297.683 378.527C296.644 377.489 295.216 376.192 293.268 375.025C288.333 372.171 284.956 373.079 284.956 377.23C284.956 380.213 287.424 383.327 289.242 385.532C291.19 387.737 291.839 388.775 291.839 389.683C291.839 391.11 290.281 390.85 288.852 390.072C286.904 388.904 285.866 387.996 284.177 386.31L283.528 385.662L282.879 389.942C284.047 391.239 286.125 392.926 288.333 394.223C293.528 397.206 296.904 396.298 296.904 391.888C297.034 389.423 295.735 386.829 292.878 383.586ZM310.41 385.272L306.644 383.067C305.475 382.419 304.566 382.289 304.047 383.327L296.774 398.503L301.969 401.487C301.969 401.487 302.878 399.411 303.008 398.892C303.527 399.282 308.592 402.135 309.371 402.524C309.501 403.303 310.02 406.027 310.02 406.027L314.566 408.621L310.41 385.272ZM304.306 395.39C304.696 394.352 306.254 390.591 306.254 390.591C306.254 390.591 306.644 389.553 306.904 388.904L307.293 390.98C307.293 390.98 308.202 396.558 308.462 397.725L304.306 395.39Z" fill="white"/>
<path fill-rule="evenodd" clip-rule="evenodd" d="M265.217 369.836L263.528 359.588C263.269 358.161 262.36 357.253 261.321 356.605L253.659 352.195V352.584C259.633 357.643 263.528 363.999 265.217 369.836Z" fill="#FAA61A"/>
<path opacity="0.75" d="M309.371 234.024L273.917 213.529C271.19 211.973 268.853 207.952 268.853 204.709V183.435V175.523C268.853 172.28 271.19 170.983 273.917 172.539L309.371 193.034C312.098 194.591 314.435 198.612 314.435 201.855V231.171C314.435 234.413 312.098 235.711 309.371 234.024Z" fill="#B9B9F4"/>
<path d="M285.216 193.813L268.853 184.344V182.917L285.216 192.386V193.813Z" fill="white"/>
<path d="M314.435 210.676L298.202 201.336V199.909L314.435 209.249V210.676Z" fill="white"/>
<path d="M284.956 206.914L268.853 197.575V196.018L284.956 205.358V206.914Z" fill="white"/>
<path d="M314.435 223.777L298.072 214.438V212.881L314.435 222.35V223.777Z" fill="white"/>
<path d="M291.579 186.418C294.566 188.105 297.033 191.867 297.683 195.628C297.813 196.277 297.813 196.925 297.813 197.444C297.813 198.871 297.423 200.168 296.774 200.947C295.865 201.984 295.345 203.671 295.345 205.746C295.345 207.821 295.865 210.027 296.774 212.102C297.423 213.659 297.813 215.345 297.813 216.772C297.813 218.199 297.423 219.496 296.774 220.274C295.605 221.571 293.657 221.701 291.579 220.404C289.501 219.236 287.553 216.902 286.384 214.178C285.605 212.621 285.346 210.935 285.346 209.378C285.346 207.951 285.735 206.654 286.384 205.876C287.293 204.838 287.813 203.152 287.813 201.076C287.813 199.001 287.293 196.796 286.384 194.72C285.735 193.164 285.346 191.477 285.346 190.051C285.346 189.532 285.346 189.013 285.475 188.494C286.125 185.51 288.592 184.732 291.579 186.418ZM291.579 184.992C287.943 182.916 284.956 184.084 284.177 187.456C284.047 187.975 283.917 188.624 283.917 189.402C283.917 191.218 284.436 193.164 285.216 195.109C285.995 196.925 286.384 198.871 286.384 200.557C286.384 202.244 285.995 203.671 285.216 204.579C284.436 205.487 283.917 206.913 283.917 208.729C283.917 210.545 284.436 212.491 285.216 214.437C286.644 217.55 288.852 220.404 291.449 221.831C294.046 223.387 296.384 223.128 297.683 221.571C298.462 220.663 298.981 219.236 298.981 217.42C298.981 215.604 298.462 213.659 297.683 211.713C296.904 209.897 296.514 207.951 296.514 206.265C296.514 204.579 296.904 203.152 297.683 202.244C298.462 201.336 298.981 199.909 298.981 198.093C298.981 197.444 298.852 196.666 298.722 196.017C298.202 191.607 295.215 187.067 291.579 184.992Z" fill="white"/>
<path d="M71.8471 71.7504C71.8471 71.491 71.8471 71.1019 71.8471 70.8424C71.8471 70.0641 71.7172 69.2858 71.5873 68.5076C71.5873 68.5076 71.5873 68.5076 71.5873 68.3778C71.5873 68.1184 71.4575 67.7293 71.4575 67.4698C71.4575 67.2104 71.3276 66.951 71.3276 66.6915C71.0679 65.5241 70.6783 64.3567 70.2887 63.1892V63.0595C70.1588 62.9298 70.1588 62.6704 70.029 62.5407C70.029 62.5407 70.0289 62.4109 69.8991 62.4109C69.6394 61.6327 69.2498 60.8544 68.8602 60.0761C68.7303 59.8166 68.6004 59.5572 68.4706 59.2978C68.3407 59.0384 68.2108 58.7789 68.081 58.6492C67.9511 58.3898 67.8212 58.1303 67.6914 58.0006C67.5615 57.7412 67.3018 57.4818 67.1719 57.2223C66.7823 56.7035 66.3927 56.0549 66.0031 55.536C65.8733 55.4063 65.7434 55.1469 65.6135 55.0172C65.4837 54.8875 65.3538 54.628 65.2239 54.4983C64.4447 53.4606 63.5357 52.5526 62.6266 51.6446C62.3669 51.3852 62.237 51.2554 61.9773 50.996C61.7176 50.7366 61.1981 50.3474 61.1981 50.3474L60.6786 49.9583C59.8995 49.3097 59.1203 48.7909 58.2112 48.272L37.3029 36.2085L32.8874 47.7531L30.9394 52.9417L40.6794 58.5195L41.5884 56.3143L43.6663 50.996L56.5229 58.3898L59.5098 60.0761C61.7176 61.3732 63.5357 64.4864 63.5357 66.951C63.5357 69.0264 62.237 70.0641 60.5488 69.675C60.289 69.675 60.0293 69.5453 59.7696 69.4156C59.5098 69.2858 59.1203 69.1561 58.8605 68.8967L42.6273 59.5572L42.4975 59.8166L41.978 61.2435L41.8482 61.6327L40.9391 63.8378L40.8092 64.0972L40.4196 65.135L39.9002 66.5618L38.8612 69.1561L38.4716 69.9344V70.0641L37.0431 73.8259L36.1341 76.1607L45.6143 81.9979L48.4713 74.4744L58.0813 80.0522C65.4837 84.3328 71.4575 81.0899 71.8471 72.7882V72.6584C71.8471 72.399 71.8471 72.2693 71.8471 72.0099C71.9769 72.0099 71.9769 71.8801 71.8471 71.7504ZM44.835 80.3116L37.3029 76.031L37.6924 75.123L39.121 71.3613C39.5106 70.3236 40.5495 70.0641 41.7183 70.7127L47.3025 73.9556L44.835 80.3116ZM70.8081 71.7504V72.1396C70.5484 79.7928 64.9642 82.6465 58.0813 78.755L42.1079 69.5453L41.7183 69.2858C41.1988 69.0264 40.6794 68.8967 40.1599 68.8967L40.5495 67.7293L41.1988 66.1727L41.5884 65.135L41.7183 64.8755L42.6273 62.6704L42.7572 62.2812L43.1468 61.2435L58.7307 70.1939C58.8605 70.3236 59.1203 70.3236 59.2501 70.4533C59.2501 70.4533 59.2501 70.4533 59.38 70.583C59.6397 70.7127 59.7696 70.7127 60.0293 70.8424C61.0682 71.2316 62.8864 71.6207 63.9253 69.9344C64.0552 69.675 64.185 69.5453 64.185 69.4156C64.4447 68.767 64.4447 67.9887 64.4447 67.0807C64.185 64.0972 61.7176 60.2058 59.2501 58.7789L56.1334 56.9629L43.6663 49.8286L42.8871 49.4394L42.6273 50.088L40.5495 55.4063L39.9002 56.9629L32.368 52.6823L33.9264 48.7909L38.082 37.8948L53.0166 46.5857L58.0813 49.4394C58.7307 49.8286 60.8085 51.1257 63.0162 53.4606C63.1461 53.5903 63.4058 53.8498 63.5357 53.9795C63.7954 54.2389 64.0551 54.628 64.4447 55.0172C64.5746 55.1469 64.5746 55.2766 64.7045 55.2766C64.7045 55.4063 64.8343 55.4063 64.8343 55.536C66.133 57.2223 67.4316 59.2978 68.6004 61.7624C68.7303 62.0218 68.8602 62.2812 68.99 62.5407C69.2498 63.0595 69.3796 63.5784 69.6394 64.0972C69.7692 64.3567 69.8991 64.7458 69.8991 65.0052C70.0289 65.2647 70.0289 65.5241 70.1588 65.7835C70.1588 65.9133 70.1588 65.9133 70.2887 66.043C70.2887 66.1727 70.4186 66.3024 70.4186 66.4321C70.4186 66.6915 70.5484 66.951 70.5484 67.0807C70.5484 67.3401 70.6783 67.5995 70.6783 67.859V67.9887V68.1184C70.8082 68.767 70.8081 69.5453 70.938 70.1939C70.938 70.4533 70.938 70.7127 70.938 70.9721V71.1019C70.938 71.2316 70.938 71.2316 70.938 71.3613C70.8081 71.6207 70.8081 71.6207 70.8081 71.7504Z" fill="white"/>
<path opacity="0.4" d="M123.663 261.654V319.507L55.2241 280.073L18.6021 258.93L13.9269 256.206C6.52458 251.925 0.420894 241.418 0.420894 232.857V175.004L5.61551 177.987L110.027 238.305C117.56 242.585 123.663 253.092 123.663 261.654Z" fill="#26268E"/>
<defs>
<linearGradient id="paint0_linear" x1="154.959" y1="328.986" x2="326.195" y2="227.676" gradientUnits="userSpaceOnUse">
<stop stop-color="white"/>
<stop offset="1" stop-color="white" stop-opacity="0"/>
</linearGradient>
</defs>
</svg>
