<svg width="121" height="120" viewBox="0 0 121 120" fill="none" xmlns="http://www.w3.org/2000/svg">
<g filter="url(#filter0_d)">
<path d="M101 10H20V90H101V10Z" fill="#2D2CAB"/>
</g>
<path d="M59.2929 49.2929C58.9024 49.6834 58.9024 50.3166 59.2929 50.7071L65.6568 57.0711C66.0474 57.4616 66.6805 57.4616 67.0711 57.0711C67.4616 56.6806 67.4616 56.0474 67.0711 55.6569L61.4142 50L67.0711 44.3432C67.4616 43.9526 67.4616 43.3195 67.0711 42.9289C66.6806 42.5384 66.0474 42.5384 65.6569 42.9289L59.2929 49.2929ZM61 49L60 49L60 51L61 51L61 49Z" fill="white"/>
<defs>
<filter id="filter0_d" x="0" y="0" width="121" height="120" filterUnits="userSpaceOnUse" color-interpolation-filters="sRGB">
<feFlood flood-opacity="0" result="BackgroundImageFix"/>
<feColorMatrix in="SourceAlpha" type="matrix" values="0 0 0 0 0 0 0 0 0 0 0 0 0 0 0 0 0 0 127 0"/>
<feOffset dy="10"/>
<feGaussianBlur stdDeviation="10"/>
<feColorMatrix type="matrix" values="0 0 0 0 0 0 0 0 0 0 0 0 0 0 0 0 0 0 0.08 0"/>
<feBlend mode="normal" in2="BackgroundImageFix" result="effect1_dropShadow"/>
<feBlend mode="normal" in="SourceGraphic" in2="effect1_dropShadow" result="shape"/>
</filter>
</defs>
</svg>
