<svg width="597" height="555" viewBox="0 0 597 555" fill="none" xmlns="http://www.w3.org/2000/svg">
<path d="M275 0H280V5H275V0Z" fill="#3C3CD2"/>
<path d="M220 0H225V5H220V0Z" fill="#3C3CD2"/>
<path d="M275 55H280V60H275V55Z" fill="#3C3CD2"/>
<path d="M220 55H225V60H220V55Z" fill="#3C3CD2"/>
<path d="M385 0H390V5H385V0Z" fill="#3C3CD2"/>
<path d="M330 0H335V5H330V0Z" fill="#3C3CD2"/>
<path d="M385 55H390V60H385V55Z" fill="#3C3CD2"/>
<path d="M330 55H335V60H330V55Z" fill="#3C3CD2"/>
<path d="M275 110H280V115H275V110Z" fill="#3C3CD2"/>
<path d="M220 110H225V115H220V110Z" fill="#3C3CD2"/>
<path d="M275 165H280V170H275V165Z" fill="#3C3CD2"/>
<path d="M220 165H225V170H220V165Z" fill="#3C3CD2"/>
<path d="M385 110H390V115H385V110Z" fill="#3C3CD2"/>
<path d="M330 110H335V115H330V110Z" fill="#3C3CD2"/>
<path d="M385 165H390V170H385V165Z" fill="#3C3CD2"/>
<path d="M330 165H335V170H330V165Z" fill="#3C3CD2"/>
<path d="M275 220H280V225H275V220Z" fill="#3C3CD2"/>
<path d="M220 220H225V225H220V220Z" fill="#3C3CD2"/>
<path d="M275 275H280V280H275V275Z" fill="#3C3CD2"/>
<path d="M220 275H225V280H220V275Z" fill="#3C3CD2"/>
<path d="M385 220H390V225H385V220Z" fill="#3C3CD2"/>
<path d="M330 220H335V225H330V220Z" fill="#3C3CD2"/>
<path d="M385 275H390V280H385V275Z" fill="#3C3CD2"/>
<path d="M330 275H335V280H330V275Z" fill="#3C3CD2"/>
<path d="M275 330H280V335H275V330Z" fill="#3C3CD2"/>
<path d="M220 330H225V335H220V330Z" fill="#3C3CD2"/>
<path d="M275 385H280V390H275V385Z" fill="#3C3CD2"/>
<path d="M220 385H225V390H220V385Z" fill="#3C3CD2"/>
<path d="M385 330H390V335H385V330Z" fill="#3C3CD2"/>
<path d="M330 330H335V335H330V330Z" fill="#3C3CD2"/>
<path d="M385 385H390V390H385V385Z" fill="#3C3CD2"/>
<path d="M330 385H335V390H330V385Z" fill="#3C3CD2"/>
<path d="M55 0H60V5H55V0Z" fill="#3C3CD2"/>
<path d="M0 0H5V5H0V0Z" fill="#3C3CD2"/>
<path d="M55 55H60V60H55V55Z" fill="#3C3CD2"/>
<path d="M0 55H5V60H0V55Z" fill="#3C3CD2"/>
<path d="M165 0H170V5H165V0Z" fill="#3C3CD2"/>
<path d="M110 0H115V5H110V0Z" fill="#3C3CD2"/>
<path d="M165 55H170V60H165V55Z" fill="#3C3CD2"/>
<path d="M110 55H115V60H110V55Z" fill="#3C3CD2"/>
<path d="M55 110H60V115H55V110Z" fill="#3C3CD2"/>
<path d="M0 110H5V115H0V110Z" fill="#3C3CD2"/>
<path d="M55 165H60V170H55V165Z" fill="#3C3CD2"/>
<path d="M0 165H5V170H0V165Z" fill="#3C3CD2"/>
<path d="M165 110H170V115H165V110Z" fill="#3C3CD2"/>
<path d="M110 110H115V115H110V110Z" fill="#3C3CD2"/>
<path d="M165 165H170V170H165V165Z" fill="#3C3CD2"/>
<path d="M110 165H115V170H110V165Z" fill="#3C3CD2"/>
<path d="M55 220H60V225H55V220Z" fill="#3C3CD2"/>
<path d="M0 220H5V225H0V220Z" fill="#3C3CD2"/>
<path d="M55 275H60V280H55V275Z" fill="#3C3CD2"/>
<path d="M0 275H5V280H0V275Z" fill="#3C3CD2"/>
<path d="M165 220H170V225H165V220Z" fill="#3C3CD2"/>
<path d="M110 220H115V225H110V220Z" fill="#3C3CD2"/>
<path d="M165 275H170V280H165V275Z" fill="#3C3CD2"/>
<path d="M110 275H115V280H110V275Z" fill="#3C3CD2"/>
<path d="M55 330H60V335H55V330Z" fill="#3C3CD2"/>
<path d="M0 330H5V335H0V330Z" fill="#3C3CD2"/>
<path d="M55 385H60V390H55V385Z" fill="#3C3CD2"/>
<path d="M0 385H5V390H0V385Z" fill="#3C3CD2"/>
<path d="M165 330H170V335H165V330Z" fill="#3C3CD2"/>
<path d="M110 330H115V335H110V330Z" fill="#3C3CD2"/>
<path d="M165 385H170V390H165V385Z" fill="#3C3CD2"/>
<path d="M110 385H115V390H110V385Z" fill="#3C3CD2"/>
<path d="M275 440H280V445H275V440Z" fill="#3C3CD2"/>
<path d="M220 440H225V445H220V440Z" fill="#3C3CD2"/>
<path d="M275 495H280V500H275V495Z" fill="#3C3CD2"/>
<path d="M220 495H225V500H220V495Z" fill="#3C3CD2"/>
<path d="M385 440H390V445H385V440Z" fill="#3C3CD2"/>
<path d="M330 440H335V445H330V440Z" fill="#3C3CD2"/>
<path d="M385 495H390V500H385V495Z" fill="#3C3CD2"/>
<path d="M330 495H335V500H330V495Z" fill="#3C3CD2"/>
<path d="M275 550H280V555H275V550Z" fill="#3C3CD2"/>
<path d="M220 550H225V555H220V550Z" fill="#3C3CD2"/>
<path d="M385 550H390V555H385V550Z" fill="#3C3CD2"/>
<path d="M330 550H335V555H330V550Z" fill="#3C3CD2"/>
<path d="M55 440H60V445H55V440Z" fill="#3C3CD2"/>
<path d="M0 440H5V445H0V440Z" fill="#3C3CD2"/>
<path d="M55 495H60V500H55V495Z" fill="#3C3CD2"/>
<path d="M0 495H5V500H0V495Z" fill="#3C3CD2"/>
<path d="M165 440H170V445H165V440Z" fill="#3C3CD2"/>
<path d="M110 440H115V445H110V440Z" fill="#3C3CD2"/>
<path d="M165 495H170V500H165V495Z" fill="#3C3CD2"/>
<path d="M110 495H115V500H110V495Z" fill="#3C3CD2"/>
<path d="M55 550H60V555H55V550Z" fill="#3C3CD2"/>
<path d="M0 550H5V555H0V550Z" fill="#3C3CD2"/>
<path d="M165 550H170V555H165V550Z" fill="#3C3CD2"/>
<path d="M110 550H115V555H110V550Z" fill="#3C3CD2"/>
<path d="M490.628 0H495.231V5H490.628V0Z" fill="#3C3CD2"/>
<path d="M440 0H444.603V5H440V0Z" fill="#3C3CD2"/>
<path d="M490.628 55H495.231V60H490.628V55Z" fill="#3C3CD2"/>
<path d="M440 55H444.603V60H440V55Z" fill="#3C3CD2"/>
<path d="M591.885 0H596.487V5H591.885V0Z" fill="#3C3CD2"/>
<path d="M541.256 0H545.859V5H541.256V0Z" fill="#3C3CD2"/>
<path d="M591.885 55H596.487V60H591.885V55Z" fill="#3C3CD2"/>
<path d="M541.256 55H545.859V60H541.256V55Z" fill="#3C3CD2"/>
<path d="M490.628 110H495.231V115H490.628V110Z" fill="#3C3CD2"/>
<path d="M440 110H444.603V115H440V110Z" fill="#3C3CD2"/>
<path d="M490.628 165H495.231V170H490.628V165Z" fill="#3C3CD2"/>
<path d="M440 165H444.603V170H440V165Z" fill="#3C3CD2"/>
<path d="M591.885 110H596.487V115H591.885V110Z" fill="#3C3CD2"/>
<path d="M541.256 110H545.859V115H541.256V110Z" fill="#3C3CD2"/>
<path d="M591.885 165H596.487V170H591.885V165Z" fill="#3C3CD2"/>
<path d="M541.256 165H545.859V170H541.256V165Z" fill="#3C3CD2"/>
<path d="M490.628 220H495.231V225H490.628V220Z" fill="#3C3CD2"/>
<path d="M440 220H444.603V225H440V220Z" fill="#3C3CD2"/>
<path d="M490.628 275H495.231V280H490.628V275Z" fill="#3C3CD2"/>
<path d="M440 275H444.603V280H440V275Z" fill="#3C3CD2"/>
<path d="M591.885 220H596.487V225H591.885V220Z" fill="#3C3CD2"/>
<path d="M541.256 220H545.859V225H541.256V220Z" fill="#3C3CD2"/>
<path d="M591.885 275H596.487V280H591.885V275Z" fill="#3C3CD2"/>
<path d="M541.256 275H545.859V280H541.256V275Z" fill="#3C3CD2"/>
<path d="M490.628 330H495.231V335H490.628V330Z" fill="#3C3CD2"/>
<path d="M440 330H444.603V335H440V330Z" fill="#3C3CD2"/>
<path d="M490.628 385H495.231V390H490.628V385Z" fill="#3C3CD2"/>
<path d="M440 385H444.603V390H440V385Z" fill="#3C3CD2"/>
<path d="M591.885 330H596.487V335H591.885V330Z" fill="#3C3CD2"/>
<path d="M541.256 330H545.859V335H541.256V330Z" fill="#3C3CD2"/>
<path d="M591.885 385H596.487V390H591.885V385Z" fill="#3C3CD2"/>
<path d="M541.256 385H545.859V390H541.256V385Z" fill="#3C3CD2"/>
<path d="M490.628 440H495.231V445H490.628V440Z" fill="#3C3CD2"/>
<path d="M440 440H444.603V445H440V440Z" fill="#3C3CD2"/>
<path d="M490.628 495H495.231V500H490.628V495Z" fill="#3C3CD2"/>
<path d="M440 495H444.603V500H440V495Z" fill="#3C3CD2"/>
<path d="M591.885 440H596.487V445H591.885V440Z" fill="#3C3CD2"/>
<path d="M541.256 440H545.859V445H541.256V440Z" fill="#3C3CD2"/>
<path d="M591.885 495H596.487V500H591.885V495Z" fill="#3C3CD2"/>
<path d="M541.256 495H545.859V500H541.256V495Z" fill="#3C3CD2"/>
<path d="M490.628 550H495.231V555H490.628V550Z" fill="#3C3CD2"/>
<path d="M440 550H444.603V555H440V550Z" fill="#3C3CD2"/>
<path d="M591.885 550H596.487V555H591.885V550Z" fill="#3C3CD2"/>
<path d="M541.256 550H545.859V555H541.256V550Z" fill="#3C3CD2"/>
</svg>
