<svg width="350" height="478" viewBox="0 0 350 478" fill="none" xmlns="http://www.w3.org/2000/svg">
<path d="M1.88684 282.463L337.638 476.308C340.105 477.741 344.444 477.542 347.27 475.91C350.096 474.278 350.415 471.77 347.947 470.337L12.1962 276.493C9.72833 275.06 5.38965 275.259 2.56354 276.891C-0.262604 278.523 -0.581024 281.03 1.88684 282.463Z" fill="#F3F5FC"/>
<path d="M349.69 204.625V433.054C349.69 436.167 348.521 441.485 343.846 441.355H336.963C335.664 441.355 333.457 440.058 332.028 439.41L326.963 436.815L53.8563 279.082L19.0524 259.235C18.403 258.846 17.7537 258.457 17.2342 258.068C10.741 253.269 5.54636 243.799 5.54636 235.887V6.29103L1.65039 4.34531C2.16985 3.4373 2.81918 2.65901 3.59837 2.01044L3.72824 1.88072C4.76716 0.972719 6.19568 0.583571 7.75407 0.453855H18.403C21.2601 0.453855 24.1171 1.23215 26.5846 2.65901L336.314 181.277C343.586 185.557 349.69 196.064 349.69 204.625Z" fill="#E8E8F9"/>
<path d="M344.366 208.516V431.626C344.366 440.188 338.262 443.69 330.86 439.409L13.7282 256.511C6.32584 252.23 0.222168 241.723 0.222168 233.162V10.0522C0.222168 1.49102 6.32584 -2.01128 13.7282 2.26931L330.86 185.168C338.262 189.448 344.366 199.955 344.366 208.516Z" fill="#F5F5FF"/>
<path d="M344.366 237.313V384.28C328.132 393.49 305.796 392.063 281.121 377.795L218.136 341.474L207.747 368.325L143.983 331.616L153.204 307.748L159.697 291.015L163.463 281.286L166.06 274.541L166.84 272.725L172.424 258.197L173.333 255.733L176.839 246.653L177.618 244.577L281.121 304.246C281.641 304.505 282.16 304.895 282.68 305.154C296.315 312.159 307.224 305.284 307.224 289.329C307.224 272.725 295.536 252.49 281.121 244.188L184.891 188.67L171.645 223.044L165.93 237.832L102.167 201.123L115.283 167.007L144.373 91.7727L281.251 170.64C286.835 173.882 292.16 177.514 297.484 181.665C297.354 181.536 297.354 181.536 297.224 181.406C297.484 181.536 297.614 181.795 297.874 181.925C298.783 182.703 299.822 183.481 300.731 184.26C301.51 184.908 302.289 185.557 303.198 186.335C304.107 187.113 305.016 187.892 305.796 188.67C306.705 189.448 307.614 190.356 308.523 191.134C309.302 191.913 310.081 192.561 310.86 193.34C312.289 194.767 313.717 196.193 315.146 197.62C315.795 198.269 316.445 199.047 317.094 199.696C318.133 200.863 319.302 202.031 320.34 203.328C320.99 204.106 321.639 204.884 322.288 205.533C323.198 206.571 324.107 207.608 325.016 208.776C325.665 209.554 326.314 210.462 326.964 211.24C327.743 212.278 328.652 213.316 329.431 214.483C330.08 215.262 330.73 216.17 331.379 217.078C332.288 218.245 333.067 219.412 333.846 220.58C334.496 221.358 335.015 222.266 335.535 223.044C336.833 224.86 338.002 226.806 339.301 228.622C339.95 229.66 340.6 230.698 341.249 231.735C341.898 232.773 342.547 233.681 343.067 234.719C343.327 235.497 343.846 236.405 344.366 237.313Z" fill="#E8E8F9"/>
<path d="M28.949 137.282V135.407C28.949 134.783 28.949 134.314 28.949 133.689C28.949 133.221 29.1061 132.596 29.1061 132.283C29.2631 131.815 29.4202 131.502 29.5772 131.19C29.8913 130.878 30.2054 130.721 30.5195 130.721C30.2054 130.409 29.8913 129.94 29.5772 129.472C29.4202 129.003 29.1061 128.535 29.1061 128.066C28.949 127.597 28.949 127.129 28.792 126.816C28.6349 126.504 28.792 126.035 28.792 125.723V122.755C28.792 121.037 29.2631 119.943 30.2054 119.475C31.1477 119.006 32.247 119.162 33.8175 119.943C35.388 120.881 36.6444 121.974 37.4296 123.536C38.2149 125.098 38.686 126.816 38.686 128.691V130.565C38.686 131.502 38.529 132.283 38.3719 133.064C38.0578 133.689 37.7437 134.158 36.9585 134.158C37.4297 134.626 37.7437 135.251 37.9008 135.72C38.0578 136.189 38.3719 136.657 38.3719 137.282C38.529 137.751 38.529 138.375 38.529 138.844C38.529 139.469 38.529 139.937 38.529 140.562V142.749C38.529 143.842 38.3719 144.623 38.2149 145.248C37.9008 145.873 37.5867 146.342 37.1156 146.498C36.6444 146.81 36.1733 146.81 35.5451 146.654C34.9169 146.498 34.2887 146.342 33.6605 145.873C32.8752 145.404 32.09 144.78 31.4618 144.155C30.8336 143.53 30.3625 142.749 29.8913 141.968C29.4202 141.187 29.2631 140.406 28.949 139.469C29.1061 139 28.949 138.063 28.949 137.282ZM32.4041 128.378C32.4041 128.847 32.5611 129.316 32.8752 129.784C33.1893 130.253 33.5034 130.565 33.9746 130.878C34.4457 131.19 34.7598 131.19 35.0739 131.034C35.388 130.878 35.5451 130.565 35.5451 130.097V126.504C35.5451 126.035 35.388 125.411 35.231 124.942C35.0739 124.473 34.6028 124.005 34.1316 123.692C33.8175 123.536 33.3464 123.38 33.0323 123.536C32.7182 123.692 32.5611 124.005 32.5611 124.473V128.378H32.4041ZM32.4041 139.937C32.4041 140.406 32.5611 140.875 32.8752 141.343C33.1893 141.812 33.5034 142.124 33.9746 142.437C34.4457 142.749 34.7598 142.749 35.0739 142.593C35.388 142.437 35.5451 142.124 35.5451 141.656V136.813C35.5451 136.345 35.388 135.72 35.231 135.251C35.0739 134.783 34.6028 134.314 34.1316 134.002C33.5034 133.689 33.1893 133.689 33.0323 134.002C32.8752 134.314 32.7182 134.626 32.7182 135.251V139.937H32.4041Z" fill="#D6D6F2"/>
<path d="M42.1411 145.404V130.096C42.1411 129.159 42.2982 128.534 42.4552 128.065C42.7693 127.597 43.0834 127.128 43.5546 126.972C44.0257 126.816 44.4968 126.659 45.125 126.816C45.7532 126.972 46.3814 127.128 47.0096 127.597C48.4231 128.378 49.6795 129.627 50.4647 131.033C51.407 132.439 51.8781 134.157 51.8781 135.875V151.183C51.8781 152.121 51.7211 152.745 51.564 153.214C51.2499 153.683 50.9358 154.151 50.4647 154.307C49.9936 154.464 49.5224 154.62 48.8942 154.464C48.266 154.307 47.6378 154.151 47.0096 153.683C46.3814 153.214 45.5962 152.745 45.125 152.277C44.4968 151.652 44.0257 151.027 43.5546 150.402C43.0834 149.778 42.7693 148.84 42.4552 148.059C42.2982 147.122 42.1411 146.185 42.1411 145.404ZM45.5962 147.434C45.5962 147.903 45.7532 148.372 46.0673 148.84C46.3814 149.309 46.6955 149.621 47.1667 149.934C47.6378 150.09 47.9519 150.246 48.109 150.09C48.4231 149.934 48.5801 149.621 48.5801 149.153V133.689C48.5801 133.22 48.4231 132.751 48.109 132.283C47.7949 131.814 47.4808 131.502 47.1667 131.346C46.6955 131.033 46.3814 131.033 46.0673 131.189C45.7532 131.346 45.5962 131.658 45.5962 132.127V147.434Z" fill="#D6D6F2"/>
<path d="M55.0193 152.277V150.403C55.0193 149.778 55.0193 149.309 55.0193 148.684C55.0193 148.216 55.1764 147.591 55.1764 147.279C55.3334 146.81 55.4905 146.498 55.6475 146.185C55.9616 145.873 56.2757 145.717 56.5898 145.717C56.2757 145.404 55.9616 144.936 55.6475 144.467C55.4905 143.998 55.1764 143.53 55.1764 143.061C55.0193 142.592 55.0193 142.124 54.8623 141.811C54.7052 141.499 54.8623 141.03 54.8623 140.718V137.75C54.8623 136.032 55.3334 134.938 56.2757 134.47C57.218 134.001 58.3174 134.157 59.8878 134.939C61.4583 135.876 62.7147 136.969 63.5 138.531C64.2852 140.093 64.7564 141.811 64.7564 143.686V145.56C64.7564 146.498 64.5993 147.279 64.4423 148.06C64.1282 148.684 63.8141 149.153 63.0288 149.153C63.5 149.622 63.8141 150.246 63.9711 150.715C64.1282 151.184 64.4423 151.652 64.4423 152.277C64.5993 152.746 64.5993 153.37 64.5993 153.839C64.5993 154.464 64.5993 154.932 64.5993 155.557V157.744C64.5993 158.838 64.4423 159.619 64.2852 160.243C63.9711 160.868 63.657 161.337 63.1859 161.493C62.7147 161.805 62.2436 161.805 61.6154 161.649C60.9872 161.493 60.359 161.337 59.7308 160.868C58.9455 160.4 58.1603 159.775 57.5321 159.15C56.9039 158.525 56.4328 157.744 55.9616 156.963C55.4905 156.182 55.3334 155.401 55.0193 154.464C55.1764 153.995 55.0193 153.058 55.0193 152.277ZM58.4744 143.373C58.4744 143.842 58.6315 144.311 58.9455 144.779C59.2596 145.248 59.5737 145.56 60.0449 145.873C60.516 146.185 60.8301 146.185 61.1442 146.029C61.4583 145.873 61.6154 145.56 61.6154 145.092V141.499C61.6154 141.03 61.4583 140.406 61.3013 139.937C61.1442 139.468 60.6731 139 60.2019 138.687C59.8878 138.531 59.4167 138.375 59.1026 138.531C58.7885 138.687 58.6314 139 58.6314 139.468V143.373H58.4744ZM58.4744 154.933C58.4744 155.401 58.6315 155.87 58.9455 156.338C59.2596 156.807 59.5737 157.119 60.0449 157.432C60.516 157.744 60.8301 157.744 61.1442 157.588C61.4583 157.432 61.6154 157.119 61.6154 156.651V151.808C61.6154 151.34 61.4583 150.715 61.3013 150.246C61.1442 149.778 60.6731 149.309 60.2019 148.997C59.5737 148.684 59.2596 148.684 59.1026 148.997C58.9455 149.309 58.7885 149.622 58.7885 150.246V154.933H58.4744Z" fill="#D6D6F2"/>
<path d="M68.0545 159.775V157.9C68.0545 157.276 68.0545 156.807 68.0545 156.182C68.0545 155.714 68.2115 155.089 68.2115 154.776C68.3686 154.308 68.5256 153.995 68.6827 153.683C68.9968 153.371 69.3109 153.214 69.625 153.214C69.3109 152.902 68.9968 152.433 68.6827 151.965C68.5256 151.496 68.2115 151.027 68.2115 150.559C68.0545 150.09 68.0545 149.622 67.8974 149.309C67.7404 148.997 67.8974 148.528 67.8974 148.216V145.248C67.8974 143.53 68.3686 142.436 69.3109 141.968C70.2532 141.499 71.3525 141.655 72.923 142.436C74.4935 143.374 75.7499 144.467 76.5351 146.029C77.3204 147.591 77.7915 149.309 77.7915 151.184V153.058C77.7915 153.995 77.6345 154.776 77.4774 155.557C77.1633 156.182 76.8492 156.651 76.064 156.651C76.5351 157.119 76.8492 157.744 77.0063 158.213C77.1633 158.681 77.4774 159.15 77.4774 159.775C77.6345 160.243 77.6345 160.868 77.6345 161.337C77.6345 161.962 77.6345 162.43 77.6345 163.055V165.242C77.6345 166.335 77.4774 167.116 77.3204 167.741C77.0063 168.366 76.6922 168.835 76.221 168.991C75.7499 169.303 75.2787 169.303 74.6505 169.147C74.0223 168.991 73.3941 168.835 72.7659 168.366C71.9807 167.897 71.1955 167.273 70.5673 166.648C69.9391 166.023 69.4679 165.242 68.9968 164.461C68.5256 163.68 68.3686 162.899 68.0545 161.962C68.2115 161.493 68.0545 160.556 68.0545 159.775ZM71.5096 150.871C71.5096 151.34 71.6666 151.808 71.9807 152.277C72.2948 152.746 72.6089 153.058 73.08 153.371C73.5512 153.683 73.8653 153.683 74.1794 153.527C74.4935 153.371 74.6505 153.058 74.6505 152.59V148.997C74.6505 148.528 74.4935 147.903 74.3364 147.435C74.1794 146.966 73.7082 146.498 73.2371 146.185C72.923 146.029 72.4519 145.873 72.1378 146.029C71.8237 146.185 71.6666 146.498 71.6666 146.966V150.871H71.5096ZM71.5096 162.43C71.5096 162.899 71.6666 163.368 71.9807 163.836C72.2948 164.305 72.6089 164.617 73.08 164.93C73.5512 165.242 73.8653 165.242 74.1794 165.086C74.4935 164.93 74.6505 164.617 74.6505 164.149V159.15C74.6505 158.681 74.4935 158.057 74.3364 157.588C74.1794 157.119 73.7082 156.651 73.2371 156.338C72.6089 156.026 72.2948 156.026 72.1378 156.338C71.9807 156.651 71.8237 156.963 71.8237 157.588V162.43H71.5096Z" fill="#D6D6F2"/>
<path d="M109.044 170.553V166.179L112.342 165.086L115.64 166.96V192.734L112.185 190.703V169.46L109.044 170.553Z" fill="#D6D6F2"/>
<path d="M120.352 176.489C120.352 174.302 120.823 172.896 121.765 172.115C122.707 171.49 123.964 171.49 125.534 172.427C127.262 173.365 128.518 174.77 129.303 176.332C130.089 177.894 130.403 179.613 130.403 181.331C130.403 182.424 130.246 183.362 130.089 184.143C129.932 184.924 129.46 185.705 129.146 186.486L124.592 194.14L130.246 197.42V201.169L120.666 195.702V192.265C121.608 190.703 122.55 189.141 123.493 187.579C124.435 186.017 125.377 184.455 126.319 182.893C126.634 182.424 126.791 181.956 126.948 181.331C126.948 180.706 127.105 180.081 127.105 179.456C127.105 179.3 127.105 178.988 127.105 178.675C127.105 178.363 126.948 178.051 126.948 177.738C126.791 177.426 126.634 177.113 126.476 176.957C126.319 176.801 126.005 176.489 125.691 176.332C125.22 176.02 124.749 176.176 124.435 176.489C124.121 176.801 123.964 177.738 123.964 178.988L120.352 176.489Z" fill="#D6D6F2"/>
<path d="M132.601 198.826V195.389L137.313 179.613L140.768 181.643L136.056 197.107L139.197 198.826V193.046L142.652 195.077V200.856L144.066 201.637V205.386L142.652 204.605V208.354L139.197 206.323V202.574L132.601 198.826Z" fill="#D6D6F2"/>
<path d="M145.636 206.324V202.887L150.348 187.111L153.803 189.141L149.091 204.605L152.232 206.324V200.544L155.687 202.575V208.354L157.101 209.135V212.884L155.687 212.103V215.852L152.232 213.821V210.072L145.636 206.324Z" fill="#D6D6F2"/>
<path d="M185.056 228.973V225.537L189.767 209.76L193.222 211.791L188.511 227.255L191.652 228.973V223.193L195.107 225.224V231.004L196.52 231.785V235.534L195.107 234.752V238.501L191.652 236.471V232.722L185.056 228.973Z" fill="#D6D6F2"/>
<path d="M198.719 234.128L202.174 235.69C202.017 236.783 202.174 237.72 202.488 238.501C202.802 239.126 203.273 239.595 203.744 239.907C204.058 240.063 204.53 240.22 204.844 240.063C205.158 239.907 205.315 239.439 205.315 238.658V235.221C205.315 234.284 205.158 233.659 204.844 233.034C204.53 232.409 204.058 231.941 203.43 231.628L202.488 231.004V227.567L203.587 228.192C204.215 228.504 204.687 228.661 205.001 228.504C205.315 228.348 205.472 227.88 205.472 227.099V224.287C205.472 223.818 205.315 223.193 205.158 222.725C205.001 222.1 204.53 221.788 204.058 221.475C203.587 221.163 203.116 221.163 202.802 221.475C202.488 221.788 202.331 222.569 202.331 223.818L198.876 221.319C198.876 219.288 199.347 218.039 200.289 217.414C201.232 216.789 202.488 216.945 204.058 217.883C205.001 218.351 205.629 218.976 206.257 219.601C206.885 220.226 207.356 221.007 207.671 221.631C207.985 222.412 208.299 223.193 208.456 223.818C208.613 224.599 208.77 225.38 208.77 226.005V228.036C208.77 228.504 208.77 228.973 208.77 229.442C208.77 229.91 208.613 230.379 208.613 230.691C208.456 231.004 208.299 231.316 208.142 231.472C207.828 231.628 207.513 231.785 207.199 231.785V231.941C207.985 232.722 208.456 233.659 208.613 234.44C208.77 235.377 208.927 236.158 208.927 237.096V240.063C208.927 242.094 208.456 243.344 207.513 243.968C206.571 244.437 205.315 244.281 203.744 243.344C201.86 242.25 200.603 241.001 199.818 239.439C198.876 238.033 198.562 236.158 198.719 234.128Z" fill="#D6D6F2"/>
<path d="M211.125 243.97V240.533L215.837 224.757L219.292 226.787L214.581 242.251L217.722 243.97V238.19L221.177 240.221V246L222.59 246.781V250.53L221.177 249.749V253.498L217.722 251.467V247.718L211.125 243.97Z" fill="#D6D6F2"/>
<path d="M225.103 249.591L228.558 250.997V251.466C228.558 252.403 228.715 253.184 228.872 253.653C229.186 254.277 229.5 254.59 230.129 254.902C230.443 255.058 230.914 255.215 231.071 255.058C231.385 254.902 231.542 254.434 231.542 253.653V247.561C231.542 246.467 231.071 245.686 230.129 245.218C229.814 245.061 229.5 244.905 229.186 244.905C228.872 244.905 228.715 245.218 228.401 245.53L225.26 243.656V229.91L234.84 235.377V239.126L228.715 235.533V241.625C229.029 241.312 229.343 241.156 229.814 241.313C230.286 241.469 230.6 241.469 231.071 241.781C232.484 242.562 233.427 243.656 234.055 244.749C234.683 245.999 234.997 247.248 234.997 248.654V254.121C234.997 256.62 234.526 258.182 233.741 258.807C232.955 259.432 231.699 259.276 229.972 258.339C228.244 257.401 226.988 255.996 226.202 254.434C225.417 253.34 225.103 251.622 225.103 249.591Z" fill="#D6D6F2"/>
<path d="M264.365 262.713V258.183C264.365 257.402 264.522 256.621 264.679 255.996C264.836 255.371 265.15 254.903 265.622 254.59C266.093 254.278 266.564 254.122 267.192 254.278C267.82 254.278 268.606 254.59 269.391 255.059C270.961 255.996 272.218 257.089 273.003 258.652C273.788 260.057 274.259 261.619 274.259 263.181V266.462C274.259 268.336 274.102 269.898 273.631 271.148L269.548 281.145L265.936 279.114L269.548 270.211L269.391 270.054C269.077 270.211 268.606 270.054 267.977 269.742C266.878 269.117 266.093 268.336 265.465 267.243C264.679 265.993 264.365 264.587 264.365 262.713ZM267.82 264.9C267.82 265.368 267.977 265.837 268.291 266.305C268.606 266.774 268.92 267.086 269.391 267.399C269.862 267.711 270.176 267.711 270.49 267.399C270.804 267.086 270.804 266.774 270.804 266.305V261.307C270.804 260.838 270.647 260.37 270.333 259.901C270.019 259.433 269.705 259.12 269.234 258.964C268.763 258.652 268.448 258.652 268.134 258.808C267.82 258.964 267.663 259.12 267.663 259.745V264.9H267.82Z" fill="#D6D6F2"/>
<path d="M276.615 281.457V278.021L281.327 262.244L284.782 264.275L280.07 279.739L283.211 281.457V275.678L286.666 277.708V283.488L288.08 284.269V288.018L286.666 287.237V290.986L283.211 288.955V285.206L276.615 281.457Z" fill="#D6D6F2"/>
<path d="M290.592 287.237L294.047 288.642V289.111C294.047 290.048 294.204 290.829 294.361 291.298C294.676 291.923 294.99 292.235 295.618 292.547C295.932 292.704 296.403 292.86 296.56 292.704C296.717 292.547 297.031 292.079 297.031 291.298V285.206C297.031 284.112 296.56 283.331 295.618 282.863C295.304 282.707 294.99 282.55 294.676 282.55C294.361 282.55 294.204 282.863 293.89 283.175L290.749 281.301V267.555L300.329 273.022V276.771L294.204 273.178V279.27C294.519 278.958 294.833 278.802 295.304 278.958C295.775 279.114 296.089 279.114 296.56 279.426C297.974 280.207 298.916 281.301 299.544 282.394C300.172 283.644 300.486 284.893 300.486 286.299V291.766C300.486 294.266 300.015 295.828 299.23 296.452C298.445 297.077 297.188 296.921 295.461 295.984C293.733 295.047 292.477 293.641 291.692 292.079C290.906 290.985 290.592 289.111 290.592 287.237Z" fill="#D6D6F2"/>
<path d="M303.627 294.579L307.083 295.984V296.453C307.083 297.39 307.24 298.171 307.397 298.64C307.711 299.265 308.025 299.577 308.653 299.889C308.967 300.046 309.438 300.202 309.595 300.046C309.752 299.889 310.066 299.421 310.066 298.64V292.548C310.066 291.454 309.595 290.673 308.653 290.205C308.339 290.049 308.025 289.892 307.711 289.892C307.397 289.892 307.24 290.205 306.925 290.517L303.784 288.643V274.897L313.364 280.364V284.113L307.24 280.52V286.612C307.554 286.3 307.868 286.144 308.339 286.3C308.81 286.456 309.124 286.456 309.595 286.768C311.009 287.549 311.951 288.643 312.579 289.736C313.207 290.986 313.522 292.236 313.522 293.641V299.108C313.522 301.608 313.05 303.17 312.265 303.795C311.48 304.419 310.223 304.263 308.496 303.326C306.768 302.389 305.512 300.983 304.727 299.421C303.942 298.484 303.627 296.609 303.627 294.579Z" fill="#D6D6F2"/>
<path d="M30.3621 138.219V136.345C30.3621 135.72 30.3621 135.251 30.3621 134.627C30.3621 134.158 30.5192 133.533 30.5192 133.221C30.6762 132.752 30.8332 132.44 30.9903 132.127C31.3044 131.815 31.6185 131.659 31.9326 131.659C31.6185 131.346 31.3044 130.878 30.9903 130.409C30.8332 129.94 30.5192 129.472 30.5192 129.003C30.3621 128.535 30.3621 128.066 30.2051 127.754C30.048 127.441 30.2051 126.973 30.2051 126.66V123.692C30.2051 121.974 30.6762 120.881 31.6185 120.412C32.5608 119.943 33.6601 120.1 35.2306 120.881C36.8011 121.818 38.0575 122.911 38.8427 124.473C39.628 126.035 40.0991 127.754 40.0991 129.628V131.502C40.0991 132.44 39.9421 133.221 39.785 134.002C39.4709 134.627 39.1568 135.095 38.3716 135.095C38.8427 135.564 39.1568 136.189 39.3139 136.657C39.4709 137.126 39.785 137.594 39.785 138.219C39.9421 138.688 39.9421 139.313 39.9421 139.781C39.9421 140.406 39.9421 140.875 39.9421 141.499V143.686C39.9421 144.78 39.785 145.561 39.628 146.186C39.3139 146.81 38.9998 147.279 38.5286 147.435C38.0575 147.748 37.5863 147.748 36.9582 147.591C36.33 147.435 35.7018 147.279 35.0736 146.81C34.2883 146.342 33.5031 145.717 32.8749 145.092C32.2467 144.467 31.7755 143.686 31.3044 142.905C30.8332 142.124 30.6762 141.343 30.3621 140.406C30.5191 139.937 30.3621 139 30.3621 138.219ZM33.8172 129.316C33.8172 129.784 33.9742 130.253 34.2883 130.721C34.6024 131.19 34.9165 131.502 35.3877 131.815C35.8588 132.127 36.1729 132.127 36.487 131.971C36.8011 131.815 36.9582 131.502 36.9582 131.034V127.441C36.9582 126.973 36.8011 126.348 36.6441 125.879C36.487 125.411 36.0159 124.942 35.5447 124.63C35.2306 124.473 34.7595 124.317 34.4454 124.473C34.1313 124.63 33.9742 124.942 33.9742 125.411V129.316H33.8172ZM33.8172 140.875C33.8172 141.343 33.9742 141.812 34.2883 142.28C34.6024 142.749 34.9165 143.061 35.3877 143.374C35.8588 143.686 36.1729 143.686 36.487 143.53C36.8011 143.374 36.9582 143.061 36.9582 142.593V137.751C36.9582 137.282 36.8011 136.657 36.6441 136.189C36.487 135.72 36.0159 135.251 35.5447 134.939C34.9165 134.627 34.6024 134.627 34.4454 134.939C34.2883 135.251 34.1313 135.564 34.1313 136.189V140.875H33.8172Z" fill="#373D54"/>
<path d="M43.3975 146.341V131.033C43.3975 130.095 43.5545 129.471 43.7116 129.002C44.0257 128.533 44.3398 128.065 44.8109 127.909C45.282 127.752 45.7532 127.596 46.3814 127.752C47.0096 127.909 47.6378 128.065 48.266 128.533C49.6794 129.314 50.9358 130.564 51.721 131.97C52.6633 133.376 53.1345 135.094 53.1345 136.812V152.12C53.1345 153.057 52.9774 153.682 52.8204 154.151C52.5063 154.619 52.1922 155.088 51.721 155.244C51.2499 155.4 50.7788 155.557 50.1506 155.4C49.5224 155.244 48.8942 155.088 48.266 154.619C47.6378 154.151 46.8525 153.682 46.3814 153.214C45.7532 152.589 45.282 151.964 44.8109 151.339C44.3398 150.558 44.0257 149.777 43.7116 148.996C43.5545 148.059 43.3975 147.122 43.3975 146.341ZM46.8525 148.371C46.8525 148.84 47.0096 149.308 47.3237 149.777C47.6378 150.246 47.9519 150.558 48.423 150.871C48.8942 151.027 49.2083 151.183 49.3653 151.027C49.6794 150.871 49.8365 150.558 49.8365 150.089V134.625C49.8365 134.157 49.6794 133.688 49.3653 133.22C49.0512 132.751 48.7371 132.439 48.423 132.282C47.9519 131.97 47.6378 131.97 47.3237 132.126C47.0096 132.282 46.8525 132.595 46.8525 133.063V148.371Z" fill="#373D54"/>
<path d="M56.4324 153.058V151.34C56.4324 150.715 56.4324 150.247 56.4324 149.622C56.4324 149.153 56.5895 148.528 56.5895 148.216C56.7465 147.747 56.9036 147.435 57.0606 147.123C57.3747 146.81 57.6888 146.654 58.0029 146.654C57.6888 146.342 57.3747 145.873 57.0606 145.404C56.9036 144.936 56.5895 144.467 56.5895 143.999C56.4324 143.53 56.4324 143.061 56.2754 142.749C56.1183 142.437 56.2754 141.968 56.2754 141.656V138.688C56.2754 136.969 56.7465 135.876 57.6888 135.407C58.6311 134.939 59.7304 135.095 61.3009 135.876C62.8714 136.813 64.1278 137.907 64.913 139.469C65.6983 141.031 66.1694 142.749 66.1694 144.623V146.498C66.1694 147.435 66.0124 148.216 65.8553 148.997C65.5412 149.622 65.2271 150.09 64.4419 150.09C64.913 150.559 65.2271 151.184 65.3842 151.653C65.5412 152.121 65.8553 152.59 65.8553 153.215C66.0124 153.683 66.0124 154.308 66.0124 154.777C66.0124 155.401 66.0124 155.87 66.0124 156.495V158.682C66.0124 159.775 65.8553 160.556 65.6983 161.181C65.3842 161.806 65.0701 162.274 64.5989 162.431C64.1278 162.743 63.6567 162.743 63.0285 162.587C62.4003 162.431 61.7721 162.274 61.1439 161.806C60.3586 161.337 59.5734 160.712 58.9452 160.087C58.317 159.463 57.8459 158.682 57.3747 157.901C56.9036 157.12 56.7465 156.339 56.4324 155.401C56.5895 154.777 56.4324 153.996 56.4324 153.058ZM59.8875 144.311C59.8875 144.78 60.0445 145.248 60.3586 145.717C60.6727 146.185 60.9868 146.498 61.458 146.81C61.9291 147.123 62.2432 147.123 62.5573 146.966C62.8714 146.81 63.0285 146.498 63.0285 146.029V142.437C63.0285 141.968 62.8714 141.343 62.7144 140.875C62.5573 140.406 62.0862 139.937 61.615 139.625C61.3009 139.469 60.8298 139.312 60.5157 139.469C60.2016 139.625 60.0445 139.937 60.0445 140.406V144.311H59.8875ZM59.8875 155.714C59.8875 156.182 60.0445 156.651 60.3586 157.12C60.6727 157.588 60.9868 157.901 61.458 158.213C61.9291 158.525 62.2432 158.525 62.5573 158.369C62.8714 158.213 63.0285 157.901 63.0285 157.432V152.59C63.0285 152.121 62.8714 151.496 62.7144 151.028C62.5573 150.559 62.0862 150.09 61.615 149.778C60.9868 149.466 60.6727 149.466 60.5157 149.778C60.3586 150.09 60.2016 150.403 60.2016 151.028V155.714H59.8875Z" fill="#373D54"/>
<path d="M69.4676 160.555V158.68C69.4676 158.056 69.4676 157.587 69.4676 156.962C69.4676 156.494 69.6246 155.869 69.6246 155.556C69.7817 155.088 69.9387 154.775 70.0958 154.463C70.4099 154.151 70.724 153.994 71.0381 153.994C70.724 153.682 70.4099 153.213 70.0958 152.745C69.9387 152.276 69.6246 151.808 69.6246 151.339C69.4676 150.87 69.4676 150.402 69.3105 150.089C69.1535 149.777 69.3105 149.308 69.3105 148.996V146.028C69.3105 144.31 69.7817 143.216 70.724 142.748C71.6663 142.279 72.7656 142.435 74.3361 143.216C75.9066 144.154 77.163 145.247 77.9482 146.809C78.7334 148.371 79.2046 150.089 79.2046 151.964V153.838C79.2046 154.775 79.0475 155.556 78.8905 156.337C78.5764 156.962 78.2623 157.431 77.4771 157.431C77.9482 157.899 78.2623 158.524 78.4194 158.993C78.5764 159.461 78.8905 159.93 78.8905 160.555C79.0475 161.023 79.0475 161.648 79.0475 162.117C79.0475 162.742 79.0475 163.21 79.0475 163.835V166.022C79.0475 167.115 78.8905 167.896 78.7334 168.521C78.4193 169.146 78.1053 169.615 77.6341 169.771C77.163 170.083 76.6918 170.083 76.0636 169.927C75.4354 169.771 74.8072 169.615 74.179 169.146C73.3938 168.677 72.6085 168.053 71.9804 167.428C71.3522 166.803 70.881 166.022 70.4099 165.241C69.9387 164.46 69.7817 163.679 69.4676 162.742C69.6246 162.273 69.4676 161.492 69.4676 160.555ZM72.9226 151.808C72.9226 152.276 73.0797 152.745 73.3938 153.213C73.7079 153.682 74.022 153.994 74.4931 154.307C74.9643 154.619 75.2784 154.619 75.5925 154.463C75.9066 154.307 76.0636 153.994 76.0636 153.526V149.777C76.0636 149.308 75.9066 148.683 75.7495 148.215C75.5925 147.746 75.1213 147.278 74.6502 146.965C74.3361 146.809 73.8649 146.653 73.5508 146.809C73.2367 146.965 73.0797 147.278 73.0797 147.746V151.808H72.9226ZM72.9226 163.21C72.9226 163.679 73.0797 164.148 73.3938 164.616C73.7079 165.085 74.022 165.397 74.4931 165.71C74.9643 166.022 75.2784 166.022 75.5925 165.866C75.9066 165.71 76.0636 165.397 76.0636 164.929V160.086C76.0636 159.618 75.9066 158.993 75.7495 158.524C75.5925 158.056 75.1213 157.587 74.6502 157.275C74.179 156.962 73.7079 156.962 73.5508 157.275C73.3938 157.587 73.2367 157.899 73.2367 158.524V163.21H72.9226Z" fill="#373D54"/>
<path d="M110.457 171.49V167.117L113.755 166.023L117.053 167.898V193.671L113.598 191.641V170.397L110.457 171.49Z" fill="#373D54"/>
<path d="M121.765 177.425C121.765 175.239 122.236 173.833 123.178 173.052C124.12 172.427 125.377 172.427 126.947 173.364C128.675 174.301 129.931 175.707 130.716 177.269C131.502 178.831 131.816 180.549 131.816 182.268C131.816 183.361 131.659 184.298 131.502 185.079C131.345 185.86 130.873 186.641 130.559 187.422L126.005 195.076L131.659 198.357V202.105L122.079 196.638V193.202C123.021 191.64 123.963 190.078 124.906 188.516C125.848 186.954 126.79 185.392 127.733 183.83C128.047 183.361 128.204 182.892 128.361 182.268C128.518 181.643 128.518 181.018 128.518 180.393C128.518 180.237 128.518 179.925 128.518 179.612C128.518 179.3 128.361 178.987 128.361 178.675C128.204 178.363 128.047 178.05 127.89 177.894C127.733 177.582 127.418 177.425 127.104 177.269C126.633 176.957 126.162 177.113 125.848 177.425C125.534 177.738 125.377 178.675 125.377 179.925L121.765 177.425Z" fill="#373D54"/>
<path d="M134.014 199.763V196.326L138.726 180.55L142.181 182.58L137.469 198.045L140.61 199.763V193.983L144.065 196.014V201.793L145.479 202.574V206.323L144.065 205.542V209.291L140.61 207.261V203.512L134.014 199.763Z" fill="#373D54"/>
<path d="M147.049 207.26V203.824L151.761 188.047L155.216 190.078L150.504 205.542L153.645 207.26V201.481L157.1 203.511V209.291L158.514 210.072V213.821L157.1 213.04V216.789L153.645 214.758V211.009L147.049 207.26Z" fill="#373D54"/>
<path d="M186.469 229.754V226.318L191.18 210.541L194.635 212.572L189.924 228.036L193.065 229.754V223.974L196.52 226.005V231.785L197.933 232.566V236.315L196.52 235.534V239.282L193.065 237.252V233.503L186.469 229.754Z" fill="#373D54"/>
<path d="M199.975 235.064L203.43 236.626C203.273 237.72 203.43 238.657 203.744 239.438C204.058 240.063 204.529 240.532 205 240.844C205.314 241 205.785 241.156 206.1 241C206.414 240.844 206.571 240.375 206.571 239.594V236.158C206.571 235.221 206.414 234.596 206.1 233.971C205.785 233.346 205.314 232.878 204.686 232.565L203.744 231.94V228.504L204.843 229.129C205.471 229.441 205.942 229.597 206.257 229.441C206.571 229.285 206.728 228.816 206.728 228.035V225.224C206.728 224.755 206.571 224.13 206.414 223.662C206.257 223.037 205.785 222.724 205.314 222.412C204.843 222.1 204.372 222.1 204.058 222.412C203.744 222.724 203.587 223.505 203.587 224.755L200.132 222.256C200.132 220.225 200.603 218.976 201.545 218.351C202.487 217.726 203.744 217.882 205.314 218.819C206.257 219.288 206.885 219.913 207.513 220.538C208.141 221.162 208.612 221.943 208.926 222.568C209.24 223.349 209.555 224.13 209.712 224.755C209.869 225.536 210.026 226.317 210.026 226.942V228.973C210.026 229.441 210.026 229.91 210.026 230.378C210.026 230.847 209.869 231.316 209.869 231.628C209.712 231.94 209.555 232.253 209.398 232.409C209.083 232.565 208.769 232.721 208.455 232.721V232.878C209.24 233.659 209.712 234.596 209.869 235.377C210.026 236.314 210.183 237.095 210.183 238.032V241C210.183 243.031 209.712 244.28 208.769 244.905C207.827 245.374 206.571 245.218 205 244.28C203.116 243.187 201.859 241.937 201.074 240.375C200.289 238.813 199.975 237.095 199.975 235.064Z" fill="#373D54"/>
<path d="M212.539 244.749V241.312L217.25 225.536L220.705 227.567L215.994 243.031L219.135 244.749V238.969L222.59 241V246.78L224.003 247.561V251.309L222.59 250.528V254.277L219.135 252.247V248.498L212.539 244.749Z" fill="#373D54"/>
<path d="M226.516 250.529L229.971 251.934V252.403C229.971 253.34 230.128 254.121 230.285 254.59C230.599 255.215 230.913 255.527 231.542 255.839C231.856 255.996 232.327 256.152 232.484 255.996C232.641 255.839 232.955 255.371 232.955 254.59V248.498C232.955 247.404 232.484 246.623 231.542 246.155C231.228 245.999 230.913 245.842 230.599 245.842C230.285 245.842 230.128 246.155 229.814 246.467L226.673 244.593V231.003L236.253 236.47V240.219L230.128 236.626V242.718C230.442 242.406 230.756 242.25 231.228 242.406C231.699 242.562 232.013 242.562 232.484 242.875C233.897 243.656 234.84 244.749 235.468 245.842C236.096 247.092 236.41 248.342 236.41 249.748V255.215C236.41 257.714 235.939 259.276 235.154 259.901C234.369 260.526 233.112 260.369 231.385 259.432C229.657 258.495 228.401 257.089 227.615 255.527C226.83 254.277 226.516 252.403 226.516 250.529Z" fill="#373D54"/>
<path d="M265.778 263.494V259.12C265.778 258.339 265.935 257.558 266.092 256.933C266.249 256.309 266.564 255.84 267.035 255.527C267.506 255.215 267.977 255.059 268.605 255.215C269.233 255.215 270.019 255.527 270.804 255.996C272.374 256.933 273.631 258.027 274.416 259.589C275.201 260.995 275.672 262.557 275.672 264.119V267.399C275.672 269.273 275.515 270.835 275.044 272.085L270.961 282.082L267.349 280.051L270.961 271.148L270.804 270.992C270.49 271.148 270.019 270.992 269.39 270.679C268.291 270.054 267.506 269.273 266.878 268.18C266.092 266.93 265.778 265.368 265.778 263.494ZM269.233 265.681C269.233 266.149 269.39 266.618 269.705 267.087C270.019 267.555 270.333 267.868 270.804 268.18C271.275 268.492 271.589 268.492 271.903 268.18C272.217 267.868 272.217 267.555 272.217 267.087V262.088C272.217 261.619 272.06 261.151 271.746 260.682C271.432 260.214 271.118 259.901 270.647 259.745C270.176 259.433 269.862 259.433 269.548 259.589C269.233 259.745 269.076 259.901 269.076 260.526V265.681H269.233Z" fill="#373D54"/>
<path d="M277.871 282.394V278.957L282.583 263.181L286.038 265.211L281.326 280.675L284.467 282.394V276.614L287.922 278.645V284.424L289.336 285.205V288.954L287.922 288.173V291.922L284.467 289.891V286.142L277.871 282.394Z" fill="#373D54"/>
<path d="M291.848 288.018L295.303 289.423V289.892C295.303 290.829 295.46 291.61 295.617 292.079C295.931 292.704 296.246 293.016 296.874 293.328C297.188 293.485 297.659 293.641 297.816 293.485C297.973 293.328 298.287 292.86 298.287 292.079V285.987C298.287 284.893 297.816 284.112 296.874 283.644C296.56 283.488 296.246 283.331 295.931 283.331C295.617 283.331 295.46 283.644 295.146 283.956L292.005 282.082V268.336L301.585 273.803V277.552L295.46 273.959V280.051C295.774 279.739 296.088 279.583 296.56 279.739C297.031 279.739 297.345 279.895 297.816 280.207C299.229 280.988 300.172 282.082 300.8 283.175C301.428 284.425 301.742 285.674 301.742 287.08V292.547C301.742 295.047 301.271 296.609 300.486 297.234C299.701 297.858 298.444 297.702 296.717 296.765C294.989 295.828 293.733 294.422 292.947 292.86C292.319 291.766 291.848 290.048 291.848 288.018Z" fill="#373D54"/>
<path d="M304.884 295.514L308.339 296.92V297.389C308.339 298.326 308.496 299.107 308.653 299.576C308.967 300.2 309.281 300.513 309.909 300.825C310.223 300.981 310.695 301.138 310.852 300.981C311.009 300.825 311.323 300.357 311.323 299.576V293.484C311.323 292.39 310.852 291.609 309.909 291.141C309.595 290.984 309.281 290.828 308.967 290.828C308.653 290.828 308.496 291.141 308.182 291.453L305.041 289.579V275.833L314.621 281.3V285.049L308.496 281.456V287.548C308.81 287.236 309.124 287.079 309.595 287.236C310.066 287.392 310.38 287.392 310.852 287.704C312.265 288.485 313.207 289.579 313.836 290.672C314.464 291.922 314.778 293.171 314.778 294.577V300.044C314.778 302.544 314.307 304.106 313.521 304.73C312.736 305.355 311.48 305.199 309.752 304.262C308.025 303.324 306.768 301.919 305.983 300.357C305.355 299.263 304.884 297.545 304.884 295.514Z" fill="#373D54"/>
<path d="M167.619 266.369V257.289C167.619 256.77 167.749 256.381 167.878 255.992C168.008 255.733 168.268 255.473 168.528 255.344C168.787 255.214 169.047 255.214 169.437 255.214C169.826 255.214 170.216 255.473 170.606 255.603C171.515 256.122 172.164 256.77 172.683 257.678C173.203 258.586 173.463 259.494 173.463 260.532V269.612C173.463 270.131 173.333 270.52 173.203 270.909C173.073 271.169 172.813 271.428 172.554 271.558C172.294 271.688 172.034 271.688 171.644 271.688C171.255 271.688 170.865 271.428 170.476 271.299C170.086 271.039 169.696 270.78 169.307 270.391C168.917 270.001 168.658 269.612 168.398 269.223C168.138 268.834 167.878 268.315 167.749 267.796C167.749 267.277 167.619 266.888 167.619 266.369ZM169.697 267.537C169.697 267.796 169.826 268.056 169.956 268.315C170.086 268.575 170.346 268.834 170.606 268.964C170.865 269.093 170.995 269.093 171.255 269.093C171.385 268.964 171.515 268.834 171.515 268.575V259.365C171.515 259.105 171.385 258.846 171.255 258.586C171.125 258.327 170.865 258.068 170.606 257.938C170.346 257.808 170.086 257.808 169.956 257.808C169.826 257.938 169.697 258.068 169.697 258.327V267.537Z" fill="#373D54"/>
<path d="M175.411 270.391V269.353C175.411 268.964 175.411 268.704 175.411 268.315C175.411 267.926 175.54 267.667 175.54 267.407C175.67 267.148 175.67 266.888 175.8 266.759C175.93 266.629 176.19 266.499 176.32 266.499C176.06 266.24 175.93 265.98 175.8 265.721C175.67 265.461 175.54 265.202 175.54 264.943C175.411 264.683 175.411 264.424 175.411 264.164C175.411 263.905 175.411 263.775 175.411 263.516V261.7C175.411 260.662 175.67 260.013 176.19 259.754C176.709 259.494 177.359 259.494 178.268 260.013C179.177 260.532 179.956 261.31 180.346 262.218C180.865 263.126 181.125 264.164 181.125 265.332V266.499C181.125 267.018 180.995 267.537 180.865 267.926C180.735 268.315 180.475 268.575 180.086 268.575C180.346 268.834 180.475 269.223 180.605 269.483C180.735 269.742 180.865 270.131 180.865 270.391C180.995 270.65 180.995 271.039 180.995 271.299C180.995 271.688 180.995 271.947 180.995 272.336V273.633C180.995 274.282 180.865 274.801 180.735 275.19C180.605 275.579 180.346 275.839 180.086 275.968C179.826 276.098 179.566 276.098 179.177 276.098C178.787 276.098 178.398 275.839 178.008 275.709C177.488 275.449 177.099 275.06 176.709 274.671C176.32 274.282 176.06 273.893 175.8 273.374C175.54 272.855 175.411 272.466 175.281 271.947C175.411 271.428 175.411 270.909 175.411 270.391ZM177.359 265.072C177.359 265.332 177.488 265.591 177.618 265.851C177.748 266.11 178.008 266.369 178.268 266.499C178.527 266.629 178.787 266.629 178.917 266.629C179.047 266.499 179.177 266.369 179.177 266.11V263.905C179.177 263.645 179.047 263.256 178.917 262.997C178.787 262.737 178.527 262.478 178.268 262.348C178.008 262.218 177.878 262.218 177.618 262.218C177.488 262.218 177.359 262.478 177.359 262.737V265.072ZM177.359 271.947C177.359 272.207 177.488 272.466 177.618 272.725C177.748 272.985 178.008 273.244 178.268 273.374C178.527 273.504 178.787 273.504 178.917 273.504C179.047 273.374 179.177 273.244 179.177 272.985V270.131C179.177 269.872 179.177 269.483 179.047 269.223C178.917 268.964 178.657 268.704 178.398 268.445C178.008 268.315 177.878 268.185 177.748 268.445C177.618 268.575 177.618 268.834 177.618 269.223V271.947H177.359Z" fill="#373D54"/>
<path d="M182.164 278.692L185.67 263.905L187.228 264.813L183.722 279.6L182.164 278.692Z" fill="#373D54"/>
<path d="M188.267 269.871C188.267 268.574 188.527 267.666 189.046 267.277C189.566 266.888 190.345 266.888 191.254 267.407C192.293 268.055 193.072 268.834 193.462 269.742C193.851 270.65 194.111 271.687 194.111 272.725C194.111 273.374 194.111 274.022 193.981 274.411C193.851 274.93 193.592 275.319 193.332 275.709L190.605 280.249L193.981 282.194V284.4L188.267 281.157V279.211C188.787 278.303 189.436 277.395 189.955 276.487C190.475 275.579 191.124 274.671 191.644 273.763C191.773 273.503 191.903 273.114 192.033 272.855C192.033 272.466 192.163 272.077 192.163 271.687C192.163 271.558 192.163 271.428 192.163 271.298C192.163 271.169 192.163 270.909 192.033 270.779C191.903 270.65 191.903 270.39 191.773 270.261C191.644 270.131 191.514 270.001 191.254 269.871C190.994 269.742 190.735 269.742 190.605 270.001C190.475 270.261 190.345 270.65 190.345 271.558L188.267 269.871Z" fill="#373D54"/>
<path d="M197.098 275.32V272.725L199.046 272.077L200.994 273.244V288.55L198.916 287.383V274.671L197.098 275.32Z" fill="#373D54"/>
<path d="M30.6108 240.686C31.0004 238.74 31.39 236.924 31.6498 234.978C32.0394 233.033 32.429 231.217 32.6887 229.271L34.6367 230.309L36.8444 244.188L35.1561 243.151L34.7665 240.297L32.6887 239.129C32.6887 239.518 32.5588 239.908 32.5588 240.297C32.5588 240.686 32.429 241.075 32.429 241.464L30.6108 240.686ZM32.9484 237.573L34.5068 238.481L33.8575 232.773H33.7276C33.5977 233.552 33.4679 234.33 33.338 235.238C33.2081 235.886 33.0783 236.794 32.9484 237.573Z" fill="#373D54"/>
<path d="M37.8833 244.836V232.254L39.4417 233.162L40.7403 237.702C40.8702 238.091 41.0001 238.48 41.0001 238.74C41.1299 239.129 41.2598 239.518 41.3897 239.907L41.9091 241.983V234.589L43.5974 235.497V248.079L42.039 247.171L40.7403 242.631C40.4806 241.853 40.3507 241.204 40.091 240.426C39.8313 239.777 39.7014 238.999 39.4417 238.221H39.3118V245.615L37.8833 244.836Z" fill="#373D54"/>
<path d="M45.2856 249.117V236.405L48.0128 237.962C48.6621 238.351 49.1816 238.74 49.5712 239.259C49.9608 239.778 50.2205 240.296 50.3504 241.075C50.4803 241.594 50.4803 242.242 50.4803 243.021C50.4803 243.799 50.4803 244.707 50.4803 245.745C50.4803 246.782 50.4803 247.69 50.4803 248.469C50.4803 249.247 50.3504 249.766 50.2205 250.155C49.9608 250.803 49.7011 251.063 49.3115 251.063C48.9219 251.063 48.4024 250.933 47.883 250.544L45.2856 249.117ZM46.9739 248.209L47.7531 248.598C48.1427 248.858 48.4024 248.858 48.6621 248.728C48.792 248.598 48.9219 248.209 48.9219 247.82V241.853C48.9219 241.334 48.792 240.945 48.6621 240.686C48.5323 240.296 48.2725 240.037 47.7531 239.778L46.9739 239.388V248.209Z" fill="#373D54"/>
<path d="M52.1685 253.009V240.427L54.6359 241.854C55.545 242.372 56.1943 243.021 56.7137 243.929C57.2332 244.837 57.4929 245.875 57.4929 247.172C57.4929 247.95 57.3631 248.599 57.2332 248.988C56.9735 249.377 56.7137 249.637 56.1943 249.637L57.7527 256.252L56.0644 255.214L54.6359 249.118L53.8567 248.599V253.787L52.1685 253.009ZM53.8567 246.913L54.506 247.302C54.8956 247.561 55.2852 247.561 55.4151 247.431C55.6748 247.302 55.6748 246.783 55.6748 246.134C55.6748 245.615 55.545 245.097 55.4151 244.578C55.2852 244.059 54.8956 243.799 54.3762 243.54L53.7268 243.151V246.913H53.8567Z" fill="#373D54"/>
<path d="M58.9214 256.9V244.318L63.7264 247.172V248.988L60.6096 247.172V250.674L63.3368 252.23V254.047L60.6096 252.49V256.122L63.7264 257.938V259.754L58.9214 256.9Z" fill="#373D54"/>
<path d="M64.2461 247.431L65.9343 248.469C66.0642 249.377 66.0642 250.155 66.1941 250.933C66.3239 251.712 66.3239 252.62 66.4538 253.398C66.4538 253.528 66.4538 253.787 66.5837 254.046C66.5837 254.436 66.7135 254.695 66.7135 255.084C66.7135 255.473 66.8434 255.862 66.8434 256.122C66.8434 256.381 66.8434 256.641 66.9733 256.77H67.1031C67.1031 256.381 67.233 255.862 67.233 255.473C67.233 255.084 67.3629 254.565 67.3629 254.176L68.0122 249.377L69.4407 250.155L70.3498 255.862C70.4796 256.381 70.4796 256.9 70.6095 257.419C70.7394 257.938 70.7394 258.457 70.8692 258.976L71.129 256.252L71.5186 251.193L73.2068 252.23L71.7783 264.034L70.09 262.997L69.3108 257.03C69.3108 256.641 69.181 256.252 69.181 255.862C69.181 255.473 69.0511 255.084 69.0511 254.695H68.9213L68.5317 256.641C68.4018 257.419 68.1421 258.197 68.0122 259.105C67.8823 259.884 67.6226 260.662 67.4927 261.57L65.8045 260.532L64.2461 247.431Z" fill="#373D54"/>
<path d="M77.6221 267.796V255.214L79.1805 256.122L80.4791 260.662C80.609 261.051 80.7388 261.44 80.7388 261.7C80.8687 262.089 80.9986 262.478 81.1284 262.867L81.6479 264.942V257.549L83.3362 258.457V271.039L81.7778 270.131L80.4791 265.591C80.2194 264.813 80.0895 264.164 79.8298 263.386C79.5701 262.737 79.4402 261.959 79.1805 261.181H79.0506V268.575L77.6221 267.796Z" fill="#373D54"/>
<path d="M85.0244 272.077V259.494L89.8294 262.348V264.164L86.7127 262.348V265.85L89.4398 267.407V269.223L86.7127 267.666V271.298L89.8294 273.114V274.93L85.0244 272.077Z" fill="#373D54"/>
<path d="M90.7387 272.336L92.427 272.984C92.427 273.503 92.5569 273.892 92.6867 274.281C92.8166 274.67 93.0763 274.93 93.4659 275.189C93.7257 275.319 93.8555 275.319 93.9854 275.319C94.1153 275.319 94.2451 275.189 94.2451 275.06C94.375 274.93 94.375 274.8 94.375 274.541C94.375 274.281 94.375 274.152 94.375 273.892C94.375 273.633 94.375 273.373 94.375 273.114C94.375 272.854 94.2451 272.725 94.2451 272.465C94.1153 272.206 93.9854 272.076 93.8555 271.817C93.7257 271.557 93.4659 271.428 93.2062 271.038C92.6867 270.52 92.2971 270.001 91.9075 269.482C91.6478 269.093 91.3881 268.574 91.1283 268.185C90.8686 267.795 90.8686 267.406 90.7387 267.017C90.7387 266.628 90.6089 266.239 90.6089 265.85C90.6089 265.331 90.6089 264.942 90.7387 264.553C90.8686 264.163 90.9985 263.904 91.2582 263.774C91.5179 263.645 91.7777 263.515 92.0374 263.515C92.427 263.515 92.8166 263.645 93.2062 263.904C93.7257 264.163 94.1153 264.553 94.5048 264.942C94.8944 265.331 95.1542 265.72 95.284 266.109C95.5438 266.498 95.6736 266.887 95.6736 267.277C95.8035 267.666 95.8035 268.055 95.8035 268.314L94.1153 267.796C94.1153 267.277 93.9854 266.888 93.8555 266.498C93.7257 266.109 93.4659 265.85 93.0763 265.59C92.8166 265.461 92.6867 265.461 92.5569 265.461C92.427 265.461 92.2971 265.59 92.2971 265.72C92.1673 265.85 92.1673 265.979 92.1673 266.109C92.1673 266.239 92.1673 266.498 92.1673 266.628C92.1673 266.887 92.1673 267.017 92.1673 267.277C92.1673 267.406 92.2971 267.666 92.2971 267.796C92.427 268.055 92.5569 268.185 92.6867 268.444C92.9465 268.704 93.2062 268.963 93.4659 269.352C93.9854 269.871 94.375 270.26 94.6347 270.649C94.8944 271.038 95.1542 271.427 95.284 271.817C95.4139 272.206 95.5438 272.595 95.5438 272.984C95.5438 273.373 95.6736 273.762 95.6736 274.281C95.6736 274.8 95.6736 275.319 95.5438 275.708C95.4139 276.097 95.284 276.357 95.1542 276.616C95.0243 276.876 94.6347 276.876 94.375 276.876C93.9854 276.876 93.5958 276.746 93.0763 276.357C92.5569 276.097 92.1673 275.708 91.9075 275.449C91.5179 275.06 91.2582 274.67 91.1283 274.281C90.8686 273.892 90.7388 273.503 90.6089 272.984C90.7388 273.244 90.7387 272.725 90.7387 272.336Z" fill="#373D54"/>
<path d="M96.7124 267.926V266.11L101.907 269.094V270.91L100.089 269.872V280.638L98.4007 279.6V268.834L96.7124 267.926Z" fill="#373D54"/>
<path d="M102.816 282.324V269.742L107.621 272.596V274.412L104.504 272.596V276.098L107.231 277.655V279.471L104.504 277.914V281.546L107.621 283.362V285.178L102.816 282.324Z" fill="#373D54"/>
<path d="M108.79 285.697V273.114L111.257 274.541C112.166 275.06 112.815 275.709 113.335 276.617C113.854 277.525 114.114 278.562 114.114 279.859C114.114 280.638 113.984 281.286 113.854 281.675C113.595 282.065 113.335 282.324 112.815 282.324L114.374 288.939L112.686 287.902L111.257 281.805L110.478 281.286V286.475L108.79 285.697ZM110.478 279.6L111.127 279.989C111.517 280.249 111.906 280.249 112.036 280.119C112.296 279.989 112.296 279.47 112.296 278.822C112.296 278.303 112.166 277.784 112.036 277.265C111.906 276.746 111.517 276.487 110.997 276.227L110.348 275.838V279.6H110.478Z" fill="#373D54"/>
<path d="M115.543 289.588V277.005L120.348 279.859V281.675L117.231 279.859V283.361L119.958 284.918V286.734L117.231 285.177V288.809L120.348 290.625V292.441L115.543 289.588Z" fill="#373D54"/>
<path d="M121.517 293.091V280.509L123.075 281.417L124.374 285.957C124.504 286.346 124.633 286.735 124.633 286.995C124.763 287.384 124.893 287.773 125.023 288.162L125.542 290.237V282.844L127.231 283.752V296.334L125.672 295.426L124.374 290.886C124.114 290.108 123.984 289.459 123.724 288.681C123.465 288.032 123.335 287.254 123.075 286.476H122.945V293.869L121.517 293.091Z" fill="#373D54"/>
<path d="M128.919 297.371V284.788L130.607 285.696V290.755H130.737L132.815 286.864L134.633 287.902C134.243 288.55 133.854 289.199 133.464 289.847C133.075 290.496 132.685 291.144 132.425 291.793L134.893 300.743L133.205 299.706L131.386 293.22C131.257 293.479 131.127 293.609 130.997 293.868C130.867 294.128 130.737 294.258 130.607 294.517V298.149L128.919 297.371Z" fill="#373D54"/>
<path d="M135.542 298.149V291.793C135.542 291.274 135.542 290.885 135.672 290.496C135.802 290.107 135.932 289.847 136.192 289.718C136.451 289.588 136.711 289.458 136.971 289.458C137.36 289.458 137.75 289.588 138.14 289.977C138.659 290.237 139.049 290.626 139.438 290.885C139.828 291.274 140.088 291.663 140.217 292.053C140.347 292.442 140.607 292.831 140.607 293.35C140.737 293.869 140.737 294.258 140.737 294.777V301.003C140.737 302.041 140.477 302.819 140.088 303.078C139.698 303.338 138.919 303.338 138.01 302.819C137.101 302.3 136.451 301.651 135.932 300.873C135.412 300.095 135.542 299.187 135.542 298.149ZM137.231 299.187C137.231 299.576 137.36 299.835 137.49 300.225C137.62 300.614 137.88 300.873 138.269 301.003C138.659 301.262 138.919 301.262 139.049 301.003C139.178 300.873 139.308 300.484 139.308 300.095V293.739C139.308 293.35 139.308 293.09 139.049 292.701C138.919 292.312 138.659 292.053 138.269 291.793C138.01 291.663 137.88 291.663 137.75 291.663C137.62 291.663 137.49 291.793 137.49 291.923C137.36 292.053 137.36 292.182 137.36 292.312C137.36 292.442 137.36 292.701 137.36 292.831V299.187H137.231Z" fill="#373D54"/>
<path d="M146.97 241.983L147.749 242.372L148.139 244.967L148.399 246.912L148.658 245.226L149.048 243.021L149.827 243.41L148.918 248.599L148.009 248.08L146.97 241.983Z" fill="#373D54"/>
<path d="M149.957 249.506C150.087 248.598 150.347 247.82 150.476 246.912C150.606 246.004 150.866 245.226 150.996 244.318L151.905 244.836L152.944 251.193L152.165 250.803L151.905 249.506L150.996 248.987C150.996 249.117 150.996 249.377 150.866 249.506C150.866 249.636 150.866 249.895 150.736 250.025L149.957 249.506ZM151.126 248.079L151.775 248.469L151.515 245.874C151.515 246.263 151.386 246.653 151.386 246.912C151.256 247.301 151.126 247.69 151.126 248.079Z" fill="#373D54"/>
<path d="M153.333 251.322V245.615L154.113 246.004V250.933L155.541 251.711V252.619L153.333 251.322Z" fill="#373D54"/>
<path d="M155.931 252.879V247.172L156.71 247.561V253.268L155.931 252.879Z" fill="#373D54"/>
<path d="M157.489 253.787V248.08L158.788 248.858C159.048 248.988 159.307 249.247 159.437 249.377C159.567 249.636 159.697 249.896 159.827 250.155C159.827 250.415 159.957 250.674 159.957 251.063C159.957 251.452 159.957 251.842 159.957 252.36C159.957 252.879 159.957 253.268 159.957 253.528C159.957 253.917 159.957 254.176 159.827 254.306C159.697 254.566 159.567 254.695 159.437 254.695C159.178 254.695 159.048 254.695 158.788 254.436L157.489 253.787ZM158.268 253.398L158.658 253.528C158.788 253.658 158.918 253.658 159.048 253.528C159.178 253.398 159.178 253.268 159.178 253.139V250.415C159.178 250.155 159.178 250.026 159.048 249.896C158.918 249.766 158.788 249.636 158.658 249.507L158.268 249.377V253.398Z" fill="#373D54"/>
<path d="M147.23 256.382V251.972L148.009 252.361V256.771C148.009 256.901 148.009 257.031 148.139 257.29C148.269 257.42 148.269 257.549 148.529 257.679C148.658 257.809 148.788 257.809 148.918 257.679C149.048 257.549 149.048 257.42 149.048 257.29V253.009L149.827 253.399V257.679C149.827 258.198 149.697 258.457 149.568 258.587C149.438 258.717 149.048 258.717 148.659 258.457C148.269 258.198 147.879 257.939 147.749 257.549C147.36 257.16 147.23 256.771 147.23 256.382Z" fill="#373D54"/>
<path d="M150.347 259.495V253.787L150.996 254.176L151.645 256.252C151.645 256.381 151.775 256.641 151.775 256.771C151.775 256.9 151.905 257.16 151.905 257.289L152.165 258.197V254.825L152.944 255.214V260.921L152.295 260.532L151.645 258.457C151.515 258.068 151.515 257.808 151.386 257.419C151.256 257.16 151.256 256.771 151.126 256.381V259.754L150.347 259.495Z" fill="#373D54"/>
<path d="M153.333 256.381V255.473L155.671 256.9V257.808L154.892 257.289V262.219L154.113 261.829V256.9L153.333 256.381Z" fill="#373D54"/>
<path d="M156.19 262.867V257.16L156.97 257.549V263.257L156.19 262.867Z" fill="#373D54"/>
<path d="M157.749 263.775V258.068L158.528 258.457V263.386L159.957 264.164V265.072L157.749 263.775Z" fill="#373D54"/>
<path fill-rule="evenodd" clip-rule="evenodd" d="M277.745 366.77L274.628 386.097L279.563 388.951L282.68 369.623L277.745 366.77ZM270.472 362.619L265.667 374.293L265.148 371.829C264.239 368.715 261.512 363.267 258.265 359.116L262.681 379.352L267.875 382.335L275.667 365.732L270.472 362.619ZM292.55 383.892C290.861 381.946 289.822 380.649 289.822 379.611C289.822 378.703 290.732 378.314 292.679 379.482C294.238 380.39 295.407 381.427 296.316 382.465L296.705 382.984L297.355 378.833C296.316 377.795 294.887 376.498 292.939 375.331C288.004 372.477 284.628 373.385 284.628 377.536C284.628 380.519 287.095 383.633 288.913 385.838C290.861 388.043 291.511 389.081 291.511 389.989C291.511 391.416 289.952 391.156 288.524 390.378C286.576 389.21 285.537 388.302 283.849 386.616L283.329 385.578L282.68 389.859C283.849 391.156 285.926 392.842 288.134 394.14C293.329 397.123 296.705 396.215 296.705 391.805C296.705 389.599 295.407 387.005 292.55 383.892ZM310.081 385.449L306.315 383.243C305.147 382.595 304.238 382.465 303.718 383.503L296.446 398.68L301.64 401.663C301.64 401.663 302.549 399.588 302.679 399.069C303.199 399.458 308.263 402.312 309.043 402.701C309.172 403.479 309.692 406.203 309.692 406.203L314.237 408.797L310.081 385.449ZM303.978 395.566C304.367 394.529 305.926 390.767 305.926 390.767C305.926 390.767 306.315 389.729 306.575 389.081L306.965 391.156C306.965 391.156 307.874 396.734 308.133 397.901L303.978 395.566Z" fill="#4949D7"/>
<path fill-rule="evenodd" clip-rule="evenodd" d="M264.888 370.012L263.2 359.765C262.94 358.338 262.031 357.43 260.992 356.781L253.33 352.371V352.76C259.304 357.949 263.33 364.305 264.888 370.012Z" fill="#FAA61A"/>
<path d="M309.042 234.33L273.589 213.835C270.862 212.279 268.524 208.257 268.524 205.015V183.741V175.829C268.524 172.586 270.862 171.289 273.589 172.845L309.042 193.34C311.769 194.897 314.107 198.918 314.107 202.161V231.347C314.107 234.59 311.769 235.887 309.042 234.33Z" fill="#D6D6ED"/>
<path d="M284.887 194.118L268.524 184.649V183.093L284.887 192.562V194.118Z" fill="white"/>
<path d="M314.107 210.852L297.874 201.513V200.086L314.107 209.425V210.852Z" fill="white"/>
<path d="M284.627 207.091L268.524 197.751V196.324L284.627 205.534V207.091Z" fill="white"/>
<path d="M314.107 224.083L297.744 214.614V213.187L314.107 222.527V224.083Z" fill="white"/>
<path d="M291.25 186.595C294.237 188.281 296.705 192.043 297.354 195.805C297.484 196.453 297.484 197.102 297.484 197.621C297.484 199.047 297.094 200.345 296.445 201.123C295.536 202.161 295.017 203.847 295.017 205.922C295.017 207.998 295.536 210.203 296.445 212.278C297.094 213.835 297.484 215.521 297.484 216.948C297.484 218.375 297.094 219.672 296.445 220.45C295.276 221.748 293.328 221.877 291.25 220.58C289.173 219.413 287.225 217.078 286.056 214.354C285.277 212.797 285.017 211.111 285.017 209.554C285.017 208.127 285.407 206.83 286.056 206.052C286.965 205.014 287.484 203.328 287.484 201.253C287.484 199.177 286.965 196.972 286.056 194.897C285.407 193.34 285.017 191.654 285.017 190.227C285.017 189.708 285.017 189.189 285.147 188.67C285.796 185.816 288.393 184.908 291.25 186.595ZM291.25 185.168C287.614 183.092 284.627 184.26 283.848 187.632C283.718 188.151 283.588 188.8 283.588 189.578C283.588 191.394 284.108 193.34 284.887 195.286C285.666 197.102 286.056 199.047 286.056 200.734C286.056 202.42 285.666 203.847 284.887 204.755C284.108 205.663 283.588 207.09 283.588 208.906C283.588 210.722 284.108 212.667 284.887 214.613C286.316 217.726 288.523 220.58 291.121 222.007C293.718 223.564 296.055 223.304 297.354 221.748C298.133 220.84 298.653 219.413 298.653 217.597C298.653 215.781 298.133 213.835 297.354 211.889C296.575 210.073 296.185 208.127 296.185 206.441C296.185 204.755 296.575 203.328 297.354 202.42C298.133 201.512 298.653 200.085 298.653 198.269C298.653 197.621 298.523 196.842 298.393 196.194C297.874 191.783 294.887 187.243 291.25 185.168Z" fill="white"/>
<path d="M36.5848 74.3911L35.6758 76.5963L45.4157 82.3037L48.2727 74.7803L50.3506 69.8511L39.312 70.6294L36.5848 74.3911Z" fill="#4949D7"/>
<path d="M69.8302 64.2729V68.8129L68.0121 74.3907L57.8826 70.1101L58.1423 69.202C60.2201 70.2398 61.9084 69.202 61.9084 66.7375C61.9084 64.2729 60.0903 61.1597 57.8826 59.8626L43.2078 51.4311L41.1299 56.6197L40.2209 58.8248L30.481 53.2471L32.4289 48.0585L36.8444 36.6436L57.7527 48.7071C62.6876 51.5608 66.9732 57.0088 69.4406 62.9757C69.5705 63.1054 69.5705 63.3649 69.7003 63.4946L69.8302 64.2729Z" fill="#4949D7"/>
<path d="M37.4939 72.0562L35.6758 76.5963L45.4157 82.3037L48.2727 74.7803L50.3506 69.8511L38.2731 70.1105L37.4939 72.0562Z" fill="url(#paint0_linear)"/>
<path d="M69.8302 64.2729V68.8129L68.0121 74.3907L57.8826 70.1101L58.1423 69.202C60.2201 70.2398 61.9084 69.202 61.9084 66.7375C61.9084 64.2729 60.0903 61.1597 57.8826 59.8626L43.2078 51.4311L41.1299 56.6197L40.2209 58.8248L30.481 53.2471L32.4289 48.0585L36.8444 36.6436L57.7527 48.7071C58.5319 49.2259 59.441 49.7448 60.2202 50.3934C64.1161 53.5065 67.4926 58.0466 69.4406 62.9757C69.5705 63.1054 69.5705 63.3649 69.7003 63.4946L69.8302 64.2729Z" fill="url(#paint1_linear)"/>
<path d="M71.6483 72.4453C71.6483 72.7047 71.6483 72.8344 71.6483 73.0939V73.2236C71.2587 81.3956 65.2849 84.6385 58.0124 80.3579L41.6494 70.8887L41.2598 70.759C39.5715 69.851 38.143 70.2401 37.6235 71.667L39.4417 67.127L39.9611 65.7001L40.3507 64.6624L40.4806 64.403L41.3896 62.1978L41.5195 61.8087L42.039 60.3818L42.1688 60.1224L58.0124 69.2024C58.1423 69.2024 58.1423 69.3321 58.2721 69.3321C58.402 69.3321 58.402 69.4618 58.5319 69.4618C63.4668 72.3156 67.3627 69.9807 67.3627 64.403C67.3627 59.6035 64.3758 53.7663 60.4799 50.5234C64.3758 53.5069 67.6225 58.0469 69.7003 62.9761C69.7003 62.9761 69.7003 63.1058 69.8302 63.1058C69.96 63.2355 69.96 63.495 70.0899 63.6247V63.7544C70.4795 64.9218 70.8691 66.0892 71.1288 67.2567C71.2587 67.5161 71.2587 67.7755 71.2587 68.035C71.3886 68.2944 71.3886 68.6836 71.3886 68.943C71.3886 68.943 71.3886 68.943 71.3886 69.0727C71.5184 69.851 71.6483 70.6293 71.6483 71.2779C71.6483 71.5373 71.6483 71.9264 71.6483 72.1859C71.6483 72.1859 71.6483 72.3156 71.6483 72.4453Z" fill="url(#paint2_linear)"/>
<defs>
<linearGradient id="paint0_linear" x1="43.3329" y1="74.1876" x2="43.6126" y2="80.7258" gradientUnits="userSpaceOnUse">
<stop stop-color="#3434AE"/>
<stop offset="1" stop-color="#3434AE" stop-opacity="0"/>
</linearGradient>
<linearGradient id="paint1_linear" x1="61.9995" y1="84.7768" x2="52.1051" y2="64.5329" gradientUnits="userSpaceOnUse">
<stop stop-color="#3434AE"/>
<stop offset="1" stop-color="#3434AE" stop-opacity="0"/>
</linearGradient>
<linearGradient id="paint2_linear" x1="61.8468" y1="66.2318" x2="43.9001" y2="70.7716" gradientUnits="userSpaceOnUse">
<stop offset="0.00540541" stop-color="#FF2E3A"/>
<stop offset="0.6577" stop-color="#FF6B37"/>
<stop offset="0.9944" stop-color="#FF8536"/>
</linearGradient>
</defs>
</svg>
